<svg id="_x23_1" xmlns="http://www.w3.org/2000/svg" viewBox="0 0 429.3 228"><style>.st0{fill:#6da2a3}.st1{fill:#859f24}</style><g id="Left_Text"><path d="M15.5 56.2h4.2v.6h-4.9v-8.5h.7v7.9zM20.5 53.5c0-.9.3-1.7.8-2.3s1.2-.9 2-.9 1.5.3 2 .9.8 1.4.8 2.3v.2c0 .9-.3 1.7-.8 2.3s-1.2.9-2 .9c-.9 0-1.5-.3-2-.9s-.8-1.4-.8-2.3v-.2zm.7.2c0 .7.2 1.4.6 1.8s.9.7 1.6.7c.7 0 1.2-.2 1.5-.7s.6-1.1.6-1.8v-.2c0-.7-.2-1.3-.6-1.8s-.9-.8-1.5-.8-1.2.3-1.5.8-.6 1.1-.6 1.8v.2zM27.3 53.7c0-1 .2-1.8.6-2.4s1-.9 1.8-.9c.4 0 .8.1 1.2.3s.6.5.8.8l.1-1h.6v6.3c0 .8-.2 1.5-.7 1.9-.5.5-1.1.7-1.9.7-.3 0-.6 0-1-.1s-.6-.3-.8-.4l.2-.6c.2.1.5.2.8.3s.6.1.9.1c.6 0 1.1-.2 1.4-.5s.5-.8.5-1.5v-.8c-.2.3-.5.6-.8.7s-.7.3-1.1.3c-.8 0-1.4-.3-1.8-.8s-.6-1.3-.6-2.3v-.1zm.7.1c0 .8.2 1.4.5 1.8s.8.7 1.4.7c.5 0 .8-.1 1.1-.3.3-.2.5-.5.7-.9v-2.9c-.2-.4-.4-.7-.7-.9-.3-.2-.7-.4-1.2-.4-.6 0-1.1.3-1.4.8s-.5 1.2-.5 2v.1zM33.9 53.5c0-.9.3-1.7.8-2.3s1.2-.9 2-.9 1.5.3 2 .9.8 1.4.8 2.3v.2c0 .9-.3 1.7-.8 2.3s-1.2.9-2 .9c-.9 0-1.5-.3-2-.9s-.8-1.4-.8-2.3v-.2zm.7.2c0 .7.2 1.4.6 1.8s.9.7 1.6.7c.7 0 1.2-.2 1.5-.7s.6-1.1.6-1.8v-.2c0-.7-.2-1.3-.6-1.8s-.9-.8-1.5-.8-1.2.3-1.5.8-.6 1.1-.6 1.8v.2zM40.8 57.5h-.6l3.6-9.3h.6l-3.6 9.3zM46.8 56.8h-.7v-8.5h.7v8.5zM49.6 50.4l.1 1.1c.2-.4.5-.7.8-.9s.8-.3 1.2-.3c.7 0 1.2.2 1.6.6s.5 1.1.5 2v3.9h-.7v-3.9c0-.7-.1-1.2-.4-1.5s-.7-.5-1.2-.5-.9.1-1.2.4-.5.6-.7 1v4.4H49v-6.3h.6zM56.8 48.8v1.6h1.4v.6h-1.4v4.1c0 .4.1.7.2.9s.4.3.6.3h.7l.1.5c-.1.1-.3.1-.4.1h-.5c-.4 0-.8-.1-1-.4s-.5-.8-.5-1.4V51h-1.1v-.6H56v-1.6h.8zM62.6 51H62c-.4 0-.8.1-1.1.4s-.5.6-.6 1v4.4h-.7v-6.3h.6l.1 1.1v.1c.2-.4.4-.7.7-.9s.7-.3 1.1-.3h.5v.5zM63.2 53.5c0-.9.3-1.7.8-2.3.5-.6 1.2-.9 2-.9s1.5.3 2 .9.8 1.4.8 2.3v.2c0 .9-.3 1.7-.8 2.3s-1.2.9-2 .9c-.9 0-1.5-.3-2-.9-.5-.6-.8-1.4-.8-2.3v-.2zm.7.2c0 .7.2 1.4.6 1.8s.9.7 1.6.7c.7 0 1.2-.2 1.5-.7s.6-1.1.6-1.8v-.2c0-.7-.2-1.3-.6-1.8s-.9-.8-1.5-.8-1.2.3-1.5.8-.6 1.1-.6 1.8v.2zM78 54.4h-3.9l-.9 2.4h-.7l3.2-8.5h.7l3.2 8.5h-.7l-.9-2.4zm-3.7-.6h3.4L76 49.2l-1.7 4.6zM81.3 50.4l.1 1.1c.2-.4.5-.7.8-.9s.8-.3 1.2-.3c.7 0 1.2.2 1.6.6s.5 1.1.5 2v3.9h-.7v-3.9c0-.7-.1-1.2-.4-1.5s-.7-.5-1.2-.5-.9.1-1.2.4-.5.6-.7 1v4.4h-.7v-6.3h.7zM88.2 48.6h-.7v-1h.7v1zm0 8.2h-.7v-6.3h.7v6.3zM90.7 50.4l.1 1c.2-.4.5-.7.8-.9s.7-.3 1.2-.3.9.1 1.2.4.6.6.7 1.1c.2-.4.5-.8.8-1s.8-.4 1.3-.4c.7 0 1.2.2 1.6.7s.6 1.1.6 2.1v3.7h-.7v-3.7c0-.8-.1-1.3-.4-1.7s-.7-.5-1.2-.5-1 .2-1.3.5c-.3.3-.5.8-.6 1.3v4h-.7V53c0-.8-.1-1.3-.4-1.6-.3-.3-.7-.5-1.2-.5s-.9.1-1.2.4-.5.6-.6 1v4.5H90v-6.3h.7zM104.7 56.8c0-.2-.1-.4-.1-.6v-.5c-.2.3-.5.6-.9.8s-.8.3-1.3.3c-.6 0-1.1-.2-1.4-.5s-.5-.8-.5-1.3c0-.6.3-1.1.8-1.4s1.2-.5 2-.5h1.4v-.8c0-.5-.1-.8-.4-1.1s-.7-.4-1.2-.4-.9.1-1.2.4-.5.5-.5.9h-.6c0-.5.2-.9.6-1.3s1-.6 1.7-.6 1.3.2 1.7.5.6.9.6 1.5V56c0 .3.1.4.1.6h-.8zm-2.3-.5c.5 0 .9-.1 1.3-.4s.7-.5.8-.9v-1.3h-1.4c-.6 0-1.1.1-1.5.4s-.6.6-.6 1c0 .3.1.6.4.8s.6.4 1 .4zM108.3 48.8v1.6h1.4v.6h-1.4v4.1c0 .4.1.7.2.9s.4.3.6.3h.7l.1.5c-.1.1-.3.1-.4.1h-.5c-.4 0-.8-.1-1-.4s-.4-.7-.4-1.3V51h-1.1v-.6h1.1v-1.6h.7zM112 48.6h-.7v-1h.7v1zm0 8.2h-.7v-6.3h.7v6.3zM113.5 53.5c0-.9.3-1.7.8-2.3s1.2-.9 2-.9 1.5.3 2 .9.8 1.4.8 2.3v.2c0 .9-.3 1.7-.8 2.3s-1.2.9-2 .9c-.9 0-1.5-.3-2-.9s-.8-1.4-.8-2.3v-.2zm.7.2c0 .7.2 1.4.6 1.8s.9.7 1.6.7c.7 0 1.2-.2 1.5-.7s.6-1.1.6-1.8v-.2c0-.7-.2-1.3-.6-1.8s-.9-.8-1.5-.8-1.2.3-1.5.8-.6 1.1-.6 1.8v.2zM121.2 50.4l.1 1.1c.2-.4.5-.7.8-.9s.8-.3 1.2-.3c.7 0 1.2.2 1.6.6s.5 1.1.5 2v3.9h-.7v-3.9c0-.7-.1-1.2-.4-1.5s-.7-.5-1.2-.5-.9.1-1.2.4-.5.6-.7 1v4.4h-.7v-6.3h.7zM128 51.4h-.8v-1h.8v1zm0 5.4h-.8v-1h.8v1z"/><g><path d="M31.7 94.7c0-.5-.2-.8-.5-1.1s-1-.6-1.8-.8c-.9-.2-1.6-.5-2.1-.9s-.7-.9-.7-1.5c0-.7.3-1.2.8-1.6s1.2-.6 2.1-.6c.9 0 1.6.2 2.1.7.5.5.8 1.1.8 1.8h-.6c0-.6-.2-1-.6-1.4s-1-.6-1.6-.6c-.7 0-1.2.2-1.6.5s-.6.7-.6 1.1c0 .4.2.8.5 1.1s1 .5 1.8.8c.9.2 1.6.6 2.1.9.5.4.7.9.7 1.6 0 .7-.3 1.2-.8 1.6-.6.4-1.3.6-2.1.6-.9 0-1.6-.2-2.2-.6s-.9-1.1-.9-1.9h.6c0 .7.2 1.2.7 1.5s1.1.5 1.8.5 1.2-.1 1.6-.4.5-.8.5-1.3zM33.4 93.5c0-.9.3-1.7.8-2.3s1.2-.9 2-.9 1.5.3 2 .9.8 1.4.8 2.3v.2c0 .9-.3 1.7-.8 2.3s-1.2.9-2 .9c-.9 0-1.5-.3-2-.9s-.8-1.4-.8-2.3v-.2zm.7.2c0 .7.2 1.4.6 1.8s.9.7 1.6.7c.7 0 1.2-.2 1.5-.7s.6-1.1.6-1.8v-.2c0-.7-.2-1.3-.6-1.8s-.9-.8-1.5-.8-1.2.3-1.5.8-.6 1.1-.6 1.8v.2zM42.8 96.3c.5 0 .9-.1 1.2-.4s.5-.6.5-1.1h.6c0 .6-.2 1.1-.7 1.5s-1.1.6-1.7.6c-.9 0-1.5-.3-2-.9s-.7-1.4-.7-2.3v-.2c0-.9.2-1.7.7-2.3s1.1-.9 2-.9c.7 0 1.3.2 1.7.6s.7.9.7 1.6h-.6c0-.5-.2-.9-.5-1.2s-.8-.5-1.3-.5c-.7 0-1.2.2-1.5.7-.3.5-.5 1.1-.5 1.8v.2c0 .7.2 1.4.5 1.8s.9 1 1.6 1zM47.5 88.6h-.7v-1h.7v1zm0 8.2h-.7v-6.3h.7v6.3zM53.4 96.8c0-.2-.1-.4-.1-.6v-.5c-.2.3-.5.6-.9.8s-.8.3-1.3.3c-.6 0-1.1-.2-1.4-.5s-.5-.8-.5-1.3c0-.6.3-1.1.8-1.4s1.2-.5 2-.5h1.4v-.8c0-.5-.1-.8-.4-1.1s-.7-.4-1.2-.4-.9.1-1.2.4-.6.6-.6 1h-.6c0-.5.2-.9.6-1.3s1-.6 1.7-.6 1.3.2 1.7.5.6.9.6 1.5v3.8c0 .3.1.4.1.6h-.7zm-2.3-.5c.5 0 .9-.1 1.3-.4s.7-.5.8-.9v-1.3h-1.4c-.6 0-1.1.1-1.5.4s-.6.6-.6 1c0 .3.1.6.4.8s.6.4 1 .4zM56.7 96.8H56v-9.1h.7v9.1zM58.5 97.5h-.6l3.6-9.3h.5l-3.5 9.3zM69.4 94.1c-.1.9-.4 1.6-.9 2.1s-1.3.7-2.2.7c-.9 0-1.7-.3-2.3-1-.6-.7-.9-1.6-.9-2.7v-1.4c0-1.1.3-2 .9-2.7.6-.7 1.3-1 2.3-1 .9 0 1.6.2 2.2.7s.8 1.2.9 2h-.7c-.1-.7-.3-1.2-.7-1.6s-.9-.6-1.7-.6c-.7 0-1.3.3-1.8.9s-.7 1.3-.7 2.2v1.4c0 .9.2 1.7.7 2.2.5.6 1 .9 1.8.9.7 0 1.3-.2 1.7-.5s.6-.9.7-1.6h.7zM70.7 93.5c0-.9.3-1.7.8-2.3s1.2-.9 2-.9 1.5.3 2 .9.8 1.4.8 2.3v.2c0 .9-.3 1.7-.8 2.3s-1.2.9-2 .9c-.9 0-1.5-.3-2-.9s-.8-1.4-.8-2.3v-.2zm.7.2c0 .7.2 1.4.6 1.8s.9.7 1.6.7c.7 0 1.2-.2 1.5-.7s.6-1.1.6-1.8v-.2c0-.7-.2-1.3-.6-1.8s-.9-.8-1.5-.8-1.2.3-1.5.8-.6 1.1-.6 1.8v.2zM78.3 90.4l.1 1c.2-.4.5-.7.8-.9s.7-.3 1.2-.3.9.1 1.2.4.6.6.7 1.1c.2-.4.5-.8.8-1s.8-.4 1.3-.4c.7 0 1.2.2 1.6.7s.6 1.1.6 2.1v3.7h-.7v-3.7c0-.8-.1-1.3-.4-1.7s-.7-.5-1.2-.5-1 .2-1.3.5c-.3.3-.5.8-.6 1.3v4h-.7V93c0-.8-.1-1.3-.4-1.6-.3-.3-.7-.5-1.2-.5s-.9.1-1.2.4-.5.6-.6 1v4.5h-.7v-6.3h.7zM89 90.4l.1 1c.2-.4.5-.7.8-.9s.7-.3 1.2-.3.9.1 1.2.4.6.6.7 1.1c.2-.4.5-.8.8-1s.8-.4 1.3-.4c.7 0 1.2.2 1.6.7s.6 1.1.6 2.1v3.7h-.7v-3.7c0-.8-.1-1.3-.4-1.7s-.7-.5-1.2-.5-1 .2-1.3.5c-.3.3-.5.8-.6 1.3v4h-.7V93c0-.8-.1-1.3-.4-1.6-.3-.3-.7-.5-1.2-.5s-.9.1-1.2.4-.5.6-.6 1v4.5h-.7v-6.3h.7zM101.4 96.9c-.8 0-1.5-.3-2-.9s-.8-1.3-.8-2.2v-.3c0-.9.3-1.7.8-2.3s1.2-.9 1.9-.9c.8 0 1.4.2 1.8.7s.7 1.1.7 2v.6h-4.5v.2c0 .7.2 1.3.6 1.8s.9.7 1.5.7c.4 0 .8-.1 1.1-.2s.6-.3.8-.5l.3.5c-.2.3-.5.5-.9.6-.4.1-.8.2-1.3.2zm-.1-6c-.5 0-1 .2-1.3.6-.4.4-.6.9-.6 1.5h3.7v-.2c0-.5-.2-1-.5-1.4s-.7-.5-1.3-.5zM108.1 91h-.5c-.4 0-.8.1-1.1.4s-.5.6-.6 1v4.4h-.7v-6.3h.6l.1 1.1v.1c.2-.4.4-.7.7-.9s.7-.3 1.1-.3h.5l-.1.5zM111.5 96.3c.5 0 .9-.1 1.2-.4s.5-.6.5-1.1h.6c0 .6-.2 1.1-.7 1.5s-1.1.6-1.7.6c-.9 0-1.5-.3-2-.9s-.7-1.4-.7-2.3v-.2c0-.9.2-1.7.7-2.3s1.1-.9 2-.9c.7 0 1.3.2 1.7.6s.7.9.7 1.6h-.6c0-.5-.2-.9-.5-1.2s-.8-.5-1.3-.5c-.7 0-1.2.2-1.5.7-.3.5-.5 1.1-.5 1.8v.2c0 .7.2 1.4.5 1.8s.9 1 1.6 1zM116.2 88.6h-.7v-1h.7v1zm0 8.2h-.7v-6.3h.7v6.3zM122.1 96.8c0-.2-.1-.4-.1-.6v-.5c-.2.3-.5.6-.9.8s-.8.3-1.3.3c-.6 0-1.1-.2-1.4-.5s-.5-.8-.5-1.3c0-.6.3-1.1.8-1.4s1.2-.5 2-.5h1.4v-.8c0-.5-.1-.8-.4-1.1s-.7-.4-1.2-.4-.9.1-1.2.4-.5.5-.5.9h-.6c0-.5.2-.9.6-1.3s1-.6 1.7-.6 1.3.2 1.7.5.6.9.6 1.5V96c0 .3.1.4.1.6h-.8zm-2.3-.5c.5 0 .9-.1 1.3-.4s.7-.5.8-.9v-1.3h-1.4c-.6 0-1.1.1-1.5.4s-.6.6-.6 1c0 .3.1.6.4.8s.6.4 1 .4zM125.3 96.8h-.7v-9.1h.7v9.1zM128.1 91.4h-.8v-1h.8v1zm0 5.4h-.8v-1h.8v1z"/></g><g><path d="M51.6 132.6h-4.1v3.5h4.7v.6h-5.4v-8.5h5.4v.6h-4.7v3.2h4.1v.6zM55.5 133l1.7-2.6h.8l-2.2 3.1 2.2 3.2h-.8l-1.8-2.7-1.8 2.7h-.8l2.2-3.2-2.2-3.1h.8l1.9 2.6zM64.5 133.8c0 .9-.2 1.7-.6 2.3-.4.6-1 .8-1.8.8-.4 0-.8-.1-1.2-.3s-.6-.4-.8-.7v3.3h-.7v-8.8h.6l.1 1c.2-.4.5-.6.8-.8s.7-.3 1.2-.3c.8 0 1.4.3 1.8.9.4.6.6 1.4.6 2.4v.2zm-.7-.2c0-.8-.2-1.5-.5-2s-.8-.8-1.4-.8c-.5 0-.9.1-1.2.3-.3.2-.5.5-.7.9v3.1c.2.3.4.6.7.8s.7.3 1.1.3c.6 0 1.1-.2 1.4-.7.3-.5.5-1.1.5-1.8v-.1zM66.8 136.8h-.7v-9.1h.7v9.1zM72.8 136.8c0-.2-.1-.4-.1-.6v-.5c-.2.3-.5.6-.9.8s-.8.3-1.3.3c-.6 0-1.1-.2-1.4-.5s-.5-.8-.5-1.3c0-.6.3-1.1.8-1.4s1.2-.5 2-.5h1.4v-.8c0-.5-.1-.8-.4-1.1s-.7-.4-1.2-.4-.9.1-1.2.4-.5.5-.5.9h-.6c0-.5.2-.9.6-1.3s1-.6 1.7-.6 1.3.2 1.7.5.6.9.6 1.5v3.7c0 .2.1.4.1.6h-.8zm-2.3-.5c.5 0 .9-.1 1.3-.4s.7-.5.8-.9v-1.3h-1.4c-.6 0-1.1.1-1.5.4s-.6.6-.6 1c0 .3.1.6.4.8s.6.4 1 .4zM76 128.6h-.7v-1h.7v1zm0 8.2h-.7v-6.3h.7v6.3zM78.6 130.4l.1 1.1c.2-.4.5-.7.8-.9s.8-.3 1.2-.3c.7 0 1.2.2 1.6.6s.5 1.1.5 2v3.9h-.7v-3.9c0-.7-.1-1.2-.4-1.5s-.7-.5-1.2-.5-.9.1-1.2.4-.5.6-.7 1v4.4H78v-6.3h.6zM87 136.9c-.8 0-1.5-.3-2-.9-.5-.6-.8-1.3-.8-2.2v-.3c0-.9.3-1.7.8-2.3s1.2-.9 1.9-.9c.8 0 1.4.2 1.8.7s.7 1.1.7 2v.6H85v.2c0 .7.2 1.3.6 1.8s.9.7 1.5.7c.4 0 .8-.1 1.1-.2s.6-.3.8-.5l.3.5c-.2.3-.5.5-.9.6-.4.1-.9.2-1.4.2zm-.1-6c-.5 0-1 .2-1.3.6-.4.4-.6.9-.6 1.5h3.7v-.2c0-.5-.2-1-.5-1.4s-.7-.5-1.3-.5zM93.7 131h-.5c-.4 0-.8.1-1.1.4s-.5.6-.6 1v4.4h-.7v-6.3h.6l.1 1.1v.1c.2-.4.4-.7.7-.9s.7-.3 1.1-.3h.5l-.1.5zM100.4 135.3l.2.6.2-.6 2.6-7.1h.8l-3.2 8.5h-.7l-3.2-8.5h.8l2.5 7.1zM106 128.6h-.7v-1h.7v1zm0 8.2h-.7v-6.3h.7v6.3zM107.7 133.7c0-1 .2-1.8.6-2.4s1-.9 1.8-.9c.4 0 .8.1 1.1.3s.6.5.8.8v-3.8h.7v9.1h-.6l-.1-.9c-.2.3-.5.6-.8.8s-.7.3-1.2.3c-.8 0-1.4-.3-1.8-.8-.4-.6-.6-1.3-.6-2.3v-.2zm.7.1c0 .8.2 1.4.5 1.8.3.5.8.7 1.4.7.5 0 .8-.1 1.1-.3s.5-.5.7-.8v-3c-.2-.4-.4-.7-.7-.9s-.7-.3-1.1-.3c-.6 0-1.1.3-1.4.8-.3.5-.5 1.2-.5 2zM117 136.9c-.8 0-1.5-.3-2-.9-.5-.6-.8-1.3-.8-2.2v-.3c0-.9.3-1.7.8-2.3s1.2-.9 1.9-.9c.8 0 1.4.2 1.8.7s.7 1.1.7 2v.6h-4.5v.2c0 .7.2 1.3.6 1.8s.9.7 1.5.7c.4 0 .8-.1 1.1-.2s.6-.3.8-.5l.3.5c-.2.3-.5.5-.9.6-.4.1-.8.2-1.3.2zm-.1-6c-.5 0-1 .2-1.3.6-.4.4-.6.9-.6 1.5h3.7v-.2c0-.5-.2-1-.5-1.4s-.7-.5-1.3-.5zM120.4 133.5c0-.9.3-1.7.8-2.3s1.2-.9 2-.9 1.5.3 2 .9.8 1.4.8 2.3v.2c0 .9-.3 1.7-.8 2.3-.5.6-1.2.9-2 .9-.9 0-1.5-.3-2-.9-.5-.6-.8-1.4-.8-2.3v-.2zm.7.2c0 .7.2 1.4.6 1.8s.9.7 1.6.7c.7 0 1.2-.2 1.5-.7s.6-1.1.6-1.8v-.2c0-.7-.2-1.3-.6-1.8s-.9-.8-1.5-.8-1.2.3-1.5.8-.6 1.1-.6 1.8v.2zM128.3 131.4h-.8v-1h.8v1zm0 5.4h-.8v-1h.8v1z"/></g><g><path d="M57 172.1h.8c.6 0 1.1-.2 1.4-.5s.5-.7.5-1.2-.2-1-.5-1.3-.7-.5-1.3-.5c-.5 0-1 .2-1.3.5s-.5.7-.5 1.3h-.7c0-.7.2-1.2.7-1.7s1.1-.7 1.8-.7c.8 0 1.4.2 1.8.6s.7 1 .7 1.7c0 .4-.1.8-.4 1.1s-.6.6-1.1.8c.5.2.9.4 1.2.8s.4.8.4 1.3c0 .8-.2 1.4-.7 1.8s-1.1.7-1.9.7c-.7 0-1.4-.2-1.9-.6s-.8-1-.8-1.8h.7c0 .5.2 1 .6 1.3.4.3.9.5 1.5.5s1.1-.2 1.4-.5c.3-.3.5-.8.5-1.3 0-.6-.2-1-.5-1.3s-.9-.4-1.5-.4H57v-.6zM62.4 176.8v-8.5h2.5c1 0 1.9.3 2.6 1s1 1.6 1 2.7v1.1c0 1.1-.3 2-1 2.7s-1.5 1-2.6 1h-2.5zm.7-8v7.3h1.8c.8 0 1.5-.3 2.1-.9.5-.6.8-1.3.8-2.2v-1.1c0-.9-.3-1.6-.8-2.2s-1.2-.9-2.1-.9h-1.8zM77.8 174.4h-3.9l-.9 2.4h-.7l3.2-8.5h.7l3.2 8.5h-.7l-.9-2.4zm-3.7-.6h3.4l-1.7-4.6-1.7 4.6zM81.2 170.4l.1 1.1c.2-.4.5-.7.8-.9s.8-.3 1.2-.3c.7 0 1.2.2 1.6.6s.5 1.1.5 2v3.9h-.7v-3.9c0-.7-.1-1.2-.4-1.5-.3-.3-.7-.5-1.2-.5s-.9.1-1.2.4c-.3.3-.5.6-.7 1v4.4h-.7v-6.3h.7zM88 168.6h-.7v-1h.7v1zm0 8.2h-.7v-6.3h.7v6.3zM90.5 170.4l.1 1c.2-.4.5-.7.8-.9s.7-.3 1.2-.3.9.1 1.2.4.6.6.7 1.1c.2-.4.5-.8.8-1s.8-.4 1.3-.4c.7 0 1.2.2 1.6.7s.6 1.1.6 2.1v3.7H98v-3.7c0-.8-.1-1.3-.4-1.7-.3-.3-.7-.5-1.2-.5s-1 .2-1.3.5c-.3.3-.5.8-.6 1.3v4H94V173c0-.8-.1-1.3-.4-1.6-.3-.3-.7-.5-1.2-.5s-.9.1-1.2.4c-.3.3-.5.6-.6 1v4.5h-.7v-6.3h.6zM104.6 176.8c0-.2-.1-.4-.1-.6v-.5c-.2.3-.5.6-.9.8s-.8.3-1.3.3c-.6 0-1.1-.2-1.4-.5s-.5-.8-.5-1.3c0-.6.3-1.1.8-1.4s1.2-.5 2-.5h1.4v-.8c0-.5-.1-.8-.4-1.1s-.7-.4-1.2-.4-.9.1-1.2.4-.5.5-.5.9h-.6c0-.5.2-.9.6-1.3s1-.6 1.7-.6 1.3.2 1.7.5.6.9.6 1.5v3.8c0 .3.1.4.1.6h-.8zm-2.3-.5c.5 0 .9-.1 1.3-.4s.7-.5.8-.9v-1.3H103c-.6 0-1.1.1-1.5.4s-.6.6-.6 1c0 .3.1.6.4.8s.6.4 1 .4zM108.1 168.8v1.6h1.4v.6h-1.4v4.1c0 .4.1.7.2.9s.4.3.6.3h.3c.1 0 .2 0 .4-.1l.1.5c-.1.1-.3.1-.4.1h-.5c-.4 0-.8-.1-1-.4s-.4-.7-.4-1.3V171h-1.1v-.6h1.1v-1.6h.7zM111.8 168.6h-.7v-1h.7v1zm0 8.2h-.7v-6.3h.7v6.3zM113.3 173.5c0-.9.3-1.7.8-2.3s1.2-.9 2-.9 1.5.3 2 .9.8 1.4.8 2.3v.2c0 .9-.3 1.7-.8 2.3s-1.2.9-2 .9c-.9 0-1.5-.3-2-.9s-.8-1.4-.8-2.3v-.2zm.7.2c0 .7.2 1.3.6 1.8.4.5.9.7 1.6.7.7 0 1.2-.2 1.5-.7.4-.5.6-1.1.6-1.8v-.2c0-.7-.2-1.3-.6-1.8-.4-.5-.9-.8-1.5-.8s-1.2.3-1.5.8c-.4.5-.6 1.1-.6 1.8v.2zM121 170.4l.1 1.1c.2-.4.5-.7.8-.9s.8-.3 1.2-.3c.7 0 1.2.2 1.6.6s.5 1.1.5 2v3.9h-.7v-3.9c0-.7-.1-1.2-.4-1.5-.3-.3-.7-.5-1.2-.5s-.9.1-1.2.4c-.3.3-.5.6-.7 1v4.4h-.7v-6.3h.7zM127.9 171.4h-.8v-1h.8v1zm0 5.4h-.8v-1h.8v1z"/></g></g><g id="Lines"><path class="st0" d="M417.1 220.6h-273c-2.2 0-3.9-1.8-3.9-3.9V34.4c0-2.2 1.8-3.9 3.9-3.9h273c2.2 0 3.9 1.8 3.9 3.9v182.2c.1 2.2-1.7 4-3.9 4zm-273-189.1c-1.6 0-2.9 1.3-2.9 2.9v182.2c0 1.6 1.3 2.9 2.9 2.9h273c1.6 0 2.9-1.3 2.9-2.9V34.4c0-1.6-1.3-2.9-2.9-2.9h-273zM6 63.3h128.7v1H6zM6 103.3h128.7v1H6zM6 143.3h128.7v1H6zM6 183.3h128.7v1H6z"/><g><path class="st0" d="M146 63.3h128.7v1H146zM146 103.3h128.7v1H146zM146 143.3h128.7v1H146zM146 183.3h128.7v1H146z"/></g><g><path class="st0" d="M286 63.3h128.7v1H286zM286 103.3h128.7v1H286zM286 143.3h128.7v1H286zM286 183.3h128.7v1H286z"/></g><path class="st0" d="M280.1 36.4h1v143.4h-1z"/></g><g id="Choices"><path d="M190.4 17.4h-1.2v-8h-1.9v-.9l3.1-.3v9.2zM199.9 13.9c0 1.2-.3 2.1-.8 2.7-.5.6-1.2.9-2.1.9s-1.6-.3-2.1-.9c-.5-.6-.8-1.5-.8-2.7v-2.2c0-1.2.3-2.1.8-2.7.5-.6 1.2-.9 2.1-.9.9 0 1.6.3 2.1.9.5.6.8 1.5.8 2.7v2.2zm-1.2-2.5c0-.8-.1-1.4-.4-1.8-.3-.4-.8-.6-1.3-.6s-1 .2-1.2.6c-.3.4-.4 1-.4 1.8v2.7c0 .8.1 1.4.4 1.8.3.4.7.6 1.3.6s1-.2 1.2-.6c.3-.4.4-1 .4-1.8v-2.7zM203.9 14h-3.1v-1h3.1v1zM206.6 12.2h1.1c.5 0 .9-.1 1.2-.4.2-.3.3-.7.3-1.1 0-.5-.1-.9-.4-1.2-.3-.3-.6-.4-1.2-.4-.5 0-.9.1-1.2.4s-.4.7-.4 1.1h-1.2c0-.7.2-1.3.8-1.8.5-.5 1.2-.7 2-.7s1.5.2 2 .7c.5.5.8 1.1.8 1.9 0 .4-.1.8-.3 1.1-.2.4-.6.7-1 .9.5.2.9.5 1.2.8.2.4.3.8.3 1.3 0 .8-.3 1.5-.8 2s-1.2.7-2.1.7c-.8 0-1.5-.2-2.1-.7-.5-.5-.8-1.1-.8-1.8h1.2c0 .5.1.9.4 1.1.3.3.7.4 1.2.4s.9-.1 1.2-.4c.3-.3.4-.7.4-1.3 0-.6-.1-1-.4-1.2-.3-.3-.7-.4-1.3-.4h-1.1v-1zM218 13.9c0 1.2-.3 2.1-.8 2.7-.5.6-1.2.9-2.1.9s-1.6-.3-2.1-.9c-.5-.6-.8-1.5-.8-2.7v-2.2c0-1.2.3-2.1.8-2.7.5-.6 1.2-.9 2.1-.9.9 0 1.6.3 2.1.9.5.6.8 1.5.8 2.7v2.2zm-1.3-2.5c0-.8-.1-1.4-.4-1.8-.3-.4-.7-.6-1.2-.6s-1 .2-1.2.6c-.3.4-.4 1-.4 1.8v2.7c0 .8.1 1.4.4 1.8.3.4.7.6 1.3.6s1-.2 1.2-.6c.3-.4.4-1 .4-1.8v-2.7zM223.5 15.6c0-.3-.1-.5-.3-.7-.2-.2-.6-.3-1.2-.5-.8-.2-1.4-.4-1.9-.7-.4-.3-.6-.7-.6-1.3 0-.6.2-1 .7-1.4.5-.4 1.1-.6 1.8-.6.8 0 1.4.2 1.9.6s.7.9.7 1.5h-1.2c0-.3-.1-.6-.4-.8-.2-.2-.6-.4-1-.4s-.8.1-1 .3c-.2.2-.3.4-.3.7 0 .3.1.5.3.6.2.2.6.3 1.2.4.9.2 1.5.4 1.9.8s.6.7.6 1.3c0 .6-.2 1.1-.7 1.5-.5.4-1.1.6-1.9.6-.9 0-1.6-.2-2.1-.7-.5-.4-.7-1-.7-1.5h1.2c0 .4.2.8.5 1 .3.2.7.3 1.1.3.4 0 .8-.1 1-.3.3-.2.4-.5.4-.7zM229.2 17.5c-.9 0-1.7-.3-2.3-.9-.6-.6-.8-1.5-.8-2.5v-.3c0-1 .3-1.8.9-2.4s1.3-1 2-1c.9 0 1.6.3 2.1.8.5.6.7 1.3.7 2.2v.8h-4.4c0 .7.2 1.2.5 1.6.3.4.8.6 1.3.6.4 0 .8-.1 1.1-.2.3-.1.6-.3.8-.5l.5.8c-.2.2-.6.4-1 .6-.4.3-.9.4-1.4.4zm-.2-6.1c-.4 0-.8.2-1.1.5-.3.3-.5.8-.5 1.3h3.1V13c0-.5-.1-.9-.4-1.2s-.6-.4-1.1-.4zM235.9 16.5c.4 0 .8-.1 1.1-.4.3-.3.5-.6.5-.9h1.1c0 .6-.2 1.1-.8 1.6s-1.2.7-1.9.7c-1 0-1.7-.3-2.3-1-.5-.6-.8-1.5-.8-2.4v-.3c0-1 .3-1.8.8-2.4.5-.6 1.3-1 2.3-1 .8 0 1.4.2 2 .7s.8 1 .7 1.7h-1.1c0-.4-.1-.8-.4-1.1-.3-.3-.7-.4-1.1-.4-.7 0-1.1.2-1.4.7-.3.5-.4 1-.4 1.7v.3c0 .7.1 1.3.4 1.7.2.6.7.8 1.3.8z"/><g><path d="M315.1 12.2h1.1c.5 0 .9-.1 1.2-.4s.3-.7.3-1.1c0-.5-.1-.9-.4-1.2-.3-.3-.7-.5-1.2-.5s-.9.1-1.2.4c-.3.3-.4.7-.4 1.1h-1.2c0-.7.2-1.3.8-1.8.5-.5 1.2-.7 2-.7s1.5.2 2 .7c.5.5.8 1.1.8 1.9 0 .4-.1.8-.3 1.1s-.6.7-1 .9c.5.2.9.5 1.2.8.2.4.3.8.3 1.3 0 .8-.3 1.5-.8 2s-1.2.7-2.1.7c-.8 0-1.5-.2-2.1-.7-.5-.5-.8-1.1-.8-1.8h1.2c0 .5.1.9.4 1.1.3.3.7.4 1.2.4s.9-.1 1.2-.4c.3-.3.4-.7.4-1.3 0-.6-.1-1-.4-1.2-.3-.3-.7-.4-1.3-.4h-1.1v-.9zM326.4 13.9c0 1.2-.3 2.1-.8 2.7-.5.6-1.2.9-2.1.9-.9 0-1.6-.3-2.1-.9-.5-.6-.8-1.5-.8-2.7v-2.2c0-1.2.3-2.1.8-2.7.5-.6 1.2-.9 2.1-.9.9 0 1.6.3 2.1.9.5.6.8 1.5.8 2.7v2.2zm-1.2-2.5c0-.8-.1-1.4-.4-1.8-.3-.4-.7-.6-1.2-.6s-1 .2-1.2.6-.4 1-.4 1.8v2.7c0 .8.1 1.4.4 1.8.3.4.7.6 1.3.6.5 0 1-.2 1.2-.6.3-.4.4-1 .4-1.8v-2.7zM332 15.6c0-.3-.1-.5-.3-.7-.2-.2-.6-.3-1.2-.5-.8-.2-1.4-.4-1.9-.7-.4-.3-.6-.7-.6-1.3 0-.6.2-1 .7-1.4.5-.4 1.1-.6 1.8-.6.8 0 1.4.2 1.9.6s.7.9.7 1.5h-1.2c0-.3-.1-.6-.4-.8-.2-.2-.6-.4-1-.4s-.8.1-1 .3-.3.4-.3.7c0 .3.1.5.3.6.2.2.6.3 1.2.4.9.2 1.5.4 1.9.8.4.3.6.7.6 1.3 0 .6-.2 1.1-.7 1.5-.5.4-1.1.6-1.9.6-.9 0-1.6-.2-2.1-.7-.5-.4-.7-1-.7-1.5h1.2c0 .4.2.8.5 1 .3.2.7.3 1.1.3.4 0 .8-.1 1-.3.3-.2.4-.5.4-.7zM337.6 17.5c-.9 0-1.7-.3-2.3-.9-.6-.6-.8-1.5-.8-2.5v-.3c0-1 .3-1.8.9-2.4s1.3-1 2-1c.9 0 1.6.3 2.1.8s.7 1.3.7 2.2v.8h-4.4c0 .7.2 1.2.5 1.6.3.4.8.6 1.3.6.4 0 .8-.1 1.1-.2.3-.1.6-.3.8-.5l.5.8c-.2.2-.6.4-1 .6-.3.3-.8.4-1.4.4zm-.2-6.1c-.4 0-.8.2-1.1.5-.3.3-.5.8-.5 1.3h3.1V13c0-.5-.1-.9-.4-1.2s-.6-.4-1.1-.4zM344.4 16.5c.4 0 .8-.1 1.1-.4.3-.3.5-.6.5-.9h1.1c0 .6-.2 1.1-.8 1.6-.5.5-1.2.7-1.9.7-1 0-1.7-.3-2.3-1-.5-.6-.8-1.5-.8-2.4v-.3c0-1 .3-1.8.8-2.4.5-.6 1.3-1 2.3-1 .8 0 1.4.2 2 .7.5.5.7 1 .7 1.7H346c0-.4-.1-.8-.4-1.1-.3-.3-.7-.4-1.1-.4-.7 0-1.1.2-1.4.7-.3.5-.4 1-.4 1.7v.3c0 .7.1 1.3.4 1.7.2.6.6.8 1.3.8zM350.8 14h-3.1v-1h3.1v1zM355.4 17.4h-1.2v-8h-1.9v-.9l3.1-.3v9.2zM360.3 10.6l.1.9c.2-.3.5-.6.8-.8.3-.2.7-.3 1.2-.3s.8.1 1.2.3c.3.2.6.5.7.9.2-.4.5-.7.8-.9.4-.2.8-.3 1.2-.3.7 0 1.2.2 1.6.7.4.5.6 1.2.6 2.1v4.1h-1.2v-4.1c0-.7-.1-1.1-.3-1.4s-.6-.4-1-.4-.8.1-1 .4c-.3.3-.4.7-.5 1.1V17.3h-1.2v-4.1c0-.6-.1-1.1-.4-1.4-.2-.3-.6-.4-1-.4s-.7.1-.9.2c-.2.2-.4.4-.6.7v5h-1.2v-6.8h1.1zM371.8 8.8h-1.2V7.5h1.2v1.3zm0 8.6h-1.2v-6.8h1.2v6.8zM374.8 10.6l.1 1c.2-.4.5-.6.9-.8s.7-.3 1.2-.3c.7 0 1.3.2 1.7.6.4.4.6 1.1.6 2v4.3H378v-4.3c0-.6-.1-1-.4-1.3-.2-.3-.6-.4-1.1-.4-.4 0-.7.1-.9.3-.3.2-.5.4-.7.7v5h-1.2v-6.8h1.1z"/></g></g><g id="Per._Price"><path class="st1" d="M200.6 53.9c0-.3-.1-.6-.3-.8s-.5-.4-.9-.6c-.9-.3-1.5-.7-1.9-1.1s-.6-.9-.6-1.6c0-.7.2-1.2.6-1.6s1-.7 1.7-.7v-1.3h.9v1.3c.7.1 1.2.4 1.6.9s.6 1.1.6 1.8h-1.7c0-.5-.1-.8-.3-1.1s-.4-.4-.8-.4c-.3 0-.6.1-.8.3s-.2.5-.2.8c0 .3.1.6.3.7s.5.4 1 .6c.9.3 1.5.7 1.9 1.1s.6.9.6 1.6c0 .7-.2 1.2-.6 1.6s-1 .6-1.7.7v1.2h-.9v-1.2c-.7-.1-1.3-.3-1.8-.8s-.7-1.1-.7-2h1.7c0 .5.1.9.4 1.1s.5.3.9.3.6-.1.8-.3.2-.2.2-.5zM208.5 52.9h1v1.3h-1v1.9h-1.7v-1.9h-3.5l-.1-1 3.5-5.7h1.7v5.4zm-3.7 0h2v-3.1l-.1.2-1.9 2.9zM216.1 52.8c0 1.1-.3 2-.8 2.6s-1.2.9-2.1.9c-.9 0-1.6-.3-2.1-.9s-.8-1.4-.8-2.6v-1.9c0-1.1.3-2 .8-2.6s1.2-.9 2.1-.9c.9 0 1.6.3 2.1.9s.8 1.4.8 2.6v1.9zm-1.7-2.1c0-.7-.1-1.2-.3-1.5-.2-.3-.5-.5-.9-.5s-.7.2-.9.5-.3.8-.3 1.5v2.2c0 .7.1 1.2.3 1.5s.5.5.9.5.7-.2.9-.5.3-.8.3-1.5v-2.2zM223 52.8c0 1.1-.3 2-.8 2.6s-1.2.9-2.1.9c-.9 0-1.6-.3-2.1-.9s-.8-1.4-.8-2.6v-1.9c0-1.1.3-2 .8-2.6s1.2-.9 2.1-.9c.9 0 1.6.3 2.1.9s.8 1.4.8 2.6v1.9zm-1.7-2.1c0-.7-.1-1.2-.3-1.5-.2-.3-.5-.5-.9-.5s-.7.2-.9.5-.3.8-.3 1.5v2.2c0 .7.1 1.2.3 1.5s.5.5.9.5.7-.2.9-.5.3-.8.3-1.5v-2.2z"/><g><path class="st1" d="M199.6 93.9c0-.3-.1-.6-.3-.8s-.5-.4-.9-.6c-.9-.3-1.5-.7-1.9-1.1s-.6-.9-.6-1.6c0-.7.2-1.2.6-1.6s1-.7 1.7-.7v-1.3h.9v1.3c.7.1 1.2.4 1.6.9s.6 1.1.6 1.8h-1.7c0-.5-.1-.8-.3-1.1s-.4-.4-.8-.4c-.3 0-.6.1-.8.3s-.2.5-.2.8c0 .3.1.6.3.7s.5.4 1 .6c.9.3 1.5.7 1.9 1.1s.6.9.6 1.6c0 .7-.2 1.2-.6 1.6s-1 .6-1.7.7v1.2h-.9v-1.2c-.7-.1-1.3-.3-1.8-.8s-.7-1.1-.7-2h1.7c0 .5.1.9.4 1.1s.5.3.9.3.6-.1.8-.3.2-.2.2-.5zM205.9 87.5c.3 0 .6 0 .9.1s.5.1.8.3l-.3 1.3c-.3-.1-.5-.2-.7-.2s-.4-.1-.7-.1c-.5 0-.9.2-1.3.6s-.5.9-.4 1.6c.2-.2.4-.4.7-.5s.6-.2 1-.2c.8 0 1.4.3 1.8.8s.6 1.2.6 2.1c0 .9-.3 1.6-.8 2.1s-1.2.8-2.1.8c-.9 0-1.6-.3-2.2-.9s-.8-1.5-.8-2.5v-1.7c0-1.1.3-2 1-2.7s1.5-.9 2.5-.9zm-.4 4.2c-.3 0-.6.1-.8.2-.2.1-.4.2-.5.4v.6c0 .7.1 1.2.4 1.6.2.4.6.5 1 .5s.6-.2.8-.5.3-.7.3-1.2-.1-.9-.3-1.1c-.3-.4-.5-.5-.9-.5zM215.1 92.8c0 1.1-.3 2-.8 2.6s-1.2.9-2.1.9c-.9 0-1.6-.3-2.1-.9s-.8-1.4-.8-2.6v-1.9c0-1.1.3-2 .8-2.6s1.2-.9 2.1-.9c.9 0 1.6.3 2.1.9s.8 1.4.8 2.6v1.9zm-1.7-2.1c0-.7-.1-1.2-.3-1.5-.2-.3-.5-.5-.9-.5s-.7.2-.9.5-.3.8-.3 1.5v2.2c0 .7.1 1.2.3 1.5s.5.5.9.5.7-.2.9-.5.3-.8.3-1.5v-2.2zM222 92.8c0 1.1-.3 2-.8 2.6s-1.2.9-2.1.9c-.9 0-1.6-.3-2.1-.9s-.8-1.4-.8-2.6v-1.9c0-1.1.3-2 .8-2.6s1.2-.9 2.1-.9c.9 0 1.6.3 2.1.9s.8 1.4.8 2.6v1.9zm-1.7-2.1c0-.7-.1-1.2-.3-1.5-.2-.3-.5-.5-.9-.5s-.7.2-.9.5-.3.8-.3 1.5v2.2c0 .7.1 1.2.3 1.5s.5.5.9.5.7-.2.9-.5.3-.8.3-1.5v-2.2z"/></g><g><path class="st1" d="M199.6 133.9c0-.3-.1-.6-.3-.8s-.5-.4-.9-.6c-.9-.3-1.5-.7-1.9-1.1s-.6-.9-.6-1.6c0-.7.2-1.2.6-1.6.4-.4 1-.7 1.7-.7v-1.3h.9v1.3c.7.1 1.2.4 1.6.9.4.5.6 1.1.6 1.8h-1.7c0-.5-.1-.8-.3-1.1s-.4-.4-.8-.4c-.3 0-.6.1-.8.3s-.2.5-.2.8c0 .3.1.6.3.7s.5.4 1 .6c.9.3 1.5.7 1.9 1.1s.6.9.6 1.6c0 .7-.2 1.2-.6 1.6s-1 .6-1.7.7v1.2h-.9v-1.2c-.7-.1-1.3-.3-1.8-.8s-.7-1.1-.7-2h1.7c0 .5.1.9.4 1.1s.5.3.9.3.6-.1.8-.3.2-.2.2-.5zM205.9 127.5c.3 0 .6 0 .9.1s.5.1.8.3l-.3 1.3c-.3-.1-.5-.2-.7-.2s-.4-.1-.7-.1c-.5 0-.9.2-1.3.6s-.5.9-.4 1.6c.2-.2.4-.4.7-.5s.6-.2 1-.2c.8 0 1.4.3 1.8.8s.6 1.2.6 2.1c0 .9-.3 1.6-.8 2.1s-1.2.8-2.1.8c-.9 0-1.6-.3-2.2-.9s-.8-1.5-.8-2.5v-1.7c0-1.1.3-2 1-2.7.7-.6 1.5-.9 2.5-.9zm-.4 4.2c-.3 0-.6.1-.8.2-.2.1-.4.2-.5.4v.6c0 .7.1 1.2.4 1.6.2.4.6.5 1 .5s.6-.2.8-.5.3-.7.3-1.2-.1-.9-.3-1.1c-.3-.4-.5-.5-.9-.5zM215.1 132.8c0 1.1-.3 2-.8 2.6s-1.2.9-2.1.9c-.9 0-1.6-.3-2.1-.9s-.8-1.4-.8-2.6v-1.9c0-1.1.3-2 .8-2.6.5-.6 1.2-.9 2.1-.9.9 0 1.6.3 2.1.9.5.6.8 1.4.8 2.6v1.9zm-1.7-2.1c0-.7-.1-1.2-.3-1.5-.2-.3-.5-.5-.9-.5s-.7.2-.9.5-.3.8-.3 1.5v2.2c0 .7.1 1.2.3 1.5s.5.5.9.5.7-.2.9-.5.3-.8.3-1.5v-2.2zM222 132.8c0 1.1-.3 2-.8 2.6s-1.2.9-2.1.9c-.9 0-1.6-.3-2.1-.9s-.8-1.4-.8-2.6v-1.9c0-1.1.3-2 .8-2.6.5-.6 1.2-.9 2.1-.9.9 0 1.6.3 2.1.9.5.6.8 1.4.8 2.6v1.9zm-1.7-2.1c0-.7-.1-1.2-.3-1.5-.2-.3-.5-.5-.9-.5s-.7.2-.9.5-.3.8-.3 1.5v2.2c0 .7.1 1.2.3 1.5s.5.5.9.5.7-.2.9-.5.3-.8.3-1.5v-2.2z"/></g><g><path class="st1" d="M199.6 173.9c0-.3-.1-.6-.3-.8s-.5-.4-.9-.6c-.9-.3-1.5-.7-1.9-1.1s-.6-.9-.6-1.6c0-.7.2-1.2.6-1.6s1-.7 1.7-.7v-1.3h.9v1.3c.7.1 1.2.4 1.6.9s.6 1.1.6 1.8h-1.7c0-.5-.1-.8-.3-1.1s-.4-.4-.8-.4c-.3 0-.6.1-.8.3s-.2.5-.2.8c0 .3.1.6.3.7s.5.4 1 .6c.9.3 1.5.7 1.9 1.1s.6.9.6 1.6c0 .7-.2 1.2-.6 1.6s-1 .6-1.7.7v1.2h-.9v-1.2c-.7-.1-1.3-.3-1.8-.8s-.7-1.1-.7-2h1.7c0 .5.1.9.4 1.1s.5.3.9.3.6-.1.8-.3.2-.2.2-.5zM208 169.8c0 .4-.1.8-.3 1.1s-.5.6-.9.8c.5.2.8.5 1.1.8s.4.8.4 1.2c0 .8-.3 1.4-.8 1.8s-1.2.6-2.1.6c-.9 0-1.6-.2-2.1-.6s-.8-1-.8-1.8c0-.5.1-.9.4-1.2s.6-.6 1.1-.8c-.4-.2-.7-.4-.9-.8s-.3-.7-.3-1.1c0-.8.2-1.3.7-1.8s1.2-.6 2-.6 1.5.2 2 .6.5 1.1.5 1.8zm-1.5 3.9c0-.4-.1-.7-.3-.9s-.5-.3-.9-.3-.6.1-.9.3-.3.5-.3.9.1.7.3.9.5.3.9.3.6-.1.9-.3.3-.6.3-.9zm-.2-3.8c0-.3-.1-.6-.3-.8s-.4-.3-.7-.3c-.3 0-.6.1-.7.3s-.3.5-.3.8c0 .4.1.6.3.8s.4.3.7.3c.3 0 .6-.1.7-.3s.3-.4.3-.8zM215.1 172.8c0 1.1-.3 2-.8 2.6s-1.2.9-2.1.9c-.9 0-1.6-.3-2.1-.9s-.8-1.4-.8-2.6v-1.9c0-1.1.3-2 .8-2.6s1.2-.9 2.1-.9c.9 0 1.6.3 2.1.9s.8 1.4.8 2.6v1.9zm-1.7-2.1c0-.7-.1-1.2-.3-1.5-.2-.3-.5-.5-.9-.5s-.7.2-.9.5c-.2.3-.3.8-.3 1.5v2.2c0 .7.1 1.2.3 1.5.2.3.5.5.9.5s.7-.2.9-.5c.2-.3.3-.8.3-1.5v-2.2zM222 172.8c0 1.1-.3 2-.8 2.6s-1.2.9-2.1.9c-.9 0-1.6-.3-2.1-.9s-.8-1.4-.8-2.6v-1.9c0-1.1.3-2 .8-2.6s1.2-.9 2.1-.9c.9 0 1.6.3 2.1.9s.8 1.4.8 2.6v1.9zm-1.7-2.1c0-.7-.1-1.2-.3-1.5-.2-.3-.5-.5-.9-.5s-.7.2-.9.5c-.2.3-.3.8-.3 1.5v2.2c0 .7.1 1.2.3 1.5.2.3.5.5.9.5s.7-.2.9-.5c.2-.3.3-.8.3-1.5v-2.2z"/></g></g><g id="Comm._Price"><path class="st1" d="M338.6 173.9c0-.3-.1-.6-.3-.8s-.5-.4-.9-.6c-.9-.3-1.5-.7-1.9-1.1s-.6-.9-.6-1.6c0-.7.2-1.2.6-1.6s1-.7 1.7-.7v-1.3h.9v1.3c.7.1 1.2.4 1.6.9s.6 1.1.6 1.8h-1.7c0-.5-.1-.8-.3-1.1s-.4-.4-.8-.4c-.3 0-.6.1-.8.3s-.2.5-.2.8c0 .3.1.6.3.7s.5.4 1 .6c.9.3 1.5.7 1.9 1.1s.6.9.6 1.6c0 .7-.2 1.2-.6 1.6s-1 .6-1.7.7v1.2h-.9v-1.2c-.7-.1-1.3-.3-1.8-.8s-.7-1.1-.7-2h1.7c0 .5.1.9.4 1.1s.5.3.9.3.6-.1.8-.3.2-.2.2-.5zM347 169.8c0 .4-.1.8-.3 1.1s-.5.6-.9.8c.5.2.8.5 1.1.8s.4.8.4 1.2c0 .8-.3 1.4-.8 1.8s-1.2.6-2.1.6c-.9 0-1.6-.2-2.1-.6s-.8-1-.8-1.8c0-.5.1-.9.4-1.2s.6-.6 1.1-.8c-.4-.2-.7-.4-.9-.8s-.3-.7-.3-1.1c0-.8.2-1.3.7-1.8s1.2-.6 2-.6 1.5.2 2 .6.5 1.1.5 1.8zm-1.5 3.9c0-.4-.1-.7-.3-.9s-.5-.3-.9-.3-.6.1-.9.3-.3.5-.3.9.1.7.3.9.5.3.9.3.6-.1.9-.3.3-.6.3-.9zm-.2-3.8c0-.3-.1-.6-.3-.8s-.4-.3-.7-.3c-.3 0-.6.1-.7.3s-.3.5-.3.8c0 .4.1.6.3.8s.4.3.7.3c.3 0 .6-.1.7-.3s.3-.4.3-.8zM348.6 172.3l.5-4.8h4.8v1.4h-3.4l-.2 2c.2-.1.3-.2.6-.3s.5-.1.7-.1c.8 0 1.5.2 1.9.7s.7 1.2.7 2.1c0 .8-.2 1.5-.7 2s-1.2.8-2.1.8c-.8 0-1.5-.2-2-.6s-.8-1-.8-1.8l1.6-.1c0 .4.1.7.3.9s.5.3.8.3c.4 0 .7-.1.9-.4s.3-.7.3-1.1c0-.5-.1-.9-.3-1.2s-.5-.4-.9-.4c-.3 0-.6.1-.8.2s-.3.3-.4.5l-1.5-.1zM361 172.8c0 1.1-.3 2-.8 2.6s-1.2.9-2.1.9c-.9 0-1.6-.3-2.1-.9s-.8-1.4-.8-2.6v-1.9c0-1.1.3-2 .8-2.6s1.2-.9 2.1-.9c.9 0 1.6.3 2.1.9s.8 1.4.8 2.6v1.9zm-1.7-2.1c0-.7-.1-1.2-.3-1.5-.2-.3-.5-.5-.9-.5s-.7.2-.9.5c-.2.3-.3.8-.3 1.5v2.2c0 .7.1 1.2.3 1.5.2.3.5.5.9.5s.7-.2.9-.5c.2-.3.3-.8.3-1.5v-2.2zM365.6 171.4h2.1v1.5h-2.1v2.4H364v-2.4h-2.1v-1.5h2.1V169h1.6v2.4z"/><g><path class="st1" d="M338.6 133.9c0-.3-.1-.6-.3-.8s-.5-.4-.9-.6c-.9-.3-1.5-.7-1.9-1.1s-.6-.9-.6-1.6c0-.7.2-1.2.6-1.6.4-.4 1-.7 1.7-.7v-1.3h.9v1.3c.7.1 1.2.4 1.6.9.4.5.6 1.1.6 1.8h-1.7c0-.5-.1-.8-.3-1.1s-.4-.4-.8-.4c-.3 0-.6.1-.8.3s-.2.5-.2.8c0 .3.1.6.3.7s.5.4 1 .6c.9.3 1.5.7 1.9 1.1s.6.9.6 1.6c0 .7-.2 1.2-.6 1.6s-1 .6-1.7.7v1.2h-.9v-1.2c-.7-.1-1.3-.3-1.8-.8s-.7-1.1-.7-2h1.7c0 .5.1.9.4 1.1s.5.3.9.3.6-.1.8-.3.2-.2.2-.5zM344.9 127.5c.3 0 .6 0 .9.1s.5.1.8.3l-.3 1.3c-.3-.1-.5-.2-.7-.2s-.4-.1-.7-.1c-.5 0-.9.2-1.3.6s-.5.9-.4 1.6c.2-.2.4-.4.7-.5s.6-.2 1-.2c.8 0 1.4.3 1.8.8s.6 1.2.6 2.1c0 .9-.3 1.6-.8 2.1s-1.2.8-2.1.8c-.9 0-1.6-.3-2.2-.9s-.8-1.5-.8-2.5v-1.7c0-1.1.3-2 1-2.7.7-.6 1.5-.9 2.5-.9zm-.4 4.2c-.3 0-.6.1-.8.2-.2.1-.4.2-.5.4v.6c0 .7.1 1.2.4 1.6.2.4.6.5 1 .5s.6-.2.8-.5.3-.7.3-1.2-.1-.9-.3-1.1c-.3-.4-.5-.5-.9-.5zM348.6 132.3l.5-4.8h4.8v1.4h-3.4l-.2 2c.2-.1.3-.2.6-.3s.5-.1.7-.1c.8 0 1.5.2 1.9.7s.7 1.2.7 2.1c0 .8-.2 1.5-.7 2s-1.2.8-2.1.8c-.8 0-1.5-.2-2-.6s-.8-1-.8-1.8l1.6-.1c0 .4.1.7.3.9s.5.3.8.3c.4 0 .7-.1.9-.4s.3-.7.3-1.1c0-.5-.1-.9-.3-1.2-.2-.3-.5-.4-.9-.4-.3 0-.6.1-.8.2s-.3.3-.4.5l-1.5-.1zM361 132.8c0 1.1-.3 2-.8 2.6s-1.2.9-2.1.9c-.9 0-1.6-.3-2.1-.9s-.8-1.4-.8-2.6v-1.9c0-1.1.3-2 .8-2.6.5-.6 1.2-.9 2.1-.9.9 0 1.6.3 2.1.9.5.6.8 1.4.8 2.6v1.9zm-1.7-2.1c0-.7-.1-1.2-.3-1.5-.2-.3-.5-.5-.9-.5s-.7.2-.9.5-.3.8-.3 1.5v2.2c0 .7.1 1.2.3 1.5s.5.5.9.5.7-.2.9-.5.3-.8.3-1.5v-2.2zM365.6 131.4h2.1v1.5h-2.1v2.4H364v-2.4h-2.1v-1.5h2.1V129h1.6v2.4z"/></g><g><path class="st1" d="M338.6 93.9c0-.3-.1-.6-.3-.8s-.5-.4-.9-.6c-.9-.3-1.5-.7-1.9-1.1s-.6-.9-.6-1.6c0-.7.2-1.2.6-1.6s1-.7 1.7-.7v-1.3h.9v1.3c.7.1 1.2.4 1.6.9s.6 1.1.6 1.8h-1.7c0-.5-.1-.8-.3-1.1s-.4-.4-.8-.4c-.3 0-.6.1-.8.3s-.2.5-.2.8c0 .3.1.6.3.7s.5.4 1 .6c.9.3 1.5.7 1.9 1.1s.6.9.6 1.6c0 .7-.2 1.2-.6 1.6s-1 .6-1.7.7v1.2h-.9v-1.2c-.7-.1-1.3-.3-1.8-.8s-.7-1.1-.7-2h1.7c0 .5.1.9.4 1.1s.5.3.9.3.6-.1.8-.3.2-.2.2-.5zM344.9 87.5c.3 0 .6 0 .9.1s.5.1.8.3l-.3 1.3c-.3-.1-.5-.2-.7-.2s-.4-.1-.7-.1c-.5 0-.9.2-1.3.6s-.5.9-.4 1.6c.2-.2.4-.4.7-.5s.6-.2 1-.2c.8 0 1.4.3 1.8.8s.6 1.2.6 2.1c0 .9-.3 1.6-.8 2.1s-1.2.8-2.1.8c-.9 0-1.6-.3-2.2-.9s-.8-1.5-.8-2.5v-1.7c0-1.1.3-2 1-2.7s1.5-.9 2.5-.9zm-.4 4.2c-.3 0-.6.1-.8.2-.2.1-.4.2-.5.4v.6c0 .7.1 1.2.4 1.6.2.4.6.5 1 .5s.6-.2.8-.5.3-.7.3-1.2-.1-.9-.3-1.1c-.3-.4-.5-.5-.9-.5zM348.6 92.3l.5-4.8h4.8v1.4h-3.4l-.2 2c.2-.1.3-.2.6-.3s.5-.1.7-.1c.8 0 1.5.2 1.9.7s.7 1.2.7 2.1c0 .8-.2 1.5-.7 2s-1.2.8-2.1.8c-.8 0-1.5-.2-2-.6s-.8-1-.8-1.8l1.6-.1c0 .4.1.7.3.9s.5.3.8.3c.4 0 .7-.1.9-.4s.3-.7.3-1.1c0-.5-.1-.9-.3-1.2-.2-.3-.5-.4-.9-.4-.3 0-.6.1-.8.2s-.3.3-.4.5l-1.5-.1zM361 92.8c0 1.1-.3 2-.8 2.6s-1.2.9-2.1.9c-.9 0-1.6-.3-2.1-.9s-.8-1.4-.8-2.6v-1.9c0-1.1.3-2 .8-2.6s1.2-.9 2.1-.9c.9 0 1.6.3 2.1.9s.8 1.4.8 2.6v1.9zm-1.7-2.1c0-.7-.1-1.2-.3-1.5-.2-.3-.5-.5-.9-.5s-.7.2-.9.5-.3.8-.3 1.5v2.2c0 .7.1 1.2.3 1.5s.5.5.9.5.7-.2.9-.5.3-.8.3-1.5v-2.2zM365.6 91.4h2.1v1.5h-2.1v2.4H364v-2.4h-2.1v-1.5h2.1V89h1.6v2.4z"/></g><g><path class="st1" d="M338.6 53.9c0-.3-.1-.6-.3-.8s-.5-.4-.9-.6c-.9-.3-1.5-.7-1.9-1.1s-.6-.9-.6-1.6c0-.7.2-1.2.6-1.6s1-.7 1.7-.7v-1.3h.9v1.3c.7.1 1.2.4 1.6.9s.6 1.1.6 1.8h-1.7c0-.5-.1-.8-.3-1.1s-.4-.4-.8-.4c-.3 0-.6.1-.8.3s-.2.5-.2.8c0 .3.1.6.3.7s.5.4 1 .6c.9.3 1.5.7 1.9 1.1s.6.9.6 1.6c0 .7-.2 1.2-.6 1.6s-1 .6-1.7.7v1.2h-.9v-1.2c-.7-.1-1.3-.3-1.8-.8s-.7-1.1-.7-2h1.7c0 .5.1.9.4 1.1s.5.3.9.3.6-.1.8-.3.2-.2.2-.5zM346.5 52.9h1v1.3h-1v1.9h-1.7v-1.9h-3.5l-.1-1 3.5-5.7h1.7v5.4zm-3.7 0h2v-3.1l-.1.2-1.9 2.9zM348.6 52.3l.5-4.8h4.8v1.4h-3.4l-.2 2c.2-.1.3-.2.6-.3s.5-.1.7-.1c.8 0 1.5.2 1.9.7s.7 1.2.7 2.1c0 .8-.2 1.5-.7 2s-1.2.8-2.1.8c-.8 0-1.5-.2-2-.6s-.8-1-.8-1.8l1.6-.1c0 .4.1.7.3.9s.5.3.8.3c.4 0 .7-.1.9-.4s.3-.7.3-1.1c0-.5-.1-.9-.3-1.2-.2-.3-.5-.4-.9-.4-.3 0-.6.1-.8.2s-.3.3-.4.5l-1.5-.1zM361 52.8c0 1.1-.3 2-.8 2.6s-1.2.9-2.1.9c-.9 0-1.6-.3-2.1-.9s-.8-1.4-.8-2.6v-1.9c0-1.1.3-2 .8-2.6s1.2-.9 2.1-.9c.9 0 1.6.3 2.1.9s.8 1.4.8 2.6v1.9zm-1.7-2.1c0-.7-.1-1.2-.3-1.5-.2-.3-.5-.5-.9-.5s-.7.2-.9.5-.3.8-.3 1.5v2.2c0 .7.1 1.2.3 1.5s.5.5.9.5.7-.2.9-.5.3-.8.3-1.5v-2.2zM365.6 51.4h2.1v1.5h-2.1v2.4H364v-2.4h-2.1v-1.5h2.1V49h1.6v2.4z"/></g></g><path d="M191 201.2l-1.3-.4.2-.7 1.3.5v-1.5h.7v1.5l1.3-.5.2.7-1.3.4.8 1.2-.6.4-.8-1.2-.8 1.2-.6-.4.9-1.2zM197.7 203.9H195l-.6 1.6h-.9l2.4-6.3h.7l2.4 6.3h-.9l-.4-1.6zm-2.4-.7h2.1l-1-2.9-1.1 2.9zM200.8 205.5h-.9v-6.8h.9v6.8zM203 205.5h-.9v-6.8h.9v6.8zM210.5 203.3c0 .7-.2 1.2-.5 1.6-.3.4-.8.6-1.3.6-.3 0-.5 0-.8-.1-.2-.1-.4-.2-.6-.4v2.3h-.9v-6.5h.7l.1.6c.2-.2.3-.4.6-.5.2-.1.5-.2.8-.2.6 0 1 .2 1.4.7s.5 1.1.5 1.9zm-.8-.1c0-.5-.1-1-.3-1.3s-.5-.5-.9-.5c-.2 0-.5.1-.6.2s-.3.3-.4.5v2.3c.1.2.2.3.4.5s.4.2.6.2c.4 0 .7-.1.9-.4.2-.5.3-.9.3-1.5zM213.8 201.6h-.4c-.2 0-.4.1-.6.2-.2.1-.3.3-.4.5v3.4h-.9V201h.8l.1.7c.1-.2.3-.4.5-.6s.4-.2.7-.2H213.9l-.1.7zM215.6 199.6h-.9v-.9h.9v.9zm0 5.9h-.9v-4.7h.9v4.7zM218.8 204.9c.3 0 .5-.1.7-.3.2-.2.3-.4.3-.6h.8c0 .4-.2.8-.5 1.1s-.8.5-1.3.5c-.7 0-1.2-.2-1.6-.7-.4-.4-.5-1-.5-1.7v-.2c0-.7.2-1.2.5-1.7s.9-.7 1.6-.7c.5 0 1 .2 1.3.5.3.3.5.7.5 1.2h-.8c0-.3-.1-.5-.3-.7s-.5-.3-.8-.3c-.4 0-.8.2-1 .5-.2.3-.3.7-.3 1.2v.2c0 .5.1.9.3 1.2.3.4.6.5 1.1.5zM223.5 205.6c-.7 0-1.2-.2-1.6-.7-.4-.4-.6-1-.6-1.7v-.2c0-.7.2-1.2.6-1.7s.9-.7 1.4-.7c.6 0 1.1.2 1.4.6s.5.9.5 1.5v.5h-3c0 .5.1.8.3 1.1.2.3.5.4.9.4.3 0 .5 0 .8-.1l.6-.3.3.6c-.2.2-.4.3-.7.4-.1.2-.5.3-.9.3zm-.1-4.2c-.3 0-.5.1-.7.4-.2.2-.3.5-.4.9h2.2v-.1c0-.3-.1-.6-.3-.8-.2-.3-.4-.4-.8-.4zM229 204.3c0-.2-.1-.3-.2-.5-.1-.1-.4-.2-.8-.3-.6-.1-1-.3-1.3-.5-.3-.2-.4-.5-.4-.9s.2-.7.5-1 .7-.4 1.3-.4c.5 0 1 .1 1.3.4.3.3.5.6.5 1h-.9c0-.2-.1-.4-.3-.6-.2-.2-.4-.2-.7-.2-.3 0-.5.1-.7.2-.1.1-.2.3-.2.5s.1.3.2.4c.1.1.4.2.8.3.6.1 1 .3 1.3.5s.4.5.4.9-.2.8-.5 1-.8.4-1.3.4c-.6 0-1.1-.2-1.4-.5-.3-.3-.5-.7-.5-1.1h.8c0 .3.1.5.3.7.2.1.5.2.7.2.3 0 .5-.1.7-.2s.4-.1.4-.3zM233 203.2c0-.8.2-1.4.5-1.8.3-.5.8-.7 1.4-.7.3 0 .5.1.7.2.2.1.4.2.5.4v-2.6h.9v6.8h-.7l-.1-.6c-.2.2-.3.4-.6.5-.2.1-.5.2-.8.2-.6 0-1-.2-1.3-.6-.4-.4-.5-1-.5-1.8zm.8.1c0 .5.1.9.3 1.1s.5.4.9.4c.3 0 .5-.1.6-.2.2-.1.3-.3.4-.5v-2.2c-.1-.2-.3-.3-.4-.5-.2-.1-.4-.2-.6-.2-.4 0-.7.2-.9.5-.2.6-.3 1-.3 1.6zM240.2 205.6c-.7 0-1.2-.2-1.6-.7-.4-.4-.6-1-.6-1.7v-.2c0-.7.2-1.2.6-1.7s.9-.7 1.4-.7c.6 0 1.1.2 1.4.6s.5.9.5 1.5v.5h-3c0 .5.1.8.3 1.1.2.3.5.4.9.4.3 0 .5 0 .8-.1l.6-.3.3.6c-.2.2-.4.3-.7.4-.2.2-.5.3-.9.3zm-.2-4.2c-.3 0-.5.1-.7.4-.2.2-.3.5-.4.9h2.2v-.1c0-.3-.1-.6-.3-.8-.1-.3-.4-.4-.8-.4zM246.9 203.3c0 .7-.2 1.2-.5 1.6-.3.4-.8.6-1.3.6-.3 0-.5 0-.8-.1-.2-.1-.4-.2-.6-.4v2.3h-.9v-6.5h.7l.1.6c.2-.2.3-.4.6-.5.2-.1.5-.2.8-.2.6 0 1 .2 1.4.7.4.5.5 1.1.5 1.9zm-.8-.1c0-.5-.1-1-.3-1.3s-.5-.5-.9-.5c-.2 0-.5.1-.6.2s-.3.3-.4.5v2.3c.1.2.2.3.4.5s.4.2.6.2c.4 0 .7-.1.9-.4.2-.5.3-.9.3-1.5zM249.9 205.6c-.7 0-1.2-.2-1.6-.7s-.6-1-.6-1.7v-.2c0-.7.2-1.2.6-1.7.4-.4.9-.7 1.4-.7.6 0 1.1.2 1.4.6s.5.9.5 1.5v.5h-3c0 .5.1.8.3 1.1.2.3.5.4.9.4.3 0 .5 0 .8-.1l.6-.3.3.6c-.2.2-.4.3-.7.4-.2.2-.5.3-.9.3zm-.1-4.2c-.3 0-.5.1-.7.4-.2.2-.3.5-.4.9h2.2v-.1c0-.3-.1-.6-.3-.8-.2-.3-.5-.4-.8-.4zM253.4 200.8l.1.7.6-.6c.2-.1.5-.2.8-.2.5 0 .9.1 1.2.4.3.3.4.8.4 1.4v3h-.9v-2.9c0-.4-.1-.7-.2-.9-.2-.2-.4-.3-.7-.3-.2 0-.5.1-.7.2-.2.1-.3.3-.5.5v3.4h-.9v-4.7h.8zM257.5 203.2c0-.8.2-1.4.5-1.8.3-.5.8-.7 1.4-.7.3 0 .5.1.7.2.2.1.4.2.5.4v-2.6h.9v6.8h-.7l-.1-.6c-.2.2-.3.4-.6.5s-.5.2-.8.2c-.6 0-1-.2-1.3-.6-.3-.4-.5-1-.5-1.8zm.9.1c0 .5.1.9.3 1.1.2.3.5.4.9.4.3 0 .5-.1.6-.2.2-.1.3-.3.4-.5v-2.2c-.1-.2-.3-.3-.4-.5s-.4-.2-.6-.2c-.4 0-.7.2-.9.5-.2.6-.3 1-.3 1.6zM264.8 203.1c0-.7.2-1.3.6-1.7.4-.4.9-.7 1.5-.7.7 0 1.2.2 1.5.7.4.4.6 1 .6 1.7v.1c0 .7-.2 1.3-.6 1.7-.4.4-.9.7-1.5.7s-1.2-.2-1.5-.7c-.4-.4-.6-1-.6-1.8zm.8.1c0 .5.1.9.3 1.2.2.3.5.5.9.5s.7-.2.9-.5c.2-.3.3-.7.3-1.2v-.1c0-.5-.1-.9-.3-1.2s-.5-.5-.9-.5-.7.2-.9.5-.3.7-.3 1.3zM270.8 200.8l.1.7.6-.6c.2-.1.5-.2.8-.2.5 0 .9.1 1.2.4s.4.8.4 1.4v3h-.9v-2.9c0-.4-.1-.7-.2-.9-.2-.2-.4-.3-.7-.3-.2 0-.5.1-.7.2-.2.1-.3.3-.5.5v3.4h-.9v-4.7h.8zM279.3 205.6c-.7 0-1.2-.2-1.6-.7s-.6-1-.6-1.7v-.2c0-.7.2-1.2.6-1.7.4-.4.9-.7 1.4-.7.6 0 1.1.2 1.4.6s.5.9.5 1.5v.5h-3c0 .5.1.8.3 1.1.2.3.5.4.9.4.3 0 .5 0 .8-.1l.6-.3.3.6c-.2.2-.4.3-.7.4-.2.2-.6.3-.9.3zm-.2-4.2c-.3 0-.5.1-.7.4-.2.2-.3.5-.4.9h2.2v-.1c0-.3-.1-.6-.3-.8-.2-.3-.4-.4-.8-.4zM284.9 205.5c0-.1-.1-.3-.1-.4v-.3l-.6.6c-.2.2-.5.2-.8.2-.5 0-.9-.1-1.1-.4-.3-.3-.4-.6-.4-1s.2-.8.5-1.1.9-.4 1.5-.4h.9v-.5c0-.3-.1-.5-.3-.7-.2-.2-.4-.2-.7-.2-.3 0-.5.1-.7.2-.2.1-.3.3-.3.5h-.8c0-.3.1-.7.5-.9.3-.3.8-.4 1.3-.4s1 .1 1.3.4.5.7.5 1.2v2.8c0 .2 0 .3.1.5h-.8zm-1.4-.6c.3 0 .6-.1.8-.2.2-.2.4-.3.5-.5v-.8h-1c-.3 0-.6.1-.8.3-.2.2-.3.4-.3.6 0 .2.1.4.2.5.1 0 .3.1.6.1zM288.8 204.9c.3 0 .5-.1.7-.3.2-.2.3-.4.3-.6h.8c0 .4-.2.8-.5 1.1s-.8.5-1.3.5c-.7 0-1.2-.2-1.6-.7-.4-.4-.5-1-.5-1.7v-.2c0-.7.2-1.2.5-1.7s.9-.7 1.6-.7c.5 0 1 .2 1.3.5s.5.7.5 1.2h-.8c0-.3-.1-.5-.3-.7-.2-.2-.5-.3-.8-.3-.4 0-.8.2-1 .5-.2.3-.3.7-.3 1.2v.2c0 .5.1.9.3 1.2.3.4.7.5 1.1.5zM292.5 201.4c.2-.2.4-.4.6-.5.2-.1.5-.2.8-.2.5 0 .9.2 1.2.5.3.3.4.8.4 1.4v2.9h-.9v-3c0-.4-.1-.7-.2-.9-.2-.2-.4-.3-.7-.3-.2 0-.5.1-.6.2s-.4.3-.5.5v3.5h-.9v-6.8h.9v2.7zM299.8 199.6h-.8v-.9h.9v.9zm0 5.9h-.8v-4.7h.9v4.7zM301.9 200.8l.1.7.6-.6c.2-.1.5-.2.8-.2.5 0 .9.1 1.2.4s.4.8.4 1.4v3h-.9v-2.9c0-.4-.1-.7-.2-.9-.2-.2-.4-.3-.7-.3-.2 0-.5.1-.7.2-.2.1-.3.3-.5.5v3.4h-.9v-4.7h.8zM306 203.2c0-.8.2-1.4.5-1.8.3-.5.8-.7 1.4-.7.3 0 .5.1.7.2.2.1.4.2.5.4v-2.6h.9v6.8h-.7l-.1-.6c-.2.2-.3.4-.6.5s-.5.2-.8.2c-.6 0-1-.2-1.3-.6-.4-.4-.5-1-.5-1.8zm.8.1c0 .5.1.9.3 1.1.2.3.5.4.9.4.3 0 .5-.1.6-.2.2-.1.3-.3.4-.5v-2.2c-.1-.2-.3-.3-.4-.5-.2-.1-.4-.2-.6-.2-.4 0-.7.2-.9.5-.2.6-.3 1-.3 1.6zM312.2 199.6h-.9v-.9h.9v.9zm0 5.9h-.9v-4.7h.9v4.7zM315 204.1l.1.3.1-.3 1.1-3.3h.9l-1.7 4.7h-.6l-1.7-4.7h.9l.9 3.3zM318.9 199.6h-.9v-.9h.9v.9zm0 5.9h-.9v-4.7h.9v4.7zM320 203.2c0-.8.2-1.4.5-1.8.3-.5.8-.7 1.4-.7.3 0 .5.1.7.2.2.1.4.2.5.4v-2.6h.9v6.8h-.7l-.1-.6c-.2.2-.3.4-.6.5s-.5.2-.8.2c-.6 0-1-.2-1.3-.6-.3-.4-.5-1-.5-1.8zm.8.1c0 .5.1.9.3 1.1.2.3.5.4.9.4.3 0 .5-.1.6-.2.2-.1.3-.3.4-.5v-2.2c-.1-.2-.3-.3-.4-.5-.2-.1-.4-.2-.6-.2-.4 0-.7.2-.9.5-.2.6-.3 1-.3 1.6zM328.2 204.8c-.1.3-.3.4-.6.6-.2.1-.5.2-.8.2-.5 0-.9-.2-1.2-.5-.3-.3-.4-.8-.4-1.5v-2.8h.9v2.8c0 .5.1.8.2 1s.4.3.7.3c.3 0 .6-.1.8-.2s.3-.3.4-.5v-3.4h.9v4.7h-.8l-.1-.7zM333.2 205.5c0-.1-.1-.3-.1-.4v-.3l-.6.6c-.2.2-.5.2-.8.2-.5 0-.9-.1-1.1-.4-.3-.3-.4-.6-.4-1s.2-.8.5-1.1.9-.4 1.5-.4h.9v-.5c0-.3-.1-.5-.3-.7-.2-.2-.4-.2-.7-.2-.3 0-.5.1-.7.2-.2.1-.3.3-.3.5h-.8c0-.3.1-.7.5-.9.3-.3.8-.4 1.3-.4s1 .1 1.3.4.5.7.5 1.2v2.8c0 .2 0 .3.1.5h-.8zm-1.4-.6c.3 0 .6-.1.8-.2.2-.2.4-.3.5-.5v-.8h-1c-.3 0-.6.1-.8.3-.2.2-.3.4-.3.6 0 .2.1.4.2.5.1 0 .3.1.6.1zM336.1 205.5h-.9v-6.8h.9v6.8zM343.6 203.3c0 .7-.2 1.2-.5 1.6-.3.4-.8.6-1.3.6-.3 0-.5 0-.8-.1-.2-.1-.4-.2-.6-.4v2.3h-.9v-6.5h.7l.1.6c.2-.2.3-.4.6-.5.2-.1.5-.2.8-.2.6 0 1 .2 1.4.7.4.5.5 1.1.5 1.9zm-.8-.1c0-.5-.1-1-.3-1.3s-.5-.5-.9-.5c-.2 0-.5.1-.6.2s-.3.3-.4.5v2.3c.1.2.2.3.4.5s.4.2.6.2c.4 0 .7-.1.9-.4.2-.5.3-.9.3-1.5zM346.9 201.6h-.4c-.2 0-.4.1-.6.2-.2.1-.3.3-.4.5v3.4h-.9V201h.8l.1.7c.1-.2.3-.4.5-.6.2-.1.4-.2.7-.2H347l-.1.7zM347.5 203.1c0-.7.2-1.3.6-1.7.4-.4.9-.7 1.5-.7.7 0 1.2.2 1.5.7.4.4.6 1 .6 1.7v.1c0 .7-.2 1.3-.6 1.7-.4.4-.9.7-1.5.7s-1.2-.2-1.5-.7c-.5-.4-.6-1-.6-1.8zm.8.1c0 .5.1.9.3 1.2.2.3.5.5.9.5s.7-.2.9-.5c.2-.3.3-.7.3-1.2v-.1c0-.5-.1-.9-.3-1.2s-.5-.5-.9-.5-.7.2-.9.5-.3.7-.3 1.3zM353.7 200.8v5.1c0 .5-.1.9-.4 1.1-.2.3-.6.4-1 .4h-.2c-.1 0-.2 0-.2-.1l.1-.7h.4c.2 0 .3-.1.4-.2.1-.1.2-.3.2-.6v-5.1h.7zm0-1.2h-.9v-.9h.9v.9zM357 205.6c-.7 0-1.2-.2-1.6-.7s-.6-1-.6-1.7v-.2c0-.7.2-1.2.6-1.7.4-.4.9-.7 1.4-.7.6 0 1.1.2 1.4.6s.5.9.5 1.5v.5h-3c0 .5.1.8.3 1.1.2.3.5.4.9.4.3 0 .5 0 .8-.1l.6-.3.3.6c-.2.2-.4.3-.7.4-.2.2-.5.3-.9.3zm-.2-4.2c-.3 0-.5.1-.7.4-.2.2-.3.5-.4.9h2.2v-.1c0-.3-.1-.6-.3-.8-.2-.3-.4-.4-.8-.4zM361.6 204.9c.3 0 .5-.1.7-.3.2-.2.3-.4.3-.6h.8c0 .4-.2.8-.5 1.1s-.8.5-1.3.5c-.7 0-1.2-.2-1.6-.7-.4-.4-.5-1-.5-1.7v-.2c0-.7.2-1.2.5-1.7s.9-.7 1.6-.7c.5 0 1 .2 1.3.5s.5.7.5 1.2h-.8c0-.3-.1-.5-.3-.7-.2-.2-.5-.3-.8-.3-.4 0-.8.2-1 .5-.2.3-.3.7-.3 1.2v.2c0 .5.1.9.3 1.2.4.4.7.5 1.1.5zM365.6 199.7v1.1h.9v.6h-.9v2.9c0 .2 0 .4.1.5s.2.1.4.1h.4l.1.6c-.1.1-.2.1-.3.1h-.4c-.3 0-.6-.1-.8-.3-.2-.2-.3-.5-.3-1v-2.9h-.8v-.6h.7v-1.1h.9zM368.4 205.5h-.9v-.9h.9v.9z"/></svg>