<svg id="_x23_1" xmlns="http://www.w3.org/2000/svg" viewBox="0 0 427.3 229.3"><style>.st0{fill:#6da2a3}.st1{fill:#859f24}</style><g id="Left_Text"><path d="M14.8 57.5H19v.6h-4.9v-8.5h.7v7.9zM19.9 54.8c0-.9.3-1.7.8-2.3s1.2-.9 2-.9 1.5.3 2 .9.8 1.4.8 2.3v.2c0 .9-.3 1.7-.8 2.3s-1.2.9-2 .9c-.9 0-1.5-.3-2-.9s-.8-1.3-.8-2.3v-.2zm.7.2c0 .7.2 1.4.6 1.8s.9.7 1.6.7c.7 0 1.2-.2 1.5-.7s.6-1.1.6-1.8v-.2c0-.7-.2-1.3-.6-1.8s-.9-.8-1.5-.8-1.2.3-1.5.8-.6 1.1-.6 1.8v.2zM26.7 55c0-1 .2-1.8.6-2.4s1-.9 1.8-.9c.4 0 .8.1 1.2.3s.6.5.8.8l.1-1h.6V58c0 .8-.2 1.5-.7 1.9s-1.1.7-1.9.7c-.3 0-.6 0-1-.1s-.6-.2-.9-.3l.2-.6c.2.1.5.2.8.3s.6.1.9.1c.6 0 1.1-.2 1.4-.5s.5-.8.5-1.5v-.8c-.2.3-.5.6-.8.7s-.7.3-1.1.3c-.8 0-1.4-.3-1.8-.8s-.6-1.3-.6-2.3V55zm.7.1c0 .8.2 1.4.5 1.8s.8.7 1.4.7c.5 0 .8-.1 1.1-.3.3-.2.5-.5.7-.9v-2.9c-.2-.4-.4-.7-.7-.9-.3-.2-.7-.4-1.2-.4-.6 0-1.1.3-1.4.8s-.5 1.2-.5 2v.1zM33.2 54.8c0-.9.3-1.7.8-2.3s1.2-.9 2-.9 1.5.3 2 .9.8 1.4.8 2.3v.2c0 .9-.3 1.7-.8 2.3s-1.2.9-2 .9c-.9 0-1.5-.3-2-.9s-.8-1.3-.8-2.3v-.2zm.7.2c0 .7.2 1.4.6 1.8s.9.7 1.6.7c.7 0 1.2-.2 1.5-.7s.6-1.1.6-1.8v-.2c0-.7-.2-1.3-.6-1.8s-.9-.8-1.5-.8-1.2.3-1.5.8-.6 1.1-.6 1.8v.2zM40.2 58.8h-.6l3.6-9.3h.6l-3.6 9.3zM46.1 58.1h-.7v-8.5h.7v8.5zM48.9 51.8l.1 1.1c.2-.4.5-.7.8-.9s.8-.3 1.2-.3c.7 0 1.2.2 1.6.6s.5 1.1.5 2v3.9h-.7v-3.9c0-.7-.1-1.2-.4-1.5s-.7-.5-1.2-.5-.9.1-1.2.4-.5.6-.7 1v4.4h-.7v-6.3h.7zM56.1 50.1v1.6h1.4v.6h-1.4v4.1c0 .4.1.7.2.9s.4.3.6.3h.7l.1.5c-.1.1-.3.1-.4.1h-.5c-.4 0-.8-.1-1-.4s-.4-.7-.4-1.3v-4.1h-1.1v-.6h1.1v-1.6h.7zM61.9 52.4h-.5c-.4 0-.8.1-1.1.4s-.5.6-.6 1v4.4H59v-6.3h.6l.1 1.1v.1c.2-.4.4-.7.7-.9s.7-.3 1.1-.3h.5l-.1.5zM62.5 54.8c0-.9.3-1.7.8-2.3s1.2-.9 2-.9 1.5.3 2 .9.8 1.4.8 2.3v.2c0 .9-.3 1.7-.8 2.3s-1.2.9-2 .9c-.9 0-1.5-.3-2-.9s-.8-1.3-.8-2.3v-.2zm.7.2c0 .7.2 1.4.6 1.8.4.5.9.7 1.6.7.7 0 1.2-.2 1.5-.7s.6-1.1.6-1.8v-.2c0-.7-.2-1.3-.6-1.8s-.9-.8-1.5-.8-1.2.3-1.5.8c-.4.5-.6 1.1-.6 1.8v.2zM77.3 55.7h-3.9l-.9 2.4h-.7l3.2-8.5h.7l3.2 8.5h-.7l-.9-2.4zm-3.7-.6H77l-1.7-4.6-1.7 4.6zM80.6 51.8l.1 1.1c.2-.4.5-.7.8-.9s.8-.3 1.2-.3c.7 0 1.2.2 1.6.6s.5 1.1.5 2v3.9h-.7v-3.9c0-.7-.1-1.2-.4-1.5s-.7-.5-1.2-.5-.9.1-1.2.4-.5.6-.7 1v4.4H80v-6.3h.6zM87.5 50h-.7v-1h.7v1zm0 8.1h-.7v-6.3h.7v6.3zM90 51.8l.1 1c.2-.4.5-.7.8-.9s.7-.3 1.2-.3.9.1 1.2.4.6.6.7 1.1c.2-.4.5-.8.8-1s.8-.4 1.3-.4c.7 0 1.2.2 1.6.7s.6 1.1.6 2.1v3.7h-.7v-3.7c0-.8-.1-1.3-.4-1.7s-.7-.5-1.2-.5-1 .2-1.3.5c-.3.3-.5.8-.6 1.3v4h-.7v-3.7c0-.8-.1-1.3-.4-1.6-.3-.3-.7-.5-1.2-.5s-.9.1-1.2.4-.5.6-.6 1v4.5h-.7v-6.3h.7zM104.1 58.1c0-.2-.1-.4-.1-.6V57c-.2.3-.5.6-.9.8s-.8.3-1.3.3c-.6 0-1.1-.2-1.4-.5s-.5-.8-.5-1.3c0-.6.3-1.1.8-1.4s1.2-.5 2-.5h1.4v-.8c0-.5-.1-.8-.4-1.1s-.7-.4-1.2-.4-.9.1-1.2.4-.5.5-.5.9h-.6c0-.5.2-.9.6-1.3s1-.6 1.7-.6 1.3.2 1.7.5.6.9.6 1.5v3.8c0 .3.1.4.1.6h-.8zm-2.3-.5c.5 0 .9-.1 1.3-.4s.7-.5.8-.9V55h-1.4c-.6 0-1.1.1-1.5.4s-.6.6-.6 1c0 .3.1.6.4.8s.6.4 1 .4zM107.6 50.1v1.6h1.4v.6h-1.4v4.1c0 .4.1.7.2.9s.4.3.6.3h.7l.1.5c-.1.1-.3.1-.4.1h-.5c-.4 0-.8-.1-1-.4s-.4-.7-.4-1.3v-4.1h-1.1v-.6h1.1v-1.6h.7zM111.3 50h-.7v-1h.7v1zm0 8.1h-.7v-6.3h.7v6.3zM112.8 54.8c0-.9.3-1.7.8-2.3s1.2-.9 2-.9 1.5.3 2 .9.8 1.4.8 2.3v.2c0 .9-.3 1.7-.8 2.3s-1.2.9-2 .9c-.9 0-1.5-.3-2-.9s-.8-1.4-.8-2.3v-.2zm.7.2c0 .7.2 1.4.6 1.8s.9.7 1.6.7c.7 0 1.2-.2 1.5-.7s.6-1.1.6-1.8v-.2c0-.7-.2-1.3-.6-1.8s-.9-.8-1.5-.8-1.2.3-1.5.8-.6 1.1-.6 1.8v.2zM120.5 51.8l.1 1.1c.2-.4.5-.7.8-.9s.8-.3 1.2-.3c.7 0 1.2.2 1.6.6s.5 1.1.5 2v3.9h-.7v-3.9c0-.7-.1-1.2-.4-1.5s-.7-.5-1.2-.5-.9.1-1.2.4-.5.6-.7 1v4.4h-.7v-6.3h.7zM127.4 52.7h-.8v-1h.8v1zm0 5.4h-.8v-1h.8v1z"/><g><path d="M31 96c0-.5-.2-.8-.5-1.1s-1-.6-1.8-.8c-.9-.2-1.6-.5-2.1-.9s-.7-.9-.7-1.5c0-.7.3-1.2.8-1.6s1.2-.6 2.1-.6c.9 0 1.6.2 2.1.7s.8 1.1.8 1.8h-.6c0-.6-.2-1-.6-1.4s-1-.6-1.6-.6c-.7 0-1.2.2-1.6.5s-.6.7-.6 1.1c0 .4.2.8.5 1.1s1 .5 1.8.8c.9.2 1.6.6 2.1.9s.7.9.7 1.6c0 .7-.3 1.2-.8 1.6s-1.3.6-2.1.6c-.9 0-1.6-.2-2.2-.6s-.9-1.1-.9-1.9h.6c0 .7.2 1.2.7 1.5s1.1.5 1.8.5 1.2-.1 1.6-.4.5-.8.5-1.3zM32.7 94.8c0-.9.3-1.7.8-2.3s1.2-.9 2-.9 1.5.3 2 .9.8 1.4.8 2.3v.2c0 .9-.3 1.7-.8 2.3s-1.2.9-2 .9c-.9 0-1.5-.3-2-.9s-.8-1.3-.8-2.3v-.2zm.7.2c0 .7.2 1.4.6 1.8s.9.7 1.6.7c.7 0 1.2-.2 1.5-.7s.6-1.1.6-1.8v-.2c0-.7-.2-1.3-.6-1.8s-.9-.8-1.5-.8-1.2.3-1.6.8-.6 1.1-.6 1.8v.2zM42.2 97.6c.5 0 .9-.1 1.2-.4s.5-.6.5-1.1h.6c0 .6-.2 1.1-.7 1.5s-1.1.6-1.7.6c-.9 0-1.5-.3-2-.9s-.7-1.4-.7-2.3v-.2c0-.9.2-1.7.7-2.3s1.1-.9 2-.9c.7 0 1.3.2 1.7.6s.7.9.7 1.6h-.6c0-.5-.2-.9-.5-1.2s-.8-.5-1.3-.5c-.7 0-1.2.2-1.5.7-.3.5-.5 1.1-.5 1.8v.2c0 .7.2 1.4.5 1.8s.9 1 1.6 1zM46.8 90h-.7v-1h.7v1zm0 8.1h-.7v-6.3h.7v6.3zM52.8 98.1c0-.2-.1-.4-.1-.6V97c-.2.3-.5.6-.9.8s-.8.3-1.3.3c-.6 0-1.1-.2-1.4-.5s-.5-.8-.5-1.3c0-.6.3-1.1.8-1.4s1.2-.5 2-.5h1.4v-.8c0-.5-.1-.8-.4-1.1s-.7-.4-1.2-.4-.9.1-1.2.4-.5.5-.5.9h-.6c0-.5.2-.9.6-1.3s1-.6 1.7-.6 1.3.2 1.7.5.6.9.6 1.5v3.8c0 .3.1.4.1.6h-.8zm-2.3-.5c.5 0 .9-.1 1.3-.4s.7-.5.8-.9V95h-1.4c-.6 0-1.1.1-1.5.4s-.6.6-.6 1c0 .3.1.6.4.8s.6.4 1 .4zM56 98.1h-.7V89h.7v9.1zM57.8 98.8h-.6l3.6-9.3h.6l-3.6 9.3zM68.8 95.4c-.1.9-.4 1.6-.9 2.1s-1.3.7-2.2.7c-.9 0-1.7-.3-2.3-1-.6-.7-.9-1.6-.9-2.7v-1.4c0-1.1.3-2 .9-2.7.6-.7 1.3-1 2.3-1 .9 0 1.6.2 2.2.7s.8 1.2.9 2h-.7c-.1-.7-.3-1.2-.7-1.6s-.9-.6-1.7-.6c-.7 0-1.3.3-1.8.9-.5.6-.7 1.3-.7 2.2v1.4c0 .9.2 1.7.7 2.2.5.6 1 .9 1.8.9.7 0 1.3-.2 1.7-.5s.6-.9.7-1.6h.7zM70 94.8c0-.9.3-1.7.8-2.3s1.2-.9 2-.9 1.5.3 2 .9.8 1.4.8 2.3v.2c0 .9-.3 1.7-.8 2.3s-1.2.9-2 .9c-.9 0-1.5-.3-2-.9S70 96 70 95v-.2zm.7.2c0 .7.2 1.4.6 1.8s.9.7 1.6.7c.7 0 1.2-.2 1.5-.7s.6-1.1.6-1.8v-.2c0-.7-.2-1.3-.6-1.8s-.9-.8-1.5-.8-1.2.3-1.5.8-.6 1.1-.6 1.8v.2zM77.7 91.8l.1 1c.2-.4.5-.7.8-.9s.7-.3 1.2-.3.9.1 1.2.4.6.6.7 1.1c.2-.4.5-.8.8-1s.8-.4 1.3-.4c.7 0 1.2.2 1.6.7s.6 1.1.6 2.1v3.7h-.7v-3.7c0-.8-.1-1.3-.4-1.7s-.7-.5-1.2-.5-1 .2-1.3.5c-.3.3-.5.8-.6 1.3v4h-.7v-3.7c0-.8-.1-1.3-.4-1.6-.3-.3-.7-.5-1.2-.5s-.9.1-1.2.4-.5.6-.6 1v4.5H77v-6.3h.7zM88.3 91.8l.1 1c.2-.4.5-.7.8-.9s.7-.3 1.2-.3.9.1 1.2.4.6.6.7 1.1c.2-.4.5-.8.8-1s.8-.4 1.3-.4c.7 0 1.2.2 1.6.7s.6 1.1.6 2.1v3.7h-.7v-3.7c0-.8-.1-1.3-.4-1.7s-.7-.5-1.2-.5-1 .2-1.3.5c-.3.3-.5.8-.6 1.3v4h-.7v-3.7c0-.8-.1-1.3-.4-1.6-.3-.3-.7-.5-1.2-.5s-.9.1-1.2.4-.5.6-.6 1v4.5h-.7v-6.3h.7zM100.7 98.2c-.8 0-1.5-.3-2-.9S98 96 98 95.1v-.3c0-.9.3-1.7.8-2.3s1.2-.9 1.9-.9c.8 0 1.4.2 1.8.7s.7 1.1.7 2v.7h-4.5v.2c0 .7.2 1.3.6 1.8s.9.7 1.5.7c.4 0 .8-.1 1.1-.2s.6-.3.8-.5l.3.5c-.2.3-.5.5-.9.6-.4.1-.9.1-1.4.1zm-.1-6c-.5 0-1 .2-1.3.6-.4.4-.6.9-.6 1.5h3.7v-.2c0-.5-.2-1-.5-1.4s-.7-.5-1.3-.5zM107.4 92.4h-.5c-.4 0-.8.1-1.1.4s-.5.6-.6 1v4.4h-.7v-6.3h.6l.1 1.1v.1c.2-.4.4-.7.7-.9s.7-.3 1.1-.3h.5l-.1.5zM110.8 97.6c.5 0 .9-.1 1.2-.4s.5-.6.5-1.1h.6c0 .6-.2 1.1-.7 1.5s-1.1.6-1.7.6c-.9 0-1.5-.3-2-.9s-.7-1.4-.7-2.3v-.2c0-.9.2-1.7.7-2.3s1.1-.9 2-.9c.7 0 1.3.2 1.7.6s.7.9.7 1.6h-.6c0-.5-.2-.9-.5-1.2s-.8-.5-1.3-.5c-.7 0-1.2.2-1.5.7-.3.5-.5 1.1-.5 1.8v.2c0 .7.2 1.4.5 1.8s1 1 1.6 1zM115.5 90h-.7v-1h.7v1zm0 8.1h-.7v-6.3h.7v6.3zM121.5 98.1c0-.2-.1-.4-.1-.6V97c-.2.3-.5.6-.9.8s-.8.3-1.3.3c-.6 0-1.1-.2-1.4-.5s-.5-.8-.5-1.3c0-.6.3-1.1.8-1.4s1.2-.5 2-.5h1.4v-.8c0-.5-.1-.8-.4-1.1s-.7-.4-1.2-.4-.9.1-1.2.4-.5.5-.5.9h-.6c0-.5.2-.9.6-1.3s1-.6 1.7-.6 1.3.2 1.7.5.6.9.6 1.5v3.8c0 .3.1.4.1.6h-.8zm-2.4-.5c.5 0 .9-.1 1.3-.4s.7-.5.8-.9V95h-1.4c-.6 0-1.1.1-1.5.4s-.6.6-.6 1c0 .3.1.6.4.8s.6.4 1 .4zM124.7 98.1h-.7V89h.7v9.1zM127.4 92.7h-.8v-1h.8v1zm0 5.4h-.8v-1h.8v1z"/></g><g><path d="M50.9 134h-4.1v3.5h4.7v.6h-5.4v-8.5h5.4v.6h-4.7v3.2h4.1v.6zM54.8 134.4l1.7-2.6h.8l-2.2 3.1 2.2 3.2h-.8l-1.8-2.7-1.8 2.7h-.8l2.2-3.2-2.2-3.1h.8l1.9 2.6zM63.8 135.1c0 .9-.2 1.7-.6 2.3-.4.6-1 .8-1.8.8-.4 0-.8-.1-1.2-.3s-.6-.4-.8-.7v3.3h-.7v-8.8h.6l.1 1c.2-.4.5-.6.8-.8s.7-.3 1.2-.3c.8 0 1.4.3 1.8.9s.6 1.4.6 2.4v.2zm-.7-.1c0-.8-.2-1.5-.5-2s-.8-.8-1.4-.8c-.5 0-.9.1-1.2.3-.3.2-.5.5-.7.9v3.1c.2.3.4.6.7.8s.7.3 1.1.3c.6 0 1.1-.2 1.4-.7.3-.5.5-1.1.5-1.8v-.1zM66.2 138.1h-.7V129h.7v9.1zM72.1 138.1c0-.2-.1-.4-.1-.6v-.5c-.2.3-.5.6-.9.8s-.8.3-1.3.3c-.6 0-1.1-.2-1.4-.5s-.5-.8-.5-1.3c0-.6.3-1.1.8-1.4s1.2-.5 2-.5H72v-.8c0-.5-.1-.8-.4-1.1s-.7-.4-1.2-.4-.9.1-1.2.4-.5.5-.5.9h-.6c0-.5.2-.9.6-1.3s1-.6 1.7-.6 1.3.2 1.7.5.6.9.6 1.5v3.7c0 .2.1.4.1.6h-.7zm-2.3-.5c.5 0 .9-.1 1.3-.4s.7-.5.8-.9V135h-1.4c-.6 0-1.1.1-1.5.4s-.6.6-.6 1c0 .3.1.6.4.8s.6.4 1 .4zM75.4 130h-.7v-1h.7v1zm0 8.1h-.7v-6.3h.7v6.3zM77.9 131.8l.1 1.1c.2-.4.5-.7.8-.9s.8-.3 1.2-.3c.7 0 1.2.2 1.6.6s.5 1.1.5 2v3.9h-.7v-3.9c0-.7-.1-1.2-.4-1.5s-.7-.5-1.2-.5-.9.1-1.2.4-.5.6-.7 1v4.4h-.7v-6.3h.7zM86.3 138.2c-.8 0-1.5-.3-2-.9-.5-.6-.8-1.3-.8-2.2v-.3c0-.9.3-1.7.8-2.3s1.2-.9 1.9-.9c.8 0 1.4.2 1.8.7s.7 1.1.7 2v.6h-4.5v.2c0 .7.2 1.3.6 1.8s.9.7 1.5.7c.4 0 .8-.1 1.1-.2s.6-.3.8-.5l.3.5c-.2.3-.5.5-.9.6-.3.2-.7.2-1.3.2zm0-6c-.5 0-1 .2-1.3.6-.4.4-.6.9-.6 1.5h3.7v-.2c0-.5-.2-1-.5-1.4s-.8-.5-1.3-.5zM93.1 132.4h-.5c-.4 0-.8.1-1.1.4s-.5.6-.6 1v4.4h-.7v-6.3h.6l.1 1.1v.1c.2-.4.4-.7.7-.9s.7-.3 1.1-.3h.5l-.1.5zM99.7 136.7l.2.6.2-.6 2.6-7.1h.8l-3.2 8.5h-.7l-3.2-8.5h.8l2.5 7.1zM105.3 130h-.7v-1h.7v1zm0 8.1h-.7v-6.3h.7v6.3zM107 135c0-1 .2-1.8.6-2.4s1-.9 1.8-.9c.4 0 .8.1 1.1.3s.6.5.8.8V129h.7v9.1h-.6l-.1-.9c-.2.3-.5.6-.8.8s-.7.3-1.2.3c-.8 0-1.4-.3-1.8-.8-.4-.6-.6-1.3-.6-2.3v-.2zm.7.1c0 .8.2 1.4.5 1.8.3.5.8.7 1.4.7.5 0 .8-.1 1.1-.3s.5-.5.7-.8v-3c-.2-.4-.4-.7-.7-.9s-.7-.3-1.1-.3c-.6 0-1.1.3-1.4.8-.3.5-.5 1.2-.5 2zM116.3 138.2c-.8 0-1.5-.3-2-.9-.5-.6-.8-1.3-.8-2.2v-.3c0-.9.3-1.7.8-2.3s1.2-.9 1.9-.9c.8 0 1.4.2 1.8.7s.7 1.1.7 2v.6h-4.5v.2c0 .7.2 1.3.6 1.8s.9.7 1.5.7c.4 0 .8-.1 1.1-.2s.6-.3.8-.5l.3.5c-.2.3-.5.5-.9.6-.3.2-.8.2-1.3.2zm-.1-6c-.5 0-1 .2-1.3.6-.4.4-.6.9-.6 1.5h3.7v-.2c0-.5-.2-1-.5-1.4s-.7-.5-1.3-.5zM119.7 134.8c0-.9.3-1.7.8-2.3s1.2-.9 2-.9 1.5.3 2 .9.8 1.4.8 2.3v.2c0 .9-.3 1.7-.8 2.3-.5.6-1.2.9-2 .9-.9 0-1.5-.3-2-.9-.5-.6-.8-1.4-.8-2.3v-.2zm.8.2c0 .7.2 1.4.6 1.8s.9.7 1.6.7c.7 0 1.2-.2 1.5-.7s.6-1.1.6-1.8v-.2c0-.7-.2-1.3-.6-1.8s-.9-.8-1.5-.8-1.2.3-1.5.8-.6 1.1-.6 1.8v.2zM127.6 132.7h-.8v-1h.8v1zm0 5.4h-.8v-1h.8v1z"/></g><g><path d="M56.4 173.5h.8c.6 0 1.1-.2 1.4-.5s.5-.7.5-1.2-.2-1-.5-1.3-.7-.5-1.3-.5c-.5 0-1 .2-1.3.5s-.5.7-.5 1.3h-.7c0-.7.2-1.2.7-1.7s1.1-.7 1.8-.7c.8 0 1.4.2 1.8.6s.7 1 .7 1.7c0 .4-.1.8-.4 1.1s-.6.6-1.1.8c.5.2.9.4 1.2.8s.4.8.4 1.3c0 .8-.2 1.4-.7 1.8s-1.1.7-1.9.7c-.7 0-1.4-.2-1.9-.6s-.8-1-.8-1.8h.7c0 .5.2 1 .6 1.3.4.3.9.5 1.5.5s1.1-.2 1.4-.5c.3-.3.5-.8.5-1.3 0-.6-.2-1-.5-1.3s-.9-.4-1.5-.4h-.8v-.6zM61.8 178.1v-8.5h2.5c1 0 1.9.3 2.6 1s1 1.6 1 2.7v1.1c0 1.1-.3 2-1 2.7s-1.5 1-2.6 1h-2.5zm.7-7.9v7.3h1.8c.8 0 1.5-.3 2.1-.9.5-.6.8-1.3.8-2.2v-1.1c0-.9-.3-1.6-.8-2.2s-1.2-.9-2.1-.9h-1.8zM77.1 175.7h-3.9l-.9 2.4h-.7l3.2-8.5h.7l3.2 8.5H78l-.9-2.4zm-3.6-.6h3.4l-1.7-4.6-1.7 4.6zM80.5 171.8l.1 1.1c.2-.4.5-.7.8-.9s.8-.3 1.2-.3c.7 0 1.2.2 1.6.6s.5 1.1.5 2v3.9H84v-3.9c0-.7-.1-1.2-.4-1.5-.3-.3-.7-.5-1.2-.5s-.9.1-1.2.4c-.3.3-.5.6-.7 1v4.4h-.7v-6.3h.7zM87.3 170h-.7v-1h.7v1zm0 8.1h-.7v-6.3h.7v6.3zM89.9 171.8l.1 1c.2-.4.5-.7.8-.9s.7-.3 1.2-.3.9.1 1.2.4.6.6.7 1.1c.2-.4.5-.8.8-1s.8-.4 1.3-.4c.7 0 1.2.2 1.6.7s.6 1.1.6 2.1v3.7h-.7v-3.7c0-.8-.1-1.3-.4-1.7-.3-.3-.7-.5-1.2-.5s-1 .2-1.3.5c-.3.3-.5.8-.6 1.3v4h-.7v-3.7c0-.8-.1-1.3-.4-1.6-.3-.3-.7-.5-1.2-.5s-.9.1-1.2.4c-.3.3-.5.6-.6 1v4.5h-.7v-6.3h.7zM103.9 178.1c0-.2-.1-.4-.1-.6v-.5c-.2.3-.5.6-.9.8s-.8.3-1.3.3c-.6 0-1.1-.2-1.4-.5s-.5-.8-.5-1.3c0-.6.3-1.1.8-1.4s1.2-.5 2-.5h1.4v-.8c0-.5-.1-.8-.4-1.1s-.7-.4-1.2-.4-.9.1-1.2.4-.5.5-.5.9h-.6c0-.5.2-.9.6-1.3s1-.6 1.7-.6 1.3.2 1.7.5.6.9.6 1.5v3.8c0 .3.1.4.1.6h-.8zm-2.3-.5c.5 0 .9-.1 1.3-.4s.7-.5.8-.9V175h-1.4c-.6 0-1.1.1-1.5.4s-.6.6-.6 1c0 .3.1.6.4.8s.6.4 1 .4zM107.5 170.1v1.6h1.4v.6h-1.4v4.1c0 .4.1.7.2.9s.4.3.6.3h.3c.1 0 .2 0 .4-.1l.1.5c-.1.1-.3.1-.4.1h-.5c-.4 0-.8-.1-1-.4s-.4-.7-.4-1.3v-4.1h-1.1v-.6h1.1v-1.6h.7zM111.1 170h-.7v-1h.7v1zm0 8.1h-.7v-6.3h.7v6.3zM112.7 174.8c0-.9.3-1.7.8-2.3s1.2-.9 2-.9 1.5.3 2 .9.8 1.4.8 2.3v.2c0 .9-.3 1.7-.8 2.3s-1.2.9-2 .9c-.9 0-1.5-.3-2-.9s-.8-1.4-.8-2.3v-.2zm.7.2c0 .7.2 1.3.6 1.8.4.5.9.7 1.6.7.7 0 1.2-.2 1.5-.7.4-.5.6-1.1.6-1.8v-.2c0-.7-.2-1.3-.6-1.8-.4-.5-.9-.8-1.5-.8s-1.2.3-1.5.8c-.4.5-.6 1.1-.6 1.8v.2zM120.4 171.8l.1 1.1c.2-.4.5-.7.8-.9s.8-.3 1.2-.3c.7 0 1.2.2 1.6.6s.5 1.1.5 2v3.9h-.7v-3.9c0-.7-.1-1.2-.4-1.5-.3-.3-.7-.5-1.2-.5s-.9.1-1.2.4c-.3.3-.5.6-.7 1v4.4h-.7v-6.3h.7zM127.2 172.7h-.8v-1h.8v1zm0 5.4h-.8v-1h.8v1z"/></g></g><g id="Lines"><path class="st0" d="M416.5 221.9h-273c-2.2 0-3.9-1.8-3.9-3.9V35.7c0-2.2 1.8-3.9 3.9-3.9h273c2.2 0 3.9 1.8 3.9 3.9V218c0 2.1-1.8 3.9-3.9 3.9zM143.4 32.8c-1.6 0-2.9 1.3-2.9 2.9V218c0 1.6 1.3 2.9 2.9 2.9h273c1.6 0 2.9-1.3 2.9-2.9V35.7c0-1.6-1.3-2.9-2.9-2.9h-273zM5.3 64.6H134v1H5.3zM5.3 104.6H134v1H5.3zM5.3 144.6H134v1H5.3zM5.3 184.6H134v1H5.3z"/><g><path class="st0" d="M145.3 64.6H274v1H145.3zM145.3 104.6H274v1H145.3zM145.3 144.6H274v1H145.3zM145.3 184.6H274v1H145.3z"/></g><g><path class="st0" d="M285.3 64.6H414v1H285.3zM285.3 104.6H414v1H285.3zM285.3 144.6H414v1H285.3zM285.3 184.6H414v1H285.3z"/></g><path class="st0" d="M279.4 37.8h1v143.4h-1z"/></g><g id="Choices"><path d="M189.7 18.7h-1.2v-8h-1.9v-.8l3.1-.3v9.1zM199.3 15.2c0 1.2-.3 2.1-.8 2.7-.5.6-1.2.9-2.1.9s-1.6-.3-2.1-.9c-.5-.6-.8-1.5-.8-2.7V13c0-1.2.3-2.1.8-2.7.5-.6 1.2-.9 2.1-.9.9 0 1.6.3 2.1.9.5.6.8 1.5.8 2.7v2.2zm-1.3-2.4c0-.8-.1-1.4-.4-1.8-.3-.4-.7-.6-1.2-.6s-1 .2-1.2.6c-.3.4-.4 1-.4 1.8v2.7c0 .8.1 1.4.4 1.8.3.4.7.6 1.3.6s1-.2 1.2-.6.4-1 .4-1.8v-2.7zM203.3 15.3h-3.1v-1h3.1v1zM205.9 13.5h1.1c.5 0 .9-.1 1.2-.4.2-.3.3-.7.3-1.1 0-.5-.1-.9-.4-1.2-.3-.3-.6-.4-1.2-.4-.5 0-.9.1-1.2.4s-.4.7-.4 1.1h-1.2c0-.7.2-1.3.8-1.8.5-.5 1.2-.7 2-.7s1.5.2 2 .7c.5.5.8 1.1.8 1.9 0 .4-.1.8-.3 1.1-.2.4-.6.7-1 .9.5.2.9.5 1.2.8.2.4.3.8.3 1.3 0 .8-.3 1.5-.8 2s-1.2.7-2.1.7c-.8 0-1.5-.2-2.1-.7-.5-.5-.8-1.1-.8-1.8h1.2c0 .5.1.9.4 1.1s.7.4 1.2.4.9-.1 1.2-.4.4-.7.4-1.3c0-.6-.1-1-.4-1.2-.3-.3-.7-.4-1.3-.4h-1.1v-1zM217.3 15.2c0 1.2-.3 2.1-.8 2.7-.5.6-1.2.9-2.1.9s-1.6-.3-2.1-.9c-.5-.6-.8-1.5-.8-2.7V13c0-1.2.3-2.1.8-2.7.5-.6 1.2-.9 2.1-.9.9 0 1.6.3 2.1.9.5.6.8 1.5.8 2.7v2.2zm-1.2-2.4c0-.8-.1-1.4-.4-1.8-.3-.4-.7-.6-1.2-.6s-1 .2-1.2.6c-.3.4-.4 1-.4 1.8v2.7c0 .8.1 1.4.4 1.8.3.4.7.6 1.3.6s1-.2 1.2-.6.4-1 .4-1.8v-2.7zM222.9 16.9c0-.3-.1-.5-.3-.7-.2-.2-.6-.3-1.2-.5-.8-.2-1.4-.4-1.9-.7-.4-.3-.6-.7-.6-1.3 0-.6.2-1 .7-1.4.5-.4 1.1-.6 1.8-.6.8 0 1.4.2 1.9.6s.7.9.7 1.5h-1.2c0-.3-.1-.6-.4-.8-.2-.2-.6-.4-1-.4s-.8.1-1 .3c-.2.2-.3.4-.3.7 0 .3.1.5.3.6.2.2.6.3 1.2.4.9.2 1.5.4 1.9.8s.6.7.6 1.3c0 .6-.2 1.1-.7 1.5-.5.4-1.1.6-1.9.6-.9 0-1.6-.2-2.1-.7-.5-.4-.7-1-.7-1.5h1.2c0 .4.2.8.5 1 .3.2.7.3 1.1.3.4 0 .8-.1 1-.3.3-.2.4-.4.4-.7zM228.5 18.8c-.9 0-1.7-.3-2.3-.9s-.8-1.5-.8-2.5v-.3c0-1 .3-1.8.9-2.4s1.3-1 2-1c.9 0 1.6.3 2.1.8.5.6.7 1.3.7 2.2v.8h-4.4c0 .7.2 1.2.5 1.6.3.4.8.6 1.3.6.4 0 .8-.1 1.1-.2.3-.1.6-.3.8-.5l.5.8c-.2.2-.6.4-1 .6-.4.4-.8.4-1.4.4zm-.2-6.1c-.4 0-.8.2-1.1.5-.3.3-.5.8-.5 1.3h3.1v-.2c0-.5-.1-.9-.4-1.2s-.6-.4-1.1-.4zM235.2 17.9c.4 0 .8-.1 1.1-.4.3-.3.5-.6.5-.9h1.1c0 .6-.2 1.1-.8 1.6s-1.2.7-1.9.7c-1 0-1.7-.3-2.3-1s-.8-1.5-.8-2.4v-.3c0-1 .3-1.8.8-2.4.5-.6 1.3-1 2.3-1 .8 0 1.4.2 2 .7s.8 1 .7 1.7h-1.1c0-.4-.1-.8-.4-1.1-.3-.3-.7-.4-1.1-.4-.7 0-1.1.2-1.4.7-.3.5-.4 1-.4 1.7v.3c0 .7.1 1.3.4 1.7.2.5.7.8 1.3.8z"/><g><path d="M314.4 13.5h1.1c.5 0 .9-.1 1.2-.4s.3-.7.3-1.1c0-.5-.1-.9-.4-1.2-.3-.3-.6-.4-1.2-.4-.5 0-.9.1-1.2.4-.3.3-.4.7-.4 1.1h-1.2c0-.7.2-1.3.8-1.8.5-.5 1.2-.7 2-.7s1.5.2 2 .7c.5.5.8 1.1.8 1.9 0 .4-.1.8-.3 1.1s-.6.7-1 .9c.5.2.9.5 1.2.8.2.4.3.8.3 1.3 0 .8-.3 1.5-.8 2s-1.2.7-2.1.7c-.8 0-1.5-.2-2.1-.7-.5-.5-.8-1.1-.8-1.8h1.2c0 .5.1.9.4 1.1.3.3.7.4 1.2.4s.9-.1 1.2-.4.4-.7.4-1.3c0-.6-.1-1-.4-1.2-.3-.3-.7-.4-1.3-.4h-1.1v-1zM325.8 15.2c0 1.2-.3 2.1-.8 2.7-.5.6-1.2.9-2.1.9-.9 0-1.6-.3-2.1-.9-.5-.6-.8-1.5-.8-2.7V13c0-1.2.3-2.1.8-2.7.5-.6 1.2-.9 2.1-.9.9 0 1.6.3 2.1.9.5.6.8 1.5.8 2.7v2.2zm-1.3-2.4c0-.8-.1-1.4-.4-1.8-.3-.4-.7-.6-1.2-.6s-1 .2-1.2.6-.4 1-.4 1.8v2.7c0 .8.1 1.4.4 1.8.3.4.7.6 1.3.6.5 0 1-.2 1.2-.6s.4-1 .4-1.8v-2.7zM331.3 16.9c0-.3-.1-.5-.3-.7-.2-.2-.6-.3-1.2-.5-.8-.2-1.4-.4-1.9-.7-.4-.3-.6-.7-.6-1.3 0-.6.2-1 .7-1.4.5-.4 1.1-.6 1.8-.6.8 0 1.4.2 1.9.6s.7.9.7 1.5h-1.2c0-.3-.1-.6-.4-.8-.2-.2-.6-.4-1-.4s-.8.1-1 .3-.3.4-.3.7c0 .3.1.5.3.6.2.2.6.3 1.2.4.9.2 1.5.4 1.9.8.4.3.6.7.6 1.3 0 .6-.2 1.1-.7 1.5-.5.4-1.1.6-1.9.6-.9 0-1.6-.2-2.1-.7-.5-.4-.7-1-.7-1.5h1.2c0 .4.2.8.5 1 .3.2.7.3 1.1.3.4 0 .8-.1 1-.3.3-.2.4-.4.4-.7zM336.9 18.8c-.9 0-1.7-.3-2.3-.9-.6-.6-.8-1.5-.8-2.5v-.3c0-1 .3-1.8.9-2.4s1.3-1 2-1c.9 0 1.6.3 2.1.8s.7 1.3.7 2.2v.8h-4.4c0 .7.2 1.2.5 1.6.3.4.8.6 1.3.6.4 0 .8-.1 1.1-.2.3-.1.6-.3.8-.5l.5.8c-.2.2-.6.4-1 .6-.3.4-.8.4-1.4.4zm-.1-6.1c-.4 0-.8.2-1.1.5-.3.3-.5.8-.5 1.3h3.1v-.2c0-.5-.1-.9-.4-1.2s-.6-.4-1.1-.4zM343.7 17.9c.4 0 .8-.1 1.1-.4.3-.3.5-.6.5-.9h1.1c0 .6-.2 1.1-.8 1.6-.5.5-1.2.7-1.9.7-1 0-1.7-.3-2.3-1-.5-.6-.8-1.5-.8-2.4v-.3c0-1 .3-1.8.8-2.4.5-.6 1.3-1 2.3-1 .8 0 1.4.2 2 .7.5.5.7 1 .7 1.7h-1.1c0-.4-.1-.8-.4-1.1-.3-.3-.7-.4-1.1-.4-.7 0-1.1.2-1.4.7-.3.5-.4 1-.4 1.7v.3c0 .7.1 1.3.4 1.7.2.5.6.8 1.3.8zM350.2 15.3h-3.1v-1h3.1v1zM354.7 18.7h-1.2v-8h-1.9v-.8l3.1-.3v9.1zM359.7 11.9l.1.9c.2-.3.5-.6.8-.8.3-.2.7-.3 1.2-.3s.8.1 1.2.3c.3.2.6.5.7.9.2-.4.5-.7.8-.9.4-.2.8-.3 1.2-.3.7 0 1.2.2 1.6.7.4.5.6 1.2.6 2.1v4.1h-1.2v-4.1c0-.7-.1-1.1-.3-1.4s-.6-.4-1-.4-.8.1-1 .4c-.3.3-.4.7-.5 1.1V18.6h-1.2v-4.1c0-.6-.1-1.1-.4-1.4-.2-.3-.6-.4-1-.4s-.7.1-.9.2c-.2.2-.4.4-.6.7v5h-1.2v-6.8h1.1zM371.2 10.1H370V8.9h1.2v1.2zm0 8.6H370v-6.8h1.2v6.8zM374.2 11.9l.1 1c.2-.4.5-.6.9-.8s.7-.3 1.2-.3c.7 0 1.3.2 1.7.6.4.4.6 1.1.6 2v4.3h-1.2v-4.3c0-.6-.1-1-.4-1.3-.2-.3-.6-.4-1.1-.4-.4 0-.7.1-.9.3-.3.2-.5.4-.7.7v5h-1.2v-6.8h1z"/></g></g><g id="Per._Price"><path class="st1" d="M200 55.2c0-.3-.1-.6-.3-.8s-.5-.4-.9-.6c-.9-.3-1.5-.7-1.9-1.1s-.6-.9-.6-1.6c0-.7.2-1.2.6-1.6s1-.7 1.7-.7v-1.3h.9v1.3c.7.1 1.2.4 1.6.9s.6 1.1.6 1.8H200c0-.5-.1-.8-.3-1.1s-.4-.4-.8-.4c-.3 0-.6.1-.8.3s-.2.5-.2.8c0 .3.1.6.3.7s.5.4 1 .6c.9.3 1.5.7 1.9 1.1s.6.9.6 1.6c0 .7-.2 1.2-.6 1.6s-1 .6-1.7.7v1.2h-.9v-1.2c-.7-.1-1.3-.3-1.8-.8s-.7-1.1-.7-2h1.7c0 .5.1.9.4 1.1s.5.3.9.3.6-.1.8-.3.2-.2.2-.5zM204.5 52.4h1c.4 0 .7-.1.9-.3s.3-.5.3-.9c0-.3-.1-.6-.3-.8s-.5-.3-.8-.3c-.3 0-.6.1-.8.3s-.3.4-.3.7h-1.7c0-.7.2-1.2.8-1.7s1.2-.7 2-.7c.9 0 1.6.2 2.1.6s.8 1 .8 1.8c0 .4-.1.7-.4 1.1s-.6.6-1 .8c.5.2.8.4 1.1.8s.4.8.4 1.2c0 .8-.3 1.4-.9 1.8s-1.3.7-2.2.7c-.8 0-1.5-.2-2-.6s-.8-1-.8-1.8h1.7c0 .3.1.6.4.8.2.2.5.3.9.3s.7-.1.9-.3.3-.5.3-.9-.1-.8-.3-1c-.2-.2-.6-.3-1-.3h-1v-1.3zM215.4 54.1c0 1.1-.3 2-.8 2.6s-1.2.9-2.1.9c-.9 0-1.6-.3-2.1-.9s-.8-1.4-.8-2.6v-1.9c0-1.1.3-2 .8-2.6s1.2-.9 2.1-.9c.9 0 1.6.3 2.1.9s.8 1.4.8 2.6v1.9zm-1.7-2c0-.7-.1-1.2-.3-1.5-.2-.3-.5-.5-.9-.5s-.7.2-.9.5-.3.8-.3 1.5v2.2c0 .7.1 1.2.3 1.5s.5.5.9.5.7-.2.9-.5.3-.8.3-1.5v-2.2zM222.3 54.1c0 1.1-.3 2-.8 2.6s-1.2.9-2.1.9c-.9 0-1.6-.3-2.1-.9s-.8-1.4-.8-2.6v-1.9c0-1.1.3-2 .8-2.6s1.2-.9 2.1-.9c.9 0 1.6.3 2.1.9s.8 1.4.8 2.6v1.9zm-1.7-2c0-.7-.1-1.2-.3-1.5-.2-.3-.5-.5-.9-.5s-.7.2-.9.5-.3.8-.3 1.5v2.2c0 .7.1 1.2.3 1.5s.5.5.9.5.7-.2.9-.5.3-.8.3-1.5v-2.2z"/><g><path class="st1" d="M199 95.2c0-.3-.1-.6-.3-.8s-.5-.4-.9-.6c-.9-.3-1.5-.7-1.9-1.1s-.6-.9-.6-1.6c0-.7.2-1.2.6-1.6s1-.7 1.7-.7v-1.3h.9v1.3c.7.1 1.2.4 1.6.9s.6 1.1.6 1.8H199c0-.5-.1-.8-.3-1.1s-.4-.4-.8-.4c-.3 0-.6.1-.8.3s-.2.5-.2.8c0 .3.1.6.3.7s.5.4 1 .6c.9.3 1.5.7 1.9 1.1s.6.9.6 1.6c0 .7-.2 1.2-.6 1.6s-1 .6-1.7.7v1.2h-.9v-1.2c-.7-.1-1.3-.3-1.8-.8s-.7-1.1-.7-2h1.7c0 .5.1.9.4 1.1s.5.3.9.3.6-.1.8-.3.2-.2.2-.5zM202 93.7l.5-4.8h4.8v1.4h-3.4l-.2 2c.2-.1.3-.2.6-.3s.5-.1.7-.1c.8 0 1.5.2 1.9.7s.7 1.2.7 2.1c0 .8-.2 1.5-.7 2s-1.2.8-2.1.8c-.8 0-1.5-.2-2-.6s-.8-1-.8-1.8l1.6-.1c0 .4.1.7.3.9s.5.3.8.3c.4 0 .7-.1.9-.4s.3-.7.3-1.1c0-.5-.1-.9-.3-1.2-.2-.3-.5-.4-.9-.4-.3 0-.6.1-.8.2s-.3.3-.4.5l-1.5-.1zM214.4 94.1c0 1.1-.3 2-.8 2.6s-1.2.9-2.1.9c-.9 0-1.6-.3-2.1-.9s-.8-1.4-.8-2.6v-1.9c0-1.1.3-2 .8-2.6s1.2-.9 2.1-.9c.9 0 1.6.3 2.1.9s.8 1.4.8 2.6v1.9zm-1.7-2c0-.7-.1-1.2-.3-1.5-.2-.3-.5-.5-.9-.5s-.7.2-.9.5-.3.8-.3 1.5v2.2c0 .7.1 1.2.3 1.5s.5.5.9.5.7-.2.9-.5.3-.8.3-1.5v-2.2zM221.3 94.1c0 1.1-.3 2-.8 2.6s-1.2.9-2.1.9c-.9 0-1.6-.3-2.1-.9s-.8-1.4-.8-2.6v-1.9c0-1.1.3-2 .8-2.6s1.2-.9 2.1-.9c.9 0 1.6.3 2.1.9s.8 1.4.8 2.6v1.9zm-1.7-2c0-.7-.1-1.2-.3-1.5-.2-.3-.5-.5-.9-.5s-.7.2-.9.5-.3.8-.3 1.5v2.2c0 .7.1 1.2.3 1.5s.5.5.9.5.7-.2.9-.5.3-.8.3-1.5v-2.2z"/></g><g><path class="st1" d="M199 135.2c0-.3-.1-.6-.3-.8s-.5-.4-.9-.6c-.9-.3-1.5-.7-1.9-1.1s-.6-.9-.6-1.6c0-.7.2-1.2.6-1.6s1-.7 1.7-.7v-1.3h.9v1.3c.7.1 1.2.4 1.6.9s.6 1.1.6 1.8H199c0-.5-.1-.8-.3-1.1s-.4-.4-.8-.4c-.3 0-.6.1-.8.3s-.2.5-.2.8c0 .3.1.6.3.7s.5.4 1 .6c.9.3 1.5.7 1.9 1.1s.6.9.6 1.6c0 .7-.2 1.2-.6 1.6s-1 .6-1.7.7v1.2h-.9v-1.2c-.7-.1-1.3-.3-1.8-.8s-.7-1.1-.7-2h1.7c0 .5.1.9.4 1.1s.5.3.9.3.6-.1.8-.3.2-.2.2-.5zM202 133.7l.5-4.8h4.8v1.4h-3.4l-.2 2c.2-.1.3-.2.6-.3s.5-.1.7-.1c.8 0 1.5.2 1.9.7s.7 1.2.7 2.1c0 .8-.2 1.5-.7 2s-1.2.8-2.1.8c-.8 0-1.5-.2-2-.6s-.8-1-.8-1.8l1.6-.1c0 .4.1.7.3.9s.5.3.8.3c.4 0 .7-.1.9-.4s.3-.7.3-1.1c0-.5-.1-.9-.3-1.2-.2-.3-.5-.4-.9-.4-.3 0-.6.1-.8.2s-.3.3-.4.5l-1.5-.1zM214.4 134.1c0 1.1-.3 2-.8 2.6s-1.2.9-2.1.9c-.9 0-1.6-.3-2.1-.9s-.8-1.4-.8-2.6v-1.9c0-1.1.3-2 .8-2.6s1.2-.9 2.1-.9c.9 0 1.6.3 2.1.9s.8 1.4.8 2.6v1.9zm-1.7-2c0-.7-.1-1.2-.3-1.5-.2-.3-.5-.5-.9-.5s-.7.2-.9.5-.3.8-.3 1.5v2.2c0 .7.1 1.2.3 1.5s.5.5.9.5.7-.2.9-.5.3-.8.3-1.5v-2.2zM221.3 134.1c0 1.1-.3 2-.8 2.6s-1.2.9-2.1.9c-.9 0-1.6-.3-2.1-.9s-.8-1.4-.8-2.6v-1.9c0-1.1.3-2 .8-2.6s1.2-.9 2.1-.9c.9 0 1.6.3 2.1.9s.8 1.4.8 2.6v1.9zm-1.7-2c0-.7-.1-1.2-.3-1.5-.2-.3-.5-.5-.9-.5s-.7.2-.9.5-.3.8-.3 1.5v2.2c0 .7.1 1.2.3 1.5s.5.5.9.5.7-.2.9-.5.3-.8.3-1.5v-2.2z"/></g><g><path class="st1" d="M199 175.2c0-.3-.1-.6-.3-.8s-.5-.4-.9-.6c-.9-.3-1.5-.7-1.9-1.1s-.6-.9-.6-1.6c0-.7.2-1.2.6-1.6s1-.7 1.7-.7v-1.3h.9v1.3c.7.1 1.2.4 1.6.9s.6 1.1.6 1.8H199c0-.5-.1-.8-.3-1.1s-.4-.4-.8-.4c-.3 0-.6.1-.8.3s-.2.5-.2.8c0 .3.1.6.3.7s.5.4 1 .6c.9.3 1.5.7 1.9 1.1s.6.9.6 1.6c0 .7-.2 1.2-.6 1.6s-1 .6-1.7.7v1.2h-.9v-1.2c-.7-.1-1.3-.3-1.8-.8s-.7-1.1-.7-2h1.7c0 .5.1.9.4 1.1s.5.3.9.3.6-.1.8-.3.2-.2.2-.5zM207.6 170.2c-.9 1.1-1.5 2.1-1.9 3s-.6 2-.7 3.4l-.1.9h-1.7l.1-.9c.1-1.3.4-2.4.9-3.5s1-2 1.8-2.9h-4.4v-1.3h6v1.3zM214.4 174.1c0 1.1-.3 2-.8 2.6s-1.2.9-2.1.9c-.9 0-1.6-.3-2.1-.9s-.8-1.4-.8-2.6v-1.9c0-1.1.3-2 .8-2.6s1.2-.9 2.1-.9c.9 0 1.6.3 2.1.9s.8 1.4.8 2.6v1.9zm-1.7-2c0-.7-.1-1.2-.3-1.5-.2-.3-.5-.5-.9-.5s-.7.2-.9.5c-.2.3-.3.8-.3 1.5v2.2c0 .7.1 1.2.3 1.5.2.3.5.5.9.5s.7-.2.9-.5c.2-.3.3-.8.3-1.5v-2.2zM221.3 174.1c0 1.1-.3 2-.8 2.6s-1.2.9-2.1.9c-.9 0-1.6-.3-2.1-.9s-.8-1.4-.8-2.6v-1.9c0-1.1.3-2 .8-2.6s1.2-.9 2.1-.9c.9 0 1.6.3 2.1.9s.8 1.4.8 2.6v1.9zm-1.7-2c0-.7-.1-1.2-.3-1.5-.2-.3-.5-.5-.9-.5s-.7.2-.9.5c-.2.3-.3.8-.3 1.5v2.2c0 .7.1 1.2.3 1.5.2.3.5.5.9.5s.7-.2.9-.5c.2-.3.3-.8.3-1.5v-2.2z"/></g></g><g id="Comm._Price"><path class="st1" d="M338 175.2c0-.3-.1-.6-.3-.8s-.5-.4-.9-.6c-.9-.3-1.5-.7-1.9-1.1s-.6-.9-.6-1.6c0-.7.2-1.2.6-1.6s1-.7 1.7-.7v-1.3h.9v1.3c.7.1 1.2.4 1.6.9s.6 1.1.6 1.8H338c0-.5-.1-.8-.3-1.1s-.4-.4-.8-.4c-.3 0-.6.1-.8.3s-.2.5-.2.8c0 .3.1.6.3.7s.5.4 1 .6c.9.3 1.5.7 1.9 1.1s.6.9.6 1.6c0 .7-.2 1.2-.6 1.6s-1 .6-1.7.7v1.2h-.9v-1.2c-.7-.1-1.3-.3-1.8-.8s-.7-1.1-.7-2h1.7c0 .5.1.9.4 1.1s.5.3.9.3.6-.1.8-.3.2-.2.2-.5zM346.6 170.2c-.9 1.1-1.5 2.1-1.9 3s-.6 2-.7 3.4l-.1.9h-1.7l.1-.9c.1-1.3.4-2.4.9-3.5s1-2 1.8-2.9h-4.4v-1.3h6v1.3zM347.9 173.7l.5-4.8h4.8v1.4h-3.4l-.2 2c.2-.1.3-.2.6-.3s.5-.1.7-.1c.8 0 1.5.2 1.9.7s.7 1.2.7 2.1c0 .8-.2 1.5-.7 2s-1.2.8-2.1.8c-.8 0-1.5-.2-2-.6s-.8-1-.8-1.8l1.6-.1c0 .4.1.7.3.9s.5.3.8.3c.4 0 .7-.1.9-.4s.3-.7.3-1.1c0-.5-.1-.9-.3-1.2s-.5-.4-.9-.4c-.3 0-.6.1-.8.2s-.3.3-.4.5l-1.5-.1zM360.3 174.1c0 1.1-.3 2-.8 2.6s-1.2.9-2.1.9c-.9 0-1.6-.3-2.1-.9s-.8-1.4-.8-2.6v-1.9c0-1.1.3-2 .8-2.6s1.2-.9 2.1-.9c.9 0 1.6.3 2.1.9s.8 1.4.8 2.6v1.9zm-1.7-2c0-.7-.1-1.2-.3-1.5-.2-.3-.5-.5-.9-.5s-.7.2-.9.5c-.2.3-.3.8-.3 1.5v2.2c0 .7.1 1.2.3 1.5.2.3.5.5.9.5s.7-.2.9-.5c.2-.3.3-.8.3-1.5v-2.2zM364.9 172.7h2.1v1.5h-2.1v2.4h-1.6v-2.4h-2.1v-1.5h2.1v-2.3h1.6v2.3z"/><g><path class="st1" d="M338 135.2c0-.3-.1-.6-.3-.8s-.5-.4-.9-.6c-.9-.3-1.5-.7-1.9-1.1s-.6-.9-.6-1.6c0-.7.2-1.2.6-1.6s1-.7 1.7-.7v-1.3h.9v1.3c.7.1 1.2.4 1.6.9s.6 1.1.6 1.8H338c0-.5-.1-.8-.3-1.1s-.4-.4-.8-.4c-.3 0-.6.1-.8.3s-.2.5-.2.8c0 .3.1.6.3.7s.5.4 1 .6c.9.3 1.5.7 1.9 1.1s.6.9.6 1.6c0 .7-.2 1.2-.6 1.6s-1 .6-1.7.7v1.2h-.9v-1.2c-.7-.1-1.3-.3-1.8-.8s-.7-1.1-.7-2h1.7c0 .5.1.9.4 1.1s.5.3.9.3.6-.1.8-.3.2-.2.2-.5zM341 133.7l.5-4.8h4.8v1.4h-3.4l-.2 2c.2-.1.3-.2.6-.3s.5-.1.7-.1c.8 0 1.5.2 1.9.7s.7 1.2.7 2.1c0 .8-.2 1.5-.7 2s-1.2.8-2.1.8c-.8 0-1.5-.2-2-.6s-.8-1-.8-1.8l1.6-.1c0 .4.1.7.3.9s.5.3.8.3c.4 0 .7-.1.9-.4s.3-.7.3-1.1c0-.5-.1-.9-.3-1.2-.2-.3-.5-.4-.9-.4-.3 0-.6.1-.8.2s-.3.3-.4.5l-1.5-.1zM347.9 133.7l.5-4.8h4.8v1.4h-3.4l-.2 2c.2-.1.3-.2.6-.3s.5-.1.7-.1c.8 0 1.5.2 1.9.7s.7 1.2.7 2.1c0 .8-.2 1.5-.7 2s-1.2.8-2.1.8c-.8 0-1.5-.2-2-.6s-.8-1-.8-1.8l1.6-.1c0 .4.1.7.3.9s.5.3.8.3c.4 0 .7-.1.9-.4s.3-.7.3-1.1c0-.5-.1-.9-.3-1.2-.2-.3-.5-.4-.9-.4-.3 0-.6.1-.8.2s-.3.3-.4.5l-1.5-.1zM360.3 134.1c0 1.1-.3 2-.8 2.6s-1.2.9-2.1.9c-.9 0-1.6-.3-2.1-.9s-.8-1.4-.8-2.6v-1.9c0-1.1.3-2 .8-2.6s1.2-.9 2.1-.9c.9 0 1.6.3 2.1.9s.8 1.4.8 2.6v1.9zm-1.7-2c0-.7-.1-1.2-.3-1.5-.2-.3-.5-.5-.9-.5s-.7.2-.9.5-.3.8-.3 1.5v2.2c0 .7.1 1.2.3 1.5s.5.5.9.5.7-.2.9-.5.3-.8.3-1.5v-2.2zM364.9 132.7h2.1v1.5h-2.1v2.4h-1.6v-2.4h-2.1v-1.5h2.1v-2.3h1.6v2.3z"/></g><g><path class="st1" d="M338 95.2c0-.3-.1-.6-.3-.8s-.5-.4-.9-.6c-.9-.3-1.5-.7-1.9-1.1s-.6-.9-.6-1.6c0-.7.2-1.2.6-1.6s1-.7 1.7-.7v-1.3h.9v1.3c.7.1 1.2.4 1.6.9s.6 1.1.6 1.8H338c0-.5-.1-.8-.3-1.1s-.4-.4-.8-.4c-.3 0-.6.1-.8.3s-.2.5-.2.8c0 .3.1.6.3.7s.5.4 1 .6c.9.3 1.5.7 1.9 1.1s.6.9.6 1.6c0 .7-.2 1.2-.6 1.6s-1 .6-1.7.7v1.2h-.9v-1.2c-.7-.1-1.3-.3-1.8-.8s-.7-1.1-.7-2h1.7c0 .5.1.9.4 1.1s.5.3.9.3.6-.1.8-.3.2-.2.2-.5zM341 93.7l.5-4.8h4.8v1.4h-3.4l-.2 2c.2-.1.3-.2.6-.3s.5-.1.7-.1c.8 0 1.5.2 1.9.7s.7 1.2.7 2.1c0 .8-.2 1.5-.7 2s-1.2.8-2.1.8c-.8 0-1.5-.2-2-.6s-.8-1-.8-1.8l1.6-.1c0 .4.1.7.3.9s.5.3.8.3c.4 0 .7-.1.9-.4s.3-.7.3-1.1c0-.5-.1-.9-.3-1.2-.2-.3-.5-.4-.9-.4-.3 0-.6.1-.8.2s-.3.3-.4.5l-1.5-.1zM347.9 93.7l.5-4.8h4.8v1.4h-3.4l-.2 2c.2-.1.3-.2.6-.3s.5-.1.7-.1c.8 0 1.5.2 1.9.7s.7 1.2.7 2.1c0 .8-.2 1.5-.7 2s-1.2.8-2.1.8c-.8 0-1.5-.2-2-.6s-.8-1-.8-1.8l1.6-.1c0 .4.1.7.3.9s.5.3.8.3c.4 0 .7-.1.9-.4s.3-.7.3-1.1c0-.5-.1-.9-.3-1.2-.2-.3-.5-.4-.9-.4-.3 0-.6.1-.8.2s-.3.3-.4.5l-1.5-.1zM360.3 94.1c0 1.1-.3 2-.8 2.6s-1.2.9-2.1.9c-.9 0-1.6-.3-2.1-.9s-.8-1.4-.8-2.6v-1.9c0-1.1.3-2 .8-2.6s1.2-.9 2.1-.9c.9 0 1.6.3 2.1.9s.8 1.4.8 2.6v1.9zm-1.7-2c0-.7-.1-1.2-.3-1.5-.2-.3-.5-.5-.9-.5s-.7.2-.9.5-.3.8-.3 1.5v2.2c0 .7.1 1.2.3 1.5s.5.5.9.5.7-.2.9-.5.3-.8.3-1.5v-2.2zM364.9 92.7h2.1v1.5h-2.1v2.4h-1.6v-2.4h-2.1v-1.5h2.1v-2.3h1.6v2.3z"/></g><g><path class="st1" d="M338 55.2c0-.3-.1-.6-.3-.8s-.5-.4-.9-.6c-.9-.3-1.5-.7-1.9-1.1s-.6-.9-.6-1.6c0-.7.2-1.2.6-1.6s1-.7 1.7-.7v-1.3h.9v1.3c.7.1 1.2.4 1.6.9s.6 1.1.6 1.8H338c0-.5-.1-.8-.3-1.1s-.4-.4-.8-.4c-.3 0-.6.1-.8.3s-.2.5-.2.8c0 .3.1.6.3.7s.5.4 1 .6c.9.3 1.5.7 1.9 1.1s.6.9.6 1.6c0 .7-.2 1.2-.6 1.6s-1 .6-1.7.7v1.2h-.9v-1.2c-.7-.1-1.3-.3-1.8-.8s-.7-1.1-.7-2h1.7c0 .5.1.9.4 1.1s.5.3.9.3.6-.1.8-.3.2-.2.2-.5zM342.5 52.4h1c.4 0 .7-.1.9-.3s.3-.5.3-.9c0-.3-.1-.6-.3-.8s-.5-.3-.8-.3c-.3 0-.6.1-.8.3s-.3.4-.3.7h-1.7c0-.7.2-1.2.8-1.7s1.2-.7 2-.7c.9 0 1.6.2 2.1.6s.8 1 .8 1.8c0 .4-.1.7-.4 1.1s-.6.6-1 .8c.5.2.8.4 1.1.8s.4.8.4 1.2c0 .8-.3 1.4-.9 1.8s-1.3.7-2.2.7c-.8 0-1.5-.2-2-.6s-.8-1-.8-1.8h1.7c0 .3.1.6.4.8.2.2.5.3.9.3s.7-.1.9-.3.3-.5.3-.9-.1-.8-.3-1c-.2-.2-.6-.3-1-.3h-1v-1.3zM347.9 53.7l.5-4.8h4.8v1.4h-3.4l-.2 2c.2-.1.3-.2.6-.3s.5-.1.7-.1c.8 0 1.5.2 1.9.7s.7 1.2.7 2.1c0 .8-.2 1.5-.7 2s-1.2.8-2.1.8c-.8 0-1.5-.2-2-.6s-.8-1-.8-1.8l1.6-.1c0 .4.1.7.3.9s.5.3.8.3c.4 0 .7-.1.9-.4s.3-.7.3-1.1c0-.5-.1-.9-.3-1.2-.2-.3-.5-.4-.9-.4-.3 0-.6.1-.8.2s-.3.3-.4.5l-1.5-.1zM360.3 54.1c0 1.1-.3 2-.8 2.6s-1.2.9-2.1.9c-.9 0-1.6-.3-2.1-.9s-.8-1.4-.8-2.6v-1.9c0-1.1.3-2 .8-2.6s1.2-.9 2.1-.9c.9 0 1.6.3 2.1.9s.8 1.4.8 2.6v1.9zm-1.7-2c0-.7-.1-1.2-.3-1.5-.2-.3-.5-.5-.9-.5s-.7.2-.9.5-.3.8-.3 1.5v2.2c0 .7.1 1.2.3 1.5s.5.5.9.5.7-.2.9-.5.3-.8.3-1.5v-2.2zM364.9 52.7h2.1v1.5h-2.1v2.4h-1.6v-2.4h-2.1v-1.5h2.1v-2.3h1.6v2.3z"/></g></g><path d="M190.4 202.6l-1.3-.4.2-.7 1.3.5v-1.5h.7v1.5l1.3-.5.2.7-1.3.4.8 1.2-.6.4-.8-1.2-.8 1.2-.6-.4.9-1.2zM197 205.2h-2.6l-.6 1.6h-.9l2.4-6.3h.7l2.4 6.3h-.9l-.5-1.6zm-2.4-.7h2.1l-1-2.9-1.1 2.9zM200.1 206.8h-.9V200h.9v6.8zM202.3 206.8h-.9V200h.9v6.8zM209.9 204.7c0 .7-.2 1.2-.5 1.6-.3.4-.8.6-1.3.6-.3 0-.5 0-.8-.1-.2-.1-.4-.2-.6-.4v2.3h-.9v-6.5h.7l.1.6c.2-.2.3-.4.6-.5.2-.1.5-.2.8-.2.6 0 1 .2 1.4.7s.5 1 .5 1.9zm-.9-.1c0-.5-.1-1-.3-1.3s-.5-.5-.9-.5c-.2 0-.5.1-.6.2s-.3.3-.4.5v2.3c.1.2.2.3.4.5s.4.2.6.2c.4 0 .7-.1.9-.4.2-.6.3-1 .3-1.5zM213.1 202.9h-.4c-.2 0-.4.1-.6.2-.2.1-.3.3-.4.5v3.4h-.9v-4.7h.8l.1.7c.1-.2.3-.4.5-.6s.4-.2.7-.2H213.2l-.1.7zM214.9 200.9h-.9v-.9h.9v.9zm0 5.9h-.9v-4.7h.9v4.7zM218.1 206.3c.3 0 .5-.1.7-.3.2-.2.3-.4.3-.6h.8c0 .4-.2.8-.5 1.1s-.8.5-1.3.5c-.7 0-1.2-.2-1.6-.7-.4-.4-.5-1-.5-1.7v-.2c0-.7.2-1.2.5-1.7s.9-.7 1.6-.7c.5 0 1 .2 1.3.5.3.3.5.7.5 1.2h-.8c0-.3-.1-.5-.3-.7s-.5-.3-.8-.3c-.4 0-.8.2-1 .5-.2.3-.3.7-.3 1.2v.2c0 .5.1.9.3 1.2.3.3.7.5 1.1.5zM222.9 206.9c-.7 0-1.2-.2-1.6-.7-.4-.4-.6-1-.6-1.7v-.2c0-.7.2-1.2.6-1.7s.9-.7 1.4-.7c.6 0 1.1.2 1.4.6s.5.9.5 1.5v.5h-3c0 .5.1.8.3 1.1.2.3.5.4.9.4.3 0 .5 0 .8-.1l.6-.3.3.6c-.2.2-.4.3-.7.4-.2.3-.5.3-.9.3zm-.2-4.2c-.3 0-.5.1-.7.4-.2.2-.3.5-.4.9h2.2v-.1c0-.3-.1-.6-.3-.8-.1-.3-.4-.4-.8-.4zM228.4 205.6c0-.2-.1-.3-.2-.5-.1-.1-.4-.2-.8-.3-.6-.1-1-.3-1.3-.5-.3-.2-.4-.5-.4-.9s.2-.7.5-1 .7-.4 1.3-.4c.5 0 1 .1 1.3.4.3.3.5.6.5 1h-.8c0-.2-.1-.4-.3-.6-.2-.2-.4-.2-.7-.2-.3 0-.5.1-.7.2-.1.1-.2.3-.2.5s.1.3.2.4c.1.1.4.2.8.3.6.1 1 .3 1.3.5s.4.5.4.9-.2.8-.5 1-.8.4-1.3.4c-.6 0-1.1-.2-1.4-.5-.3-.3-.5-.7-.5-1.1h.8c0 .3.1.5.3.7.2.1.5.2.7.2.3 0 .5-.1.7-.2s.3-.1.3-.3zM232.3 204.6c0-.8.2-1.4.5-1.8.3-.5.8-.7 1.4-.7.3 0 .5.1.7.2.2.1.4.2.5.4v-2.6h.9v6.8h-.7l-.1-.6c-.2.2-.3.4-.6.5-.2.1-.5.2-.8.2-.6 0-1-.2-1.3-.6-.3-.5-.5-1.1-.5-1.8zm.9.1c0 .5.1.9.3 1.1s.5.4.9.4c.3 0 .5-.1.6-.2.2-.1.3-.3.4-.5v-2.2c-.1-.2-.3-.3-.4-.5-.2-.1-.4-.2-.6-.2-.4 0-.7.2-.9.5-.3.5-.3.9-.3 1.6zM239.5 206.9c-.7 0-1.2-.2-1.6-.7-.4-.4-.6-1-.6-1.7v-.2c0-.7.2-1.2.6-1.7s.9-.7 1.4-.7c.6 0 1.1.2 1.4.6s.5.9.5 1.5v.5h-3c0 .5.1.8.3 1.1.2.3.5.4.9.4.3 0 .5 0 .8-.1l.6-.3.3.6c-.2.2-.4.3-.7.4-.2.3-.5.3-.9.3zm-.1-4.2c-.3 0-.5.1-.7.4-.2.2-.3.5-.4.9h2.2v-.1c0-.3-.1-.6-.3-.8-.2-.3-.5-.4-.8-.4zM246.3 204.7c0 .7-.2 1.2-.5 1.6-.3.4-.8.6-1.3.6-.3 0-.5 0-.8-.1-.2-.1-.4-.2-.6-.4v2.3h-.9v-6.5h.7l.1.6c.2-.2.3-.4.6-.5.2-.1.5-.2.8-.2.6 0 1 .2 1.4.7.3.4.5 1 .5 1.9zm-.9-.1c0-.5-.1-1-.3-1.3s-.5-.5-.9-.5c-.2 0-.5.1-.6.2s-.3.3-.4.5v2.3c.1.2.2.3.4.5s.4.2.6.2c.4 0 .7-.1.9-.4.2-.6.3-1 .3-1.5zM249.3 206.9c-.7 0-1.2-.2-1.6-.7s-.6-1-.6-1.7v-.2c0-.7.2-1.2.6-1.7.4-.4.9-.7 1.4-.7.6 0 1.1.2 1.4.6s.5.9.5 1.5v.5h-3c0 .5.1.8.3 1.1.2.3.5.4.9.4.3 0 .5 0 .8-.1l.6-.3.3.6c-.2.2-.4.3-.7.4-.2.3-.6.3-.9.3zm-.2-4.2c-.3 0-.5.1-.7.4-.2.2-.3.5-.4.9h2.2v-.1c0-.3-.1-.6-.3-.8-.2-.3-.4-.4-.8-.4zM252.8 202.1l.1.7.6-.6c.2-.1.5-.2.8-.2.5 0 .9.1 1.2.4.3.3.4.8.4 1.4v3h-.9v-2.9c0-.4-.1-.7-.2-.9-.2-.2-.4-.3-.7-.3-.2 0-.5.1-.7.2-.2.1-.3.3-.5.5v3.4h-.9v-4.7h.8zM256.9 204.6c0-.8.2-1.4.5-1.8.3-.5.8-.7 1.4-.7.3 0 .5.1.7.2.2.1.4.2.5.4v-2.6h.9v6.8h-.7l-.1-.6c-.2.2-.3.4-.6.5s-.5.2-.8.2c-.6 0-1-.2-1.3-.6-.4-.5-.5-1.1-.5-1.8zm.8.1c0 .5.1.9.3 1.1.2.3.5.4.9.4.3 0 .5-.1.6-.2.2-.1.3-.3.4-.5v-2.2c-.1-.2-.3-.3-.4-.5s-.4-.2-.6-.2c-.4 0-.7.2-.9.5-.2.5-.3.9-.3 1.6zM264.1 204.4c0-.7.2-1.3.6-1.7.4-.4.9-.7 1.5-.7.7 0 1.2.2 1.5.7.4.4.6 1 .6 1.7v.1c0 .7-.2 1.3-.6 1.7-.4.4-.9.7-1.5.7s-1.2-.2-1.5-.7c-.4-.4-.6-1-.6-1.8zm.9.1c0 .5.1.9.3 1.2.2.3.5.5.9.5s.7-.2.9-.5c.2-.3.3-.7.3-1.2v-.1c0-.5-.1-.9-.3-1.2s-.5-.5-.9-.5-.7.2-.9.5-.3.8-.3 1.3zM270.1 202.1l.1.7.6-.6c.2-.1.5-.2.8-.2.5 0 .9.1 1.2.4s.4.8.4 1.4v3h-.9v-2.9c0-.4-.1-.7-.2-.9-.2-.2-.4-.3-.7-.3-.2 0-.5.1-.7.2-.2.1-.3.3-.5.5v3.4h-.9v-4.7h.8zM278.6 206.9c-.7 0-1.2-.2-1.6-.7s-.6-1-.6-1.7v-.2c0-.7.2-1.2.6-1.7.4-.4.9-.7 1.4-.7.6 0 1.1.2 1.4.6s.5.9.5 1.5v.5h-3c0 .5.1.8.3 1.1.2.3.5.4.9.4.3 0 .5 0 .8-.1l.6-.3.3.6c-.2.2-.4.3-.7.4-.2.3-.5.3-.9.3zm-.1-4.2c-.3 0-.5.1-.7.4-.2.2-.3.5-.4.9h2.2v-.1c0-.3-.1-.6-.3-.8-.2-.3-.5-.4-.8-.4zM284.2 206.8c0-.1-.1-.3-.1-.4v-.3l-.6.6c-.2.2-.5.2-.8.2-.5 0-.9-.1-1.1-.4-.3-.3-.4-.6-.4-1s.2-.8.5-1.1.9-.4 1.5-.4h.9v-.5c0-.3-.1-.5-.3-.7-.2-.2-.4-.2-.7-.2-.3 0-.5.1-.7.2-.2.1-.3.3-.3.5h-.8c0-.3.1-.7.5-.9.3-.3.8-.4 1.3-.4s1 .1 1.3.4.5.7.5 1.2v2.8c0 .2 0 .3.1.5h-.8zm-1.4-.6c.3 0 .6-.1.8-.2.2-.2.4-.3.5-.5v-.8h-1c-.3 0-.6.1-.8.3-.2.2-.3.4-.3.6 0 .2.1.4.2.5.2.1.4.1.6.1zM288.1 206.3c.3 0 .5-.1.7-.3.2-.2.3-.4.3-.6h.8c0 .4-.2.8-.5 1.1s-.8.5-1.3.5c-.7 0-1.2-.2-1.6-.7-.4-.4-.5-1-.5-1.7v-.2c0-.7.2-1.2.5-1.7s.9-.7 1.6-.7c.5 0 1 .2 1.3.5s.5.7.5 1.2h-.8c0-.3-.1-.5-.3-.7-.2-.2-.5-.3-.8-.3-.4 0-.8.2-1 .5-.2.3-.3.7-.3 1.2v.2c0 .5.1.9.3 1.2.4.3.7.5 1.1.5zM291.8 202.8c.2-.2.4-.4.6-.5.2-.1.5-.2.8-.2.5 0 .9.2 1.2.5.3.3.4.8.4 1.4v2.9h-.9v-3c0-.4-.1-.7-.2-.9-.2-.2-.4-.3-.7-.3-.2 0-.5.1-.6.2s-.4.3-.5.5v3.5h-.9v-6.8h.9v2.7zM299.1 200.9h-.9v-.9h.9v.9zm0 5.9h-.9v-4.7h.9v4.7zM301.2 202.1l.1.7.6-.6c.2-.1.5-.2.8-.2.5 0 .9.1 1.2.4s.4.8.4 1.4v3h-.9v-2.9c0-.4-.1-.7-.2-.9-.2-.2-.4-.3-.7-.3-.2 0-.5.1-.7.2-.2.1-.3.3-.5.5v3.4h-.9v-4.7h.8zM305.3 204.6c0-.8.2-1.4.5-1.8.3-.5.8-.7 1.4-.7.3 0 .5.1.7.2.2.1.4.2.5.4v-2.6h.9v6.8h-.7l-.1-.6c-.2.2-.3.4-.6.5s-.5.2-.8.2c-.6 0-1-.2-1.3-.6-.3-.5-.5-1.1-.5-1.8zm.9.1c0 .5.1.9.3 1.1.2.3.5.4.9.4.3 0 .5-.1.6-.2.2-.1.3-.3.4-.5v-2.2c-.1-.2-.3-.3-.4-.5-.2-.1-.4-.2-.6-.2-.4 0-.7.2-.9.5-.2.5-.3.9-.3 1.6zM311.5 200.9h-.9v-.9h.9v.9zm0 5.9h-.9v-4.7h.9v4.7zM314.4 205.5l.1.3.1-.3 1.1-3.3h.9l-1.7 4.7h-.6l-1.7-4.7h.9l.9 3.3zM318.2 200.9h-.9v-.9h.9v.9zm0 5.9h-.9v-4.7h.9v4.7zM319.3 204.6c0-.8.2-1.4.5-1.8.3-.5.8-.7 1.4-.7.3 0 .5.1.7.2.2.1.4.2.5.4v-2.6h.9v6.8h-.7l-.1-.6c-.2.2-.3.4-.6.5s-.5.2-.8.2c-.6 0-1-.2-1.3-.6-.3-.5-.5-1.1-.5-1.8zm.9.1c0 .5.1.9.3 1.1.2.3.5.4.9.4.3 0 .5-.1.6-.2.2-.1.3-.3.4-.5v-2.2c-.1-.2-.3-.3-.4-.5-.2-.1-.4-.2-.6-.2-.4 0-.7.2-.9.5-.2.5-.3.9-.3 1.6zM327.6 206.1c-.1.3-.3.4-.6.6-.2.1-.5.2-.8.2-.5 0-.9-.2-1.2-.5-.3-.3-.4-.8-.4-1.5v-2.8h.9v2.8c0 .5.1.8.2 1s.4.3.7.3c.3 0 .6-.1.8-.2s.3-.3.4-.5v-3.4h.9v4.7h-.8l-.1-.7zM332.5 206.8c0-.1-.1-.3-.1-.4v-.3l-.6.6c-.2.2-.5.2-.8.2-.5 0-.9-.1-1.1-.4-.3-.3-.4-.6-.4-1s.2-.8.5-1.1.9-.4 1.5-.4h.9v-.5c0-.3-.1-.5-.3-.7-.2-.2-.4-.2-.7-.2-.3 0-.5.1-.7.2-.2.1-.3.3-.3.5h-.8c0-.3.1-.7.5-.9.3-.3.8-.4 1.3-.4s1 .1 1.3.4.5.7.5 1.2v2.8c0 .2 0 .3.1.5h-.8zm-1.4-.6c.3 0 .6-.1.8-.2.2-.2.4-.3.5-.5v-.8h-1c-.3 0-.6.1-.8.3-.2.2-.3.4-.3.6 0 .2.1.4.2.5.2.1.3.1.6.1zM335.4 206.8h-.9V200h.9v6.8zM343 204.7c0 .7-.2 1.2-.5 1.6-.3.4-.8.6-1.3.6-.3 0-.5 0-.8-.1-.2-.1-.4-.2-.6-.4v2.3h-.8v-6.5h.7l.1.6c.2-.2.3-.4.6-.5.2-.1.5-.2.8-.2.6 0 1 .2 1.4.7.2.4.4 1 .4 1.9zm-.9-.1c0-.5-.1-1-.3-1.3s-.5-.5-.9-.5c-.2 0-.5.1-.6.2s-.3.3-.4.5v2.3c.1.2.2.3.4.5s.4.2.6.2c.4 0 .7-.1.9-.4.2-.6.3-1 .3-1.5zM346.2 202.9h-.4c-.2 0-.4.1-.6.2-.2.1-.3.3-.4.5v3.4h-.8v-4.7h.8l.1.7c.1-.2.3-.4.5-.6.2-.1.4-.2.7-.2H346.4l-.2.7zM346.8 204.4c0-.7.2-1.3.6-1.7.4-.4.9-.7 1.5-.7.7 0 1.2.2 1.5.7.4.4.6 1 .6 1.7v.1c0 .7-.2 1.3-.6 1.7-.4.4-.9.7-1.5.7s-1.2-.2-1.5-.7c-.4-.4-.6-1-.6-1.8zm.8.1c0 .5.1.9.3 1.2.2.3.5.5.9.5s.7-.2.9-.5c.2-.3.3-.7.3-1.2v-.1c0-.5-.1-.9-.3-1.2s-.5-.5-.9-.5-.7.2-.9.5-.3.8-.3 1.3zM353 202.1v5.1c0 .5-.1.9-.4 1.1-.2.3-.6.4-1 .4h-.2c-.1 0-.2 0-.2-.1l.1-.7h.4c.2 0 .3-.1.4-.2.1-.1.2-.3.2-.6V202h.7zm0-1.2h-.9v-.9h.9v.9zM356.3 206.9c-.7 0-1.2-.2-1.6-.7s-.6-1-.6-1.7v-.2c0-.7.2-1.2.6-1.7.4-.4.9-.7 1.4-.7.6 0 1.1.2 1.4.6s.5.9.5 1.5v.5h-3c0 .5.1.8.3 1.1.2.3.5.4.9.4.3 0 .5 0 .8-.1l.6-.3.3.6c-.2.2-.4.3-.7.4-.2.3-.5.3-.9.3zm-.1-4.2c-.3 0-.5.1-.7.4-.2.2-.3.5-.4.9h2.2v-.1c0-.3-.1-.6-.3-.8-.2-.3-.5-.4-.8-.4zM361 206.3c.3 0 .5-.1.7-.3.2-.2.3-.4.3-.6h.8c0 .4-.2.8-.5 1.1s-.8.5-1.3.5c-.7 0-1.2-.2-1.6-.7-.4-.4-.5-1-.5-1.7v-.2c0-.7.2-1.2.5-1.7s.9-.7 1.6-.7c.5 0 1 .2 1.3.5s.5.7.5 1.2h-.8c0-.3-.1-.5-.3-.7-.2-.2-.5-.3-.8-.3-.4 0-.8.2-1 .5-.2.3-.3.7-.3 1.2v.2c0 .5.1.9.3 1.2.3.3.6.5 1.1.5zM364.9 201v1.1h.9v.6h-.9v2.9c0 .2 0 .4.1.5s.2.1.4.1h.4l.1.6c-.1.1-.2.1-.3.1h-.4c-.3 0-.6-.1-.8-.3-.2-.2-.3-.5-.3-1v-2.9h-.7v-.6h.7V201h.8zM367.8 206.8h-.9v-.8h.9v.8z"/></svg>