<svg id="_x23_1" xmlns="http://www.w3.org/2000/svg" viewBox="0 0 428.7 230"><style>.st0{fill:#6da2a3}.st1{fill:#859f24}</style><g id="Left_Text"><path d="M14.2 58.2h4.2v.6h-4.9v-8.5h.7v7.9zM19.2 55.5c0-.9.3-1.7.8-2.3s1.2-.9 2-.9 1.5.3 2 .9.8 1.4.8 2.3v.2c0 .9-.3 1.7-.8 2.3s-1.2.9-2 .9c-.9 0-1.5-.3-2-.9s-.8-1.4-.8-2.3v-.2zm.7.2c0 .7.2 1.4.6 1.8s.9.7 1.6.7c.7 0 1.2-.2 1.5-.7s.6-1.1.6-1.8v-.2c0-.7-.2-1.3-.6-1.8s-.9-.8-1.5-.8-1.2.3-1.5.8-.6 1.1-.6 1.8v.2zM26 55.7c0-1 .2-1.8.6-2.4s1-.9 1.8-.9c.4 0 .8.1 1.2.3s.6.5.8.8l.1-1h.6v6.3c0 .8-.2 1.5-.7 1.9s-1.1.7-1.9.7c-.3 0-.6 0-1-.1s-.6-.2-.9-.3l.2-.6c.2.1.5.2.8.3s.6.1.9.1c.6 0 1.1-.2 1.4-.5s.5-.8.5-1.5V58c-.2.3-.5.6-.8.7s-.7.3-1.1.3c-.8 0-1.4-.3-1.8-.8s-.7-1.5-.7-2.4v-.1zm.7.1c0 .8.2 1.4.5 1.8s.8.7 1.4.7c.5 0 .8-.1 1.1-.3.3-.2.5-.5.7-.9v-2.9c-.2-.4-.4-.7-.7-.9-.3-.2-.7-.4-1.2-.4-.6 0-1.1.3-1.4.8s-.5 1.2-.5 2v.1zM32.6 55.5c0-.9.3-1.7.8-2.3s1.2-.9 2-.9 1.5.3 2 .9.8 1.4.8 2.3v.2c0 .9-.3 1.7-.8 2.3s-1.2.9-2 .9c-.9 0-1.5-.3-2-.9s-.8-1.4-.8-2.3v-.2zm.7.2c0 .7.2 1.4.6 1.8s.9.7 1.6.7c.7 0 1.2-.2 1.5-.7s.6-1.1.6-1.8v-.2c0-.7-.2-1.3-.6-1.8s-.9-.8-1.5-.8-1.2.3-1.5.8-.6 1.1-.6 1.8v.2zM39.5 59.5h-.6l3.6-9.3h.6l-3.6 9.3zM45.4 58.8h-.7v-8.5h.7v8.5zM48.3 52.4l.1 1.1c.2-.4.5-.7.8-.9s.8-.3 1.2-.3c.7 0 1.2.2 1.6.6s.5 1.1.5 2v3.9h-.7v-3.9c0-.7-.1-1.2-.4-1.5s-.7-.5-1.2-.5-.9.1-1.2.4-.5.6-.7 1v4.4h-.7v-6.3h.7zM55.4 50.8v1.6h1.4v.6h-1.4v4.1c0 .4.1.7.2.9s.4.3.6.3h.7l.1.5c-.1.1-.3.1-.4.1h-.5c-.4 0-.8-.1-1-.4s-.4-.7-.4-1.3V53h-1.1v-.6h1.1v-1.6h.7zM61.2 53h-.5c-.4 0-.8.1-1.1.4s-.5.6-.6 1v4.4h-.7v-6.3h.6l.1 1.1v.1c.2-.4.4-.7.7-.9s.7-.3 1.1-.3h.5l-.1.5zM61.9 55.5c0-.9.3-1.7.8-2.3s1.2-.9 2-.9 1.5.3 2 .9.8 1.4.8 2.3v.2c0 .9-.3 1.7-.8 2.3s-1.2.9-2 .9c-.9 0-1.5-.3-2-.9s-.8-1.4-.8-2.3v-.2zm.7.2c0 .7.2 1.4.6 1.8s.9.7 1.6.7c.7 0 1.2-.2 1.5-.7s.6-1.1.6-1.8v-.2c0-.7-.2-1.3-.6-1.8s-.9-.8-1.5-.8-1.2.3-1.5.8-.6 1.1-.6 1.8v.2zM76.6 56.4h-3.9l-.9 2.4h-.7l3.2-8.5h.7l3.2 8.5h-.7l-.9-2.4zm-3.6-.6h3.4l-1.7-4.6-1.7 4.6zM80 52.4l.1 1.1c.2-.4.5-.7.8-.9s.8-.3 1.2-.3c.7 0 1.2.2 1.6.6s.5 1.1.5 2v3.9h-.7v-3.9c0-.7-.1-1.2-.4-1.5s-.7-.5-1.2-.5-.9.1-1.2.4-.5.6-.7 1v4.4h-.7v-6.3h.7zM86.8 50.6h-.7v-1h.7v1zm0 8.2h-.7v-6.3h.7v6.3zM89.4 52.4l.1 1c.2-.4.5-.7.8-.9s.7-.3 1.2-.3.9.1 1.2.4.6.6.7 1.1c.2-.4.5-.8.8-1s.8-.4 1.3-.4c.7 0 1.2.2 1.6.7s.6 1.1.6 2.1v3.7H97v-3.7c0-.8-.1-1.3-.4-1.7s-.7-.5-1.2-.5-1 .2-1.3.5c-.3.3-.5.8-.6 1.3v4h-.7V55c0-.8-.1-1.3-.4-1.6-.3-.3-.7-.5-1.2-.5s-.9.1-1.2.4-.5.6-.6 1v4.5h-.7v-6.3h.7zM103.4 58.8c0-.2-.1-.4-.1-.6v-.5c-.2.3-.5.6-.9.8s-.8.3-1.3.3c-.6 0-1.1-.2-1.4-.5s-.5-.8-.5-1.3c0-.6.3-1.1.8-1.4s1.2-.5 2-.5h1.4v-.8c0-.5-.1-.8-.4-1.1s-.7-.4-1.2-.4-.9.1-1.2.4-.5.5-.5.9h-.6c0-.5.2-.9.6-1.3s1-.6 1.7-.6 1.3.2 1.7.5.6.9.6 1.5V58c0 .3.1.4.1.6h-.8zm-2.3-.5c.5 0 .9-.1 1.3-.4s.7-.5.8-.9v-1.3h-1.4c-.6 0-1.1.1-1.5.4s-.6.6-.6 1c0 .3.1.6.4.8s.6.4 1 .4zM107 50.8v1.6h1.4v.6H107v4.1c0 .4.1.7.2.9s.4.3.6.3h.7l.1.5c-.1.1-.3.1-.4.1h-.5c-.4 0-.8-.1-1-.4s-.4-.7-.4-1.3V53h-1.1v-.6h1.1v-1.6h.7zM110.6 50.6h-.7v-1h.7v1zm0 8.2h-.7v-6.3h.7v6.3zM112.2 55.5c0-.9.3-1.7.8-2.3s1.2-.9 2-.9 1.5.3 2 .9.8 1.4.8 2.3v.2c0 .9-.3 1.7-.8 2.3s-1.2.9-2 .9c-.9 0-1.5-.3-2-.9s-.8-1.4-.8-2.3v-.2zm.7.2c0 .7.2 1.4.6 1.8s.9.7 1.6.7c.7 0 1.2-.2 1.5-.7s.6-1.1.6-1.8v-.2c0-.7-.2-1.3-.6-1.8s-.9-.8-1.5-.8-1.2.3-1.5.8-.6 1.1-.6 1.8v.2zM119.9 52.4l.1 1.1c.2-.4.5-.7.8-.9s.8-.3 1.2-.3c.7 0 1.2.2 1.6.6s.5 1.1.5 2v3.9h-.7v-3.9c0-.7-.1-1.2-.4-1.5s-.7-.5-1.2-.5-.9.1-1.2.4-.5.6-.7 1v4.4h-.7v-6.3h.7zM126.7 53.4h-.8v-1h.8v1zm0 5.4h-.8v-1h.8v1z"/><g><path d="M30.3 96.7c0-.5-.2-.8-.5-1.1s-1-.6-1.8-.8c-.9-.2-1.6-.5-2.1-.9s-.7-.9-.7-1.5c0-.7.3-1.2.8-1.6s1.2-.6 2.1-.6c.9 0 1.6.2 2.1.7s.8 1.1.8 1.8h-.6c0-.6-.2-1-.6-1.4s-1-.6-1.6-.6c-.7 0-1.2.2-1.6.5s-.6.7-.6 1.1c0 .4.2.8.5 1.1s1 .5 1.8.8c.9.2 1.6.6 2.1.9s.6.9.6 1.6c0 .7-.3 1.2-.8 1.6s-1.3.6-2.1.6c-.9 0-1.6-.2-2.2-.6s-.9-1.1-.9-1.9h.6c0 .7.2 1.2.7 1.5s1.1.5 1.8.5 1.2-.1 1.6-.4.6-.8.6-1.3zM32.1 95.5c0-.9.3-1.7.8-2.3s1.2-.9 2-.9 1.5.3 2 .9.8 1.4.8 2.3v.2c0 .9-.3 1.7-.8 2.3s-1.2.9-2 .9c-.9 0-1.5-.3-2-.9s-.8-1.4-.8-2.3v-.2zm.7.2c0 .7.2 1.4.6 1.8s.9.7 1.6.7c.7 0 1.2-.2 1.5-.7s.6-1.1.6-1.8v-.2c0-.7-.2-1.3-.6-1.8s-.9-.8-1.5-.8-1.2.3-1.5.8-.6 1.1-.6 1.8v.2zM41.5 98.3c.5 0 .9-.1 1.2-.4s.5-.6.5-1.1h.6c0 .6-.2 1.1-.7 1.5s-1.1.6-1.7.6c-.9 0-1.5-.3-2-.9s-.7-1.4-.7-2.3v-.2c0-.9.2-1.7.7-2.3s1.1-.9 2-.9c.7 0 1.3.2 1.7.6s.7.9.7 1.6h-.6c0-.5-.2-.9-.5-1.2s-.8-.5-1.3-.5c-.7 0-1.2.2-1.5.7-.3.5-.5 1.1-.5 1.8v.2c0 .7.2 1.4.5 1.8s.9 1 1.6 1zM46.2 90.6h-.7v-1h.7v1zm0 8.2h-.7v-6.3h.7v6.3zM52.1 98.8c0-.2-.1-.4-.1-.6v-.5c-.2.3-.5.6-.9.8s-.8.3-1.3.3c-.6 0-1.1-.2-1.4-.5s-.5-.8-.5-1.3c0-.6.3-1.1.8-1.4s1.2-.5 2-.5H52v-.8c0-.5-.1-.8-.4-1.1s-.7-.4-1.2-.4-.9.1-1.2.4-.5.5-.5.9h-.6c0-.5.2-.9.6-1.3s1-.6 1.7-.6 1.3.2 1.7.5.6.9.6 1.5V98c0 .3.1.4.1.6h-.7zm-2.3-.5c.5 0 .9-.1 1.3-.4s.7-.5.8-.9v-1.3h-1.4c-.6 0-1.1.1-1.5.4s-.6.6-.6 1c0 .3.1.6.4.8s.6.4 1 .4zM55.3 98.8h-.7v-9.1h.7v9.1zM57.2 99.5h-.6l3.6-9.3h.6l-3.6 9.3zM68.1 96.1c-.1.9-.4 1.6-.9 2.1s-1.3.7-2.2.7c-.9 0-1.7-.3-2.3-1s-.9-1.6-.9-2.7v-1.4c0-1.1.3-2 .9-2.7s1.3-1 2.3-1c.9 0 1.6.2 2.2.7s.8 1.2.9 2h-.7c-.1-.7-.3-1.2-.7-1.6s-.9-.6-1.7-.6c-.7 0-1.3.3-1.8.9s-.7 1.3-.7 2.2v1.4c0 .9.2 1.7.7 2.2.5.6 1 .9 1.8.9.7 0 1.3-.2 1.7-.5s.6-.9.7-1.6h.7zM69.3 95.5c0-.9.3-1.7.8-2.3s1.2-.9 2-.9 1.5.3 2 .9.8 1.4.8 2.3v.2c0 .9-.3 1.7-.8 2.3s-1.2.9-2 .9c-.9 0-1.5-.3-2-.9s-.8-1.4-.8-2.3v-.2zm.7.2c0 .7.2 1.4.6 1.8s.9.7 1.6.7c.7 0 1.2-.2 1.5-.7s.6-1.1.6-1.8v-.2c0-.7-.2-1.3-.6-1.8s-.9-.8-1.5-.8-1.2.3-1.5.8-.7 1.1-.7 1.8v.2zM77 92.4l.1 1c.2-.4.5-.7.8-.9s.7-.3 1.2-.3.9.1 1.2.4.6.6.7 1.1c.2-.4.5-.8.8-1s.8-.4 1.3-.4c.7 0 1.2.2 1.6.7s.6 1.1.6 2.1v3.7h-.7v-3.7c0-.8-.1-1.3-.4-1.7s-.7-.5-1.2-.5-1 .2-1.3.5c-.3.3-.5.8-.6 1.3v4h-.7V95c0-.8-.1-1.3-.4-1.6-.3-.3-.7-.5-1.2-.5s-.9.1-1.2.4-.5.6-.6 1v4.5h-.7v-6.3h.7zM87.6 92.4l.1 1c.2-.4.5-.7.8-.9s.7-.3 1.2-.3.9.1 1.2.4.6.6.7 1.1c.2-.4.5-.8.8-1s.8-.4 1.3-.4c.7 0 1.2.2 1.6.7s.6 1.1.6 2.1v3.7h-.7v-3.7c0-.8-.1-1.3-.4-1.7s-.7-.5-1.2-.5-1 .2-1.3.5c-.3.3-.5.8-.6 1.3v4H91V95c0-.8-.1-1.3-.4-1.6-.3-.3-.7-.5-1.2-.5s-.9.1-1.2.4-.5.6-.6 1v4.5H87v-6.3h.6zM100.1 98.9c-.8 0-1.5-.3-2-.9s-.8-1.3-.8-2.2v-.3c0-.9.3-1.7.8-2.3s1.2-.9 1.9-.9c.8 0 1.4.2 1.8.7s.7 1.1.7 2v.6H98v.2c0 .7.2 1.3.6 1.8s.9.7 1.5.7c.4 0 .8-.1 1.1-.2s.6-.3.8-.5l.3.5c-.2.3-.5.5-.9.6-.4.1-.8.2-1.3.2zm-.1-6c-.5 0-1 .2-1.3.6-.4.4-.6.9-.6 1.5h3.7v-.2c0-.5-.2-1-.5-1.4s-.8-.5-1.3-.5zM106.8 93h-.5c-.4 0-.8.1-1.1.4s-.5.6-.6 1v4.4h-.7v-6.3h.6l.1 1.1v.1c.2-.4.4-.7.7-.9s.7-.3 1.1-.3h.5l-.1.5zM110.2 98.3c.5 0 .9-.1 1.2-.4s.5-.6.5-1.1h.6c0 .6-.2 1.1-.7 1.5s-1.1.6-1.7.6c-.9 0-1.5-.3-2-.9s-.7-1.4-.7-2.3v-.2c0-.9.2-1.7.7-2.3s1.1-.9 2-.9c.7 0 1.3.2 1.7.6s.7.9.7 1.6h-.6c0-.5-.2-.9-.5-1.2s-.8-.5-1.3-.5c-.7 0-1.2.2-1.5.7-.3.5-.5 1.1-.5 1.8v.2c0 .7.2 1.4.5 1.8s.9 1 1.6 1zM114.8 90.6h-.7v-1h.7v1zm0 8.2h-.7v-6.3h.7v6.3zM120.8 98.8c0-.2-.1-.4-.1-.6v-.5c-.2.3-.5.6-.9.8s-.8.3-1.3.3c-.6 0-1.1-.2-1.4-.5s-.5-.8-.5-1.3c0-.6.3-1.1.8-1.4s1.2-.5 2-.5h1.4v-.8c0-.5-.1-.8-.4-1.1s-.7-.4-1.2-.4-.9.1-1.2.4-.5.5-.5.9h-.6c0-.5.2-.9.6-1.3s1-.6 1.7-.6 1.3.2 1.7.5.6.9.6 1.5V98c0 .3.1.4.1.6h-.8zm-2.3-.5c.5 0 .9-.1 1.3-.4s.7-.5.8-.9v-1.3h-1.4c-.6 0-1.1.1-1.5.4s-.6.6-.6 1c0 .3.1.6.4.8s.6.4 1 .4zM124 98.8h-.7v-9.1h.7v9.1zM126.7 93.4h-.8v-1h.8v1zm0 5.4h-.8v-1h.8v1z"/></g><g><path d="M50.3 134.6h-4.1v3.5h4.7v.6h-5.4v-8.5h5.4v.6h-4.7v3.2h4.1v.6zM54.2 135l1.7-2.6h.8l-2.2 3.1 2.2 3.2H56l-1.8-2.7-1.8 2.7h-.8l2.2-3.2-2.2-3.1h.8l1.8 2.6zM63.1 135.8c0 .9-.2 1.7-.6 2.3-.4.6-1 .8-1.8.8-.4 0-.8-.1-1.2-.3s-.6-.4-.8-.7v3.3H58v-8.8h.6l.1 1c.2-.4.5-.6.8-.8s.7-.3 1.2-.3c.8 0 1.4.3 1.8.9s.6 1.4.6 2.4v.2zm-.7-.2c0-.8-.2-1.5-.5-2s-.8-.8-1.4-.8c-.5 0-.9.1-1.2.3-.3.2-.5.5-.7.9v3.1c.2.3.4.6.7.8s.7.3 1.1.3c.6 0 1.1-.2 1.4-.7.3-.5.5-1.1.5-1.8v-.1zM65.5 138.8h-.7v-9.1h.7v9.1zM71.5 138.8c0-.2-.1-.4-.1-.6v-.5c-.2.3-.5.6-.9.8s-.8.3-1.3.3c-.6 0-1.1-.2-1.4-.5s-.5-.8-.5-1.3c0-.6.3-1.1.8-1.4s1.2-.5 2-.5h1.4v-.8c0-.5-.1-.8-.4-1.1s-.7-.4-1.2-.4-.9.1-1.2.4-.5.5-.5.9h-.6c0-.5.2-.9.6-1.3s1-.6 1.7-.6 1.3.2 1.7.5.6.9.6 1.5v3.7c0 .2.1.4.1.6h-.8zm-2.3-.5c.5 0 .9-.1 1.3-.4s.7-.5.8-.9v-1.3h-1.4c-.6 0-1.1.1-1.5.4s-.6.6-.6 1c0 .3.1.6.4.8s.5.4 1 .4zM74.7 130.6H74v-1h.7v1zm0 8.2H74v-6.3h.7v6.3zM77.2 132.4l.1 1.1c.2-.4.5-.7.8-.9s.8-.3 1.2-.3c.7 0 1.2.2 1.6.6s.5 1.1.5 2v3.9h-.7v-3.9c0-.7-.1-1.2-.4-1.5s-.7-.5-1.2-.5-.9.1-1.2.4-.5.6-.7 1v4.4h-.7v-6.3h.7zM85.7 138.9c-.8 0-1.5-.3-2-.9-.5-.6-.8-1.3-.8-2.2v-.3c0-.9.3-1.7.8-2.3s1.2-.9 1.9-.9c.8 0 1.4.2 1.8.7s.7 1.1.7 2v.6h-4.5v.2c0 .7.2 1.3.6 1.8s.9.7 1.5.7c.4 0 .8-.1 1.1-.2s.6-.3.8-.5l.3.5c-.2.3-.5.5-.9.6-.4.1-.8.2-1.3.2zm-.1-6c-.5 0-1 .2-1.3.6-.4.4-.6.9-.6 1.5h3.7v-.2c0-.5-.2-1-.5-1.4s-.8-.5-1.3-.5zM92.4 133h-.5c-.4 0-.8.1-1.1.4s-.5.6-.6 1v4.4h-.7v-6.3h.6l.1 1.1v.1c.2-.4.4-.7.7-.9s.7-.3 1.1-.3h.5l-.1.5zM99.1 137.3l.2.6.2-.6 2.6-7.1h.8l-3.2 8.5H99l-3.2-8.5h.8l2.5 7.1zM104.7 130.6h-.7v-1h.7v1zm0 8.2h-.7v-6.3h.7v6.3zM106.3 135.7c0-1 .2-1.8.6-2.4s1-.9 1.8-.9c.4 0 .8.1 1.1.3s.6.5.8.8v-3.8h.7v9.1h-.6l-.1-.9c-.2.3-.5.6-.8.8s-.7.3-1.2.3c-.8 0-1.4-.3-1.8-.8-.4-.6-.6-1.3-.6-2.3v-.2zm.7.1c0 .8.2 1.4.5 1.8.3.5.8.7 1.4.7.5 0 .8-.1 1.1-.3s.5-.5.7-.8v-3c-.2-.4-.4-.7-.7-.9s-.7-.3-1.1-.3c-.6 0-1.1.3-1.4.8-.3.5-.5 1.2-.5 2zM115.7 138.9c-.8 0-1.5-.3-2-.9-.5-.6-.8-1.3-.8-2.2v-.3c0-.9.3-1.7.8-2.3s1.2-.9 1.9-.9c.8 0 1.4.2 1.8.7s.7 1.1.7 2v.6h-4.5v.2c0 .7.2 1.3.6 1.8s.9.7 1.5.7c.4 0 .8-.1 1.1-.2s.6-.3.8-.5l.3.5c-.2.3-.5.5-.9.6-.4.1-.8.2-1.3.2zm-.1-6c-.5 0-1 .2-1.3.6-.4.4-.6.9-.6 1.5h3.7v-.2c0-.5-.2-1-.5-1.4s-.8-.5-1.3-.5zM119.1 135.5c0-.9.3-1.7.8-2.3s1.2-.9 2-.9 1.5.3 2 .9.8 1.4.8 2.3v.2c0 .9-.3 1.7-.8 2.3-.5.6-1.2.9-2 .9-.9 0-1.5-.3-2-.9-.5-.6-.8-1.4-.8-2.3v-.2zm.7.2c0 .7.2 1.4.6 1.8s.9.7 1.6.7c.7 0 1.2-.2 1.5-.7s.6-1.1.6-1.8v-.2c0-.7-.2-1.3-.6-1.8s-.9-.8-1.5-.8-1.2.3-1.5.8-.6 1.1-.6 1.8v.2zM126.9 133.4h-.8v-1h.8v1zm0 5.4h-.8v-1h.8v1z"/></g><g><path d="M55.7 174.1h.8c.6 0 1.1-.2 1.4-.5s.5-.7.5-1.2-.2-1-.5-1.3-.7-.5-1.3-.5c-.5 0-1 .2-1.3.5s-.5.7-.5 1.3h-.7c0-.7.2-1.2.7-1.7s1.1-.7 1.8-.7c.8 0 1.4.2 1.8.6s.7 1 .7 1.7c0 .4-.1.8-.4 1.1s-.6.6-1.1.8c.5.2.9.4 1.2.8s.4.8.4 1.3c0 .8-.2 1.4-.7 1.8s-1.1.7-1.9.7c-.7 0-1.4-.2-1.9-.6s-.8-1-.8-1.8h.7c0 .5.2 1 .6 1.3.4.3.9.5 1.5.5s1.1-.2 1.4-.5c.3-.3.5-.8.5-1.3 0-.6-.2-1-.5-1.3s-.9-.4-1.5-.4h-.8v-.6zM61.1 178.8v-8.5h2.5c1 0 1.9.3 2.6 1s1 1.6 1 2.7v1.1c0 1.1-.3 2-1 2.7s-1.5 1-2.6 1h-2.5zm.7-8v7.3h1.8c.8 0 1.5-.3 2.1-.9.5-.6.8-1.3.8-2.2v-1.1c0-.9-.3-1.6-.8-2.2s-1.2-.9-2.1-.9h-1.8zM76.5 176.4h-3.9l-.9 2.4H71l3.2-8.5h.7l3.2 8.5h-.7l-.9-2.4zm-3.7-.6h3.4l-1.7-4.6-1.7 4.6zM79.8 172.4l.1 1.1c.2-.4.5-.7.8-.9s.8-.3 1.2-.3c.7 0 1.2.2 1.6.6s.5 1.1.5 2v3.9h-.7v-3.9c0-.7-.1-1.2-.4-1.5-.3-.3-.7-.5-1.2-.5s-.9.1-1.2.4c-.3.3-.5.6-.7 1v4.4h-.7v-6.3h.7zM86.7 170.6H86v-1h.7v1zm0 8.2H86v-6.3h.7v6.3zM89.2 172.4l.1 1c.2-.4.5-.7.8-.9s.7-.3 1.2-.3.9.1 1.2.4.6.6.7 1.1c.2-.4.5-.8.8-1s.8-.4 1.3-.4c.7 0 1.2.2 1.6.7s.6 1.1.6 2.1v3.7h-.7v-3.7c0-.8-.1-1.3-.4-1.7-.3-.3-.7-.5-1.2-.5s-1 .2-1.3.5c-.3.3-.5.8-.6 1.3v4h-.7V175c0-.8-.1-1.3-.4-1.6-.3-.3-.7-.5-1.2-.5s-.9.1-1.2.4c-.3.3-.5.6-.6 1v4.5h-.7v-6.3h.7zM103.2 178.8c0-.2-.1-.4-.1-.6v-.5c-.2.3-.5.6-.9.8s-.8.3-1.3.3c-.6 0-1.1-.2-1.4-.5s-.5-.8-.5-1.3c0-.6.3-1.1.8-1.4s1.2-.5 2-.5h1.4v-.8c0-.5-.1-.8-.4-1.1s-.7-.4-1.2-.4-.9.1-1.2.4-.5.5-.5.9h-.6c0-.5.2-.9.6-1.3s1-.6 1.7-.6 1.3.2 1.7.5.6.9.6 1.5v3.8c0 .3.1.4.1.6h-.8zm-2.3-.5c.5 0 .9-.1 1.3-.4s.7-.5.8-.9v-1.3h-1.4c-.6 0-1.1.1-1.5.4s-.6.6-.6 1c0 .3.1.6.4.8s.6.4 1 .4zM106.8 170.8v1.6h1.4v.6h-1.4v4.1c0 .4.1.7.2.9s.4.3.6.3h.3c.1 0 .2 0 .4-.1l.1.5c-.1.1-.3.1-.4.1h-.5c-.4 0-.8-.1-1-.4s-.4-.7-.4-1.3V173H105v-.6h1.1v-1.6h.7zM110.5 170.6h-.7v-1h.7v1zm0 8.2h-.7v-6.3h.7v6.3zM112 175.5c0-.9.3-1.7.8-2.3s1.2-.9 2-.9 1.5.3 2 .9.8 1.4.8 2.3v.2c0 .9-.3 1.7-.8 2.3s-1.2.9-2 .9c-.9 0-1.5-.3-2-.9s-.8-1.4-.8-2.3v-.2zm.7.2c0 .7.2 1.3.6 1.8.4.5.9.7 1.6.7.7 0 1.2-.2 1.5-.7.4-.5.6-1.1.6-1.8v-.2c0-.7-.2-1.3-.6-1.8-.4-.5-.9-.8-1.5-.8s-1.2.3-1.5.8c-.4.5-.6 1.1-.6 1.8v.2zM119.7 172.4l.1 1.1c.2-.4.5-.7.8-.9s.8-.3 1.2-.3c.7 0 1.2.2 1.6.6s.5 1.1.5 2v3.9h-.7v-3.9c0-.7-.1-1.2-.4-1.5-.3-.3-.7-.5-1.2-.5s-.9.1-1.2.4c-.3.3-.5.6-.7 1v4.4h-.7v-6.3h.7zM126.5 173.4h-.8v-1h.8v1zm0 5.4h-.8v-1h.8v1z"/></g></g><g id="Lines"><path class="st0" d="M415.8 222.6h-273c-2.2 0-3.9-1.8-3.9-3.9V36.4c0-2.2 1.8-3.9 3.9-3.9h273c2.2 0 3.9 1.8 3.9 3.9v182.2c0 2.2-1.7 4-3.9 4zm-273-189.1c-1.6 0-2.9 1.3-2.9 2.9v182.2c0 1.6 1.3 2.9 2.9 2.9h273c1.6 0 2.9-1.3 2.9-2.9V36.4c0-1.6-1.3-2.9-2.9-2.9h-273zM4.7 65.3h128.7v1H4.7zM4.7 105.3h128.7v1H4.7zM4.7 145.3h128.7v1H4.7zM4.7 185.3h128.7v1H4.7z"/><g><path class="st0" d="M144.7 65.3h128.7v1H144.7zM144.7 105.3h128.7v1H144.7zM144.7 145.3h128.7v1H144.7zM144.7 185.3h128.7v1H144.7z"/></g><g><path class="st0" d="M284.7 65.3h128.7v1H284.7zM284.7 105.3h128.7v1H284.7zM284.7 145.3h128.7v1H284.7zM284.7 185.3h128.7v1H284.7z"/></g><path class="st0" d="M278.8 38.4h1v143.4h-1z"/></g><g id="Choices"><path d="M189.1 19.4h-1.2v-8H186v-.9l3.1-.3v9.2zM198.6 15.9c0 1.2-.3 2.1-.8 2.7-.5.6-1.2.9-2.1.9s-1.6-.3-2.1-.9c-.5-.6-.8-1.5-.8-2.7v-2.2c0-1.2.3-2.1.8-2.7.5-.6 1.2-.9 2.1-.9.9 0 1.6.3 2.1.9.5.6.8 1.5.8 2.7v2.2zm-1.2-2.5c0-.8-.1-1.4-.4-1.8-.3-.4-.7-.6-1.2-.6s-1 .2-1.2.6c-.3.4-.4 1-.4 1.8v2.7c0 .8.1 1.4.4 1.8.3.4.7.6 1.3.6s1-.2 1.2-.6.4-1 .4-1.8v-2.7zM202.6 16h-3.1v-1h3.1v1zM205.3 14.2h1.1c.5 0 .9-.1 1.2-.4.2-.3.3-.7.3-1.1 0-.5-.1-.9-.4-1.2-.3-.3-.6-.4-1.2-.4-.5 0-.9.1-1.2.4s-.4.7-.4 1.1h-1.2c0-.7.2-1.3.8-1.8.5-.5 1.2-.7 2-.7s1.5.2 2 .7c.5.5.8 1.1.8 1.9 0 .4-.1.8-.3 1.1-.2.4-.6.7-1 .9.5.2.9.5 1.2.8.2.4.3.8.3 1.3 0 .8-.3 1.5-.8 2s-1.2.7-2.1.7c-.8 0-1.5-.2-2.1-.7-.5-.5-.8-1.1-.8-1.8h1.2c0 .5.1.9.4 1.1s.7.4 1.2.4.9-.1 1.2-.4.4-.7.4-1.3c0-.6-.1-1-.4-1.2-.3-.3-.7-.4-1.3-.4h-1.1v-1zM216.6 15.9c0 1.2-.3 2.1-.8 2.7-.5.6-1.2.9-2.1.9s-1.6-.3-2.1-.9c-.5-.6-.8-1.5-.8-2.7v-2.2c0-1.2.3-2.1.8-2.7.5-.6 1.2-.9 2.1-.9.9 0 1.6.3 2.1.9.5.6.8 1.5.8 2.7v2.2zm-1.2-2.5c0-.8-.1-1.4-.4-1.8-.3-.4-.7-.6-1.2-.6s-1 .2-1.2.6c-.3.4-.4 1-.4 1.8v2.7c0 .8.1 1.4.4 1.8.3.4.7.6 1.3.6s1-.2 1.2-.6.4-1 .4-1.8v-2.7zM222.2 17.6c0-.3-.1-.5-.3-.7-.2-.2-.6-.3-1.2-.5-.8-.2-1.4-.4-1.9-.7-.4-.3-.6-.7-.6-1.3 0-.6.2-1 .7-1.4.5-.4 1.1-.6 1.8-.6.8 0 1.4.2 1.9.6s.7.9.7 1.5h-1.2c0-.3-.1-.6-.4-.8-.2-.2-.6-.4-1-.4s-.8.1-1 .3c-.2.2-.3.4-.3.7 0 .3.1.5.3.6.2.2.6.3 1.2.4.9.2 1.5.4 1.9.8.4.3.6.7.6 1.3 0 .6-.2 1.1-.7 1.5-.5.4-1.1.6-1.9.6-.9 0-1.6-.2-2.1-.7-.5-.4-.7-1-.7-1.5h1.2c0 .4.2.8.5 1 .3.2.7.3 1.1.3.4 0 .8-.1 1-.3.3-.2.4-.5.4-.7zM227.8 19.5c-.9 0-1.7-.3-2.3-.9s-.8-1.5-.8-2.5v-.3c0-1 .3-1.8.9-2.4s1.3-1 2-1c.9 0 1.6.3 2.1.8.5.6.7 1.3.7 2.2v.8H226c0 .7.2 1.2.5 1.6.3.4.8.6 1.3.6.4 0 .8-.1 1.1-.2.3-.1.6-.3.8-.5l.5.8c-.2.2-.6.4-1 .6-.3.3-.8.4-1.4.4zm-.2-6.1c-.4 0-.8.2-1.1.5-.3.3-.5.8-.5 1.3h3.1V15c0-.5-.1-.9-.4-1.2s-.6-.4-1.1-.4zM234.6 18.5c.4 0 .8-.1 1.1-.4.3-.3.5-.6.5-.9h1.1c0 .6-.2 1.1-.8 1.6s-1.2.7-1.9.7c-1 0-1.7-.3-2.3-1s-.8-1.5-.8-2.4v-.3c0-1 .3-1.8.8-2.4.5-.6 1.3-1 2.3-1 .8 0 1.4.2 2 .7s.8 1 .7 1.7h-1.1c0-.4-.1-.8-.4-1.1-.3-.3-.7-.4-1.1-.4-.7 0-1.1.2-1.4.7-.3.5-.4 1-.4 1.7v.3c0 .7.1 1.3.4 1.7.2.6.6.8 1.3.8z"/><g><path d="M313.7 14.2h1.1c.5 0 .9-.1 1.2-.4s.3-.7.3-1.1c0-.5-.1-.9-.4-1.2-.3-.3-.6-.4-1.2-.4-.5 0-.9.1-1.2.4-.3.3-.4.7-.4 1.1H312c0-.7.2-1.3.8-1.8.5-.5 1.2-.7 2-.7s1.5.2 2 .7c.5.5.8 1.1.8 1.9 0 .4-.1.8-.3 1.1s-.6.7-1 .9c.5.2.9.5 1.2.8.2.4.3.8.3 1.3 0 .8-.3 1.5-.8 2s-1.2.7-2.1.7c-.8 0-1.5-.2-2.1-.7-.5-.5-.8-1.1-.8-1.8h1.2c0 .5.1.9.4 1.1.3.3.7.4 1.2.4s.9-.1 1.2-.4.4-.7.4-1.3c0-.6-.1-1-.4-1.2-.3-.3-.7-.4-1.3-.4h-1.1v-1zM325.1 15.9c0 1.2-.3 2.1-.8 2.7-.5.6-1.2.9-2.1.9-.9 0-1.6-.3-2.1-.9-.5-.6-.8-1.5-.8-2.7v-2.2c0-1.2.3-2.1.8-2.7.5-.6 1.2-.9 2.1-.9.9 0 1.6.3 2.1.9.5.6.8 1.5.8 2.7v2.2zm-1.2-2.5c0-.8-.1-1.4-.4-1.8-.3-.4-.7-.6-1.2-.6s-1 .2-1.2.6-.4 1-.4 1.8v2.7c0 .8.1 1.4.4 1.8.3.4.7.6 1.3.6.5 0 1-.2 1.2-.6s.4-1 .4-1.8v-2.7zM330.7 17.6c0-.3-.1-.5-.3-.7-.2-.2-.6-.3-1.2-.5-.8-.2-1.4-.4-1.9-.7-.4-.3-.6-.7-.6-1.3 0-.6.2-1 .7-1.4.5-.4 1.1-.6 1.8-.6.8 0 1.4.2 1.9.6s.7.9.7 1.5h-1.2c0-.3-.1-.6-.4-.8-.2-.2-.6-.4-1-.4s-.8.1-1 .3-.3.4-.3.7c0 .3.1.5.3.6.2.2.6.3 1.2.4.9.2 1.5.4 1.9.8.4.3.6.7.6 1.3 0 .6-.2 1.1-.7 1.5-.5.4-1.1.6-1.9.6-.9 0-1.6-.2-2.1-.7-.5-.4-.7-1-.7-1.5h1.2c0 .4.2.8.5 1 .3.2.7.3 1.1.3.4 0 .8-.1 1-.3.2-.2.4-.5.4-.7zM336.3 19.5c-.9 0-1.7-.3-2.3-.9-.6-.6-.8-1.5-.8-2.5v-.3c0-1 .3-1.8.9-2.4s1.3-1 2-1c.9 0 1.6.3 2.1.8s.7 1.3.7 2.2v.8h-4.4c0 .7.2 1.2.5 1.6.3.4.8.6 1.3.6.4 0 .8-.1 1.1-.2.3-.1.6-.3.8-.5l.5.8c-.2.2-.6.4-1 .6-.4.3-.9.4-1.4.4zm-.2-6.1c-.4 0-.8.2-1.1.5-.3.3-.5.8-.5 1.3h3.1V15c0-.5-.1-.9-.4-1.2s-.6-.4-1.1-.4zM343 18.5c.4 0 .8-.1 1.1-.4.3-.3.5-.6.5-.9h1.1c0 .6-.2 1.1-.8 1.6-.5.5-1.2.7-1.9.7-1 0-1.7-.3-2.3-1-.5-.6-.8-1.5-.8-2.4v-.3c0-1 .3-1.8.8-2.4.5-.6 1.3-1 2.3-1 .8 0 1.4.2 2 .7.5.5.7 1 .7 1.7h-1.1c0-.4-.1-.8-.4-1.1-.3-.3-.7-.4-1.1-.4-.7 0-1.1.2-1.4.7-.3.5-.4 1-.4 1.7v.3c0 .7.1 1.3.4 1.7.2.6.7.8 1.3.8zM349.5 16h-3.1v-1h3.1v1zM354 19.4h-1.2v-8h-1.9v-.9l3.1-.3v9.2zM359 12.6l.1.9c.2-.3.5-.6.8-.8.3-.2.7-.3 1.2-.3s.8.1 1.2.3c.3.2.6.5.7.9.2-.4.5-.7.8-.9.4-.2.8-.3 1.2-.3.7 0 1.2.2 1.6.7.4.5.6 1.2.6 2.1v4.1H366v-4.1c0-.7-.1-1.1-.3-1.4s-.6-.4-1-.4-.8.1-1 .4c-.3.3-.4.7-.5 1.1V19.3H362v-4.1c0-.6-.1-1.1-.4-1.4-.2-.3-.6-.4-1-.4s-.7.1-.9.2c-.2.2-.4.4-.6.7v5h-1.2v-6.8h1.1zM370.5 10.8h-1.2V9.5h1.2v1.3zm0 8.6h-1.2v-6.8h1.2v6.8zM373.5 12.6l.1 1c.2-.4.5-.6.9-.8s.7-.3 1.2-.3c.7 0 1.3.2 1.7.6.4.4.6 1.1.6 2v4.3h-1.2v-4.3c0-.6-.1-1-.4-1.3-.2-.3-.6-.4-1.1-.4-.4 0-.7.1-.9.3-.3.2-.5.4-.7.7v5h-1.2v-6.8h1z"/></g></g><g id="Per._Price"><path class="st1" d="M199.3 55.9c0-.3-.1-.6-.3-.8s-.5-.4-.9-.6c-.9-.3-1.5-.7-1.9-1.1s-.6-.9-.6-1.6c0-.7.2-1.2.6-1.6s1-.7 1.7-.7v-1.3h.9v1.3c.7.1 1.2.4 1.6.9s.6 1.1.6 1.8h-1.7c0-.5-.1-.8-.3-1.1s-.4-.4-.8-.4c-.3 0-.6.1-.8.3s-.2.5-.2.8c0 .3.1.6.3.7s.5.4 1 .6c.9.3 1.5.7 1.9 1.1s.6.9.6 1.6c0 .7-.2 1.2-.6 1.6s-1 .6-1.7.7v1.2h-.9v-1.2c-.7-.1-1.3-.3-1.8-.8s-.7-1.1-.7-2h1.7c0 .5.1.9.4 1.1s.5.3.9.3.6-.1.8-.3.2-.2.2-.5zM208 58.1h-5.8V57l2.8-3c.4-.5.7-.8.8-1.2s.3-.6.3-.9c0-.4-.1-.7-.3-.9s-.5-.3-.8-.3c-.4 0-.7.1-.9.4s-.3.6-.3 1.1H202c0-.8.2-1.4.8-2s1.2-.8 2.1-.8c.9 0 1.6.2 2.1.7s.8 1.1.8 1.8c0 .5-.1 1-.4 1.4s-.8 1-1.4 1.7l-1.5 1.7h3.6v1.4zM214.8 54.8c0 1.1-.3 2-.8 2.6s-1.2.9-2.1.9c-.9 0-1.6-.3-2.1-.9s-.8-1.4-.8-2.6v-1.9c0-1.1.3-2 .8-2.6s1.2-.9 2.1-.9c.9 0 1.6.3 2.1.9s.8 1.4.8 2.6v1.9zm-1.7-2.1c0-.7-.1-1.2-.3-1.5-.2-.3-.5-.5-.9-.5s-.7.2-.9.5-.3.8-.3 1.5v2.2c0 .7.1 1.2.3 1.5s.5.5.9.5.7-.2.9-.5.3-.8.3-1.5v-2.2zM221.6 54.8c0 1.1-.3 2-.8 2.6s-1.2.9-2.1.9c-.9 0-1.6-.3-2.1-.9s-.8-1.4-.8-2.6v-1.9c0-1.1.3-2 .8-2.6s1.2-.9 2.1-.9c.9 0 1.6.3 2.1.9s.8 1.4.8 2.6v1.9zm-1.7-2.1c0-.7-.1-1.2-.3-1.5-.2-.3-.5-.5-.9-.5s-.7.2-.9.5-.3.8-.3 1.5v2.2c0 .7.1 1.2.3 1.5s.5.5.9.5.7-.2.9-.5.3-.8.3-1.5v-2.2z"/><g><path class="st1" d="M198.3 95.9c0-.3-.1-.6-.3-.8s-.5-.4-.9-.6c-.9-.3-1.5-.7-1.9-1.1s-.6-.9-.6-1.6c0-.7.2-1.2.6-1.6s1-.7 1.7-.7v-1.3h.9v1.3c.7.1 1.2.4 1.6.9s.6 1.1.6 1.8h-1.7c0-.5-.1-.8-.3-1.1s-.4-.4-.8-.4c-.3 0-.6.1-.8.3s-.2.5-.2.8c0 .3.1.6.3.7s.5.4 1 .6c.9.3 1.5.7 1.9 1.1s.6.9.6 1.6c0 .7-.2 1.2-.6 1.6s-1 .6-1.7.7v1.2h-.9v-1.2c-.7-.1-1.3-.3-1.8-.8s-.7-1.1-.7-2h1.7c0 .5.1.9.4 1.1s.5.3.9.3.6-.1.8-.3.2-.2.2-.5zM202.9 93.1h1c.4 0 .7-.1.9-.3s.3-.5.3-.9c0-.3-.1-.6-.3-.8s-.5-.3-.8-.3c-.3 0-.6.1-.8.3s-.3.4-.3.7h-1.7c0-.7.2-1.2.8-1.7s1.2-.7 2-.7c.9 0 1.6.2 2.1.6s.8 1 .8 1.8c0 .4-.1.7-.4 1.1s-.6.6-1 .8c.5.2.8.4 1.1.8s.4.8.4 1.2c0 .8-.3 1.4-.9 1.8s-1.3.7-2.2.7c-.8 0-1.5-.2-2-.6s-.8-1-.8-1.8h1.7c0 .3.1.6.4.8.2.2.5.3.9.3s.7-.1.9-.3.3-.5.3-.9-.1-.8-.3-1c-.2-.2-.6-.3-1-.3h-1v-1.3zM208.2 94.3l.5-4.8h4.8v1.4h-3.4l-.2 2c.2-.1.3-.2.6-.3s.5-.1.7-.1c.8 0 1.5.2 1.9.7s.7 1.2.7 2.1c0 .8-.2 1.5-.7 2s-1.2.8-2.1.8c-.8 0-1.5-.2-2-.6s-.8-1-.8-1.8l1.6-.1c0 .4.1.7.3.9s.5.3.8.3c.4 0 .7-.1.9-.4s.3-.7.3-1.1c0-.5-.1-.9-.3-1.2-.2-.3-.5-.4-.9-.4-.3 0-.6.1-.8.2s-.3.3-.4.5l-1.5-.1zM220.6 94.8c0 1.1-.3 2-.8 2.6s-1.2.9-2.1.9c-.9 0-1.6-.3-2.1-.9s-.8-1.4-.8-2.6v-1.9c0-1.1.3-2 .8-2.6s1.2-.9 2.1-.9c.9 0 1.6.3 2.1.9s.8 1.4.8 2.6v1.9zm-1.7-2.1c0-.7-.1-1.2-.3-1.5-.2-.3-.5-.5-.9-.5s-.7.2-.9.5-.3.8-.3 1.5v2.2c0 .7.1 1.2.3 1.5s.5.5.9.5.7-.2.9-.5.3-.8.3-1.5v-2.2z"/></g><g><path class="st1" d="M198.3 135.9c0-.3-.1-.6-.3-.8s-.5-.4-.9-.6c-.9-.3-1.5-.7-1.9-1.1s-.6-.9-.6-1.6c0-.7.2-1.2.6-1.6s1-.7 1.7-.7v-1.3h.9v1.3c.7.1 1.2.4 1.6.9s.6 1.1.6 1.8h-1.7c0-.5-.1-.8-.3-1.1s-.4-.4-.8-.4c-.3 0-.6.1-.8.3s-.2.5-.2.8c0 .3.1.6.3.7s.5.4 1 .6c.9.3 1.5.7 1.9 1.1s.6.9.6 1.6c0 .7-.2 1.2-.6 1.6s-1 .6-1.7.7v1.2h-.9v-1.2c-.7-.1-1.3-.3-1.8-.8s-.7-1.1-.7-2h1.7c0 .5.1.9.4 1.1s.5.3.9.3.6-.1.8-.3.2-.2.2-.5zM201.3 134.3l.5-4.8h4.8v1.4h-3.4l-.2 2c.2-.1.3-.2.6-.3s.5-.1.7-.1c.8 0 1.5.2 1.9.7s.7 1.2.7 2.1c0 .8-.2 1.5-.7 2s-1.2.8-2.1.8c-.8 0-1.5-.2-2-.6s-.8-1-.8-1.8l1.6-.1c0 .4.1.7.3.9s.5.3.8.3c.4 0 .7-.1.9-.4s.3-.7.3-1.1c0-.5-.1-.9-.3-1.2-.2-.3-.5-.4-.9-.4-.3 0-.6.1-.8.2s-.3.3-.4.5l-1.5-.1zM213.8 134.8c0 1.1-.3 2-.8 2.6s-1.2.9-2.1.9c-.9 0-1.6-.3-2.1-.9s-.8-1.4-.8-2.6v-1.9c0-1.1.3-2 .8-2.6s1.2-.9 2.1-.9c.9 0 1.6.3 2.1.9s.8 1.4.8 2.6v1.9zm-1.7-2.1c0-.7-.1-1.2-.3-1.5-.2-.3-.5-.5-.9-.5s-.7.2-.9.5-.3.8-.3 1.5v2.2c0 .7.1 1.2.3 1.5s.5.5.9.5.7-.2.9-.5.3-.8.3-1.5v-2.2zM220.6 134.8c0 1.1-.3 2-.8 2.6s-1.2.9-2.1.9c-.9 0-1.6-.3-2.1-.9s-.8-1.4-.8-2.6v-1.9c0-1.1.3-2 .8-2.6s1.2-.9 2.1-.9c.9 0 1.6.3 2.1.9s.8 1.4.8 2.6v1.9zm-1.7-2.1c0-.7-.1-1.2-.3-1.5-.2-.3-.5-.5-.9-.5s-.7.2-.9.5-.3.8-.3 1.5v2.2c0 .7.1 1.2.3 1.5s.5.5.9.5.7-.2.9-.5.3-.8.3-1.5v-2.2z"/></g><g><path class="st1" d="M198.3 175.9c0-.3-.1-.6-.3-.8s-.5-.4-.9-.6c-.9-.3-1.5-.7-1.9-1.1s-.6-.9-.6-1.6c0-.7.2-1.2.6-1.6s1-.7 1.7-.7v-1.3h.9v1.3c.7.1 1.2.4 1.6.9s.6 1.1.6 1.8h-1.7c0-.5-.1-.8-.3-1.1s-.4-.4-.8-.4c-.3 0-.6.1-.8.3s-.2.5-.2.8c0 .3.1.6.3.7s.5.4 1 .6c.9.3 1.5.7 1.9 1.1s.6.9.6 1.6c0 .7-.2 1.2-.6 1.6s-1 .6-1.7.7v1.2h-.9v-1.2c-.7-.1-1.3-.3-1.8-.8s-.7-1.1-.7-2h1.7c0 .5.1.9.4 1.1s.5.3.9.3.6-.1.8-.3.2-.2.2-.5zM204.6 169.5c.3 0 .6 0 .9.1s.5.1.8.3l-.3 1.3c-.3-.1-.5-.2-.7-.2s-.4-.1-.7-.1c-.5 0-.9.2-1.3.6s-.5.9-.4 1.6c.2-.2.4-.4.7-.5s.6-.2 1-.2c.8 0 1.4.3 1.8.8s.6 1.2.6 2.1c0 .9-.3 1.6-.8 2.1s-1.2.8-2.1.8c-.9 0-1.6-.3-2.2-.9s-.8-1.5-.8-2.5v-1.7c0-1.1.3-2 1-2.7s1.5-.9 2.5-.9zm-.4 4.2c-.3 0-.6.1-.8.2s-.4.2-.5.4v.6c0 .7.1 1.2.4 1.6s.6.5 1 .5.6-.2.8-.5.3-.7.3-1.2-.1-.9-.3-1.1-.6-.5-.9-.5zM213.8 174.8c0 1.1-.3 2-.8 2.6s-1.2.9-2.1.9c-.9 0-1.6-.3-2.1-.9s-.8-1.4-.8-2.6v-1.9c0-1.1.3-2 .8-2.6s1.2-.9 2.1-.9c.9 0 1.6.3 2.1.9s.8 1.4.8 2.6v1.9zm-1.7-2.1c0-.7-.1-1.2-.3-1.5-.2-.3-.5-.5-.9-.5s-.7.2-.9.5c-.2.3-.3.8-.3 1.5v2.2c0 .7.1 1.2.3 1.5.2.3.5.5.9.5s.7-.2.9-.5c.2-.3.3-.8.3-1.5v-2.2zM220.6 174.8c0 1.1-.3 2-.8 2.6s-1.2.9-2.1.9c-.9 0-1.6-.3-2.1-.9s-.8-1.4-.8-2.6v-1.9c0-1.1.3-2 .8-2.6s1.2-.9 2.1-.9c.9 0 1.6.3 2.1.9s.8 1.4.8 2.6v1.9zm-1.7-2.1c0-.7-.1-1.2-.3-1.5-.2-.3-.5-.5-.9-.5s-.7.2-.9.5c-.2.3-.3.8-.3 1.5v2.2c0 .7.1 1.2.3 1.5.2.3.5.5.9.5s.7-.2.9-.5c.2-.3.3-.8.3-1.5v-2.2z"/></g></g><g id="Comm._Price"><path class="st1" d="M337.3 175.9c0-.3-.1-.6-.3-.8s-.5-.4-.9-.6c-.9-.3-1.5-.7-1.9-1.1s-.6-.9-.6-1.6c0-.7.2-1.2.6-1.6s1-.7 1.7-.7v-1.3h.9v1.3c.7.1 1.2.4 1.6.9s.6 1.1.6 1.8h-1.7c0-.5-.1-.8-.3-1.1s-.4-.4-.8-.4c-.3 0-.6.1-.8.3s-.2.5-.2.8c0 .3.1.6.3.7s.5.4 1 .6c.9.3 1.5.7 1.9 1.1s.6.9.6 1.6c0 .7-.2 1.2-.6 1.6s-1 .6-1.7.7v1.2h-.9v-1.2c-.7-.1-1.3-.3-1.8-.8s-.7-1.1-.7-2h1.7c0 .5.1.9.4 1.1s.5.3.9.3.6-.1.8-.3.2-.2.2-.5zM343.6 169.5c.3 0 .6 0 .9.1s.5.1.8.3l-.3 1.3c-.3-.1-.5-.2-.7-.2s-.4-.1-.7-.1c-.5 0-.9.2-1.3.6s-.5.9-.4 1.6c.2-.2.4-.4.7-.5s.6-.2 1-.2c.8 0 1.4.3 1.8.8s.6 1.2.6 2.1c0 .9-.3 1.6-.8 2.1s-1.2.8-2.1.8c-.9 0-1.6-.3-2.2-.9s-.8-1.5-.8-2.5v-1.7c0-1.1.3-2 1-2.7s1.5-.9 2.5-.9zm-.4 4.2c-.3 0-.6.1-.8.2s-.4.2-.5.4v.6c0 .7.1 1.2.4 1.6s.6.5 1 .5.6-.2.8-.5.3-.7.3-1.2-.1-.9-.3-1.1-.6-.5-.9-.5zM347.2 174.3l.5-4.8h4.8v1.4h-3.4l-.2 2c.2-.1.3-.2.6-.3s.5-.1.7-.1c.8 0 1.5.2 1.9.7s.7 1.2.7 2.1c0 .8-.2 1.5-.7 2s-1.2.8-2.1.8c-.8 0-1.5-.2-2-.6s-.8-1-.8-1.8l1.6-.1c0 .4.1.7.3.9s.5.3.8.3c.4 0 .7-.1.9-.4s.3-.7.3-1.1c0-.5-.1-.9-.3-1.2s-.5-.4-.9-.4c-.3 0-.6.1-.8.2s-.3.3-.4.5l-1.5-.1zM359.6 174.8c0 1.1-.3 2-.8 2.6s-1.2.9-2.1.9c-.9 0-1.6-.3-2.1-.9s-.8-1.4-.8-2.6v-1.9c0-1.1.3-2 .8-2.6s1.2-.9 2.1-.9c.9 0 1.6.3 2.1.9s.8 1.4.8 2.6v1.9zm-1.7-2.1c0-.7-.1-1.2-.3-1.5-.2-.3-.5-.5-.9-.5s-.7.2-.9.5c-.2.3-.3.8-.3 1.5v2.2c0 .7.1 1.2.3 1.5.2.3.5.5.9.5s.7-.2.9-.5c.2-.3.3-.8.3-1.5v-2.2zM364.3 173.4h2.1v1.5h-2.1v2.4h-1.6v-2.4h-2.1v-1.5h2.1V171h1.6v2.4z"/><g><path class="st1" d="M337.3 135.9c0-.3-.1-.6-.3-.8s-.5-.4-.9-.6c-.9-.3-1.5-.7-1.9-1.1s-.6-.9-.6-1.6c0-.7.2-1.2.6-1.6s1-.7 1.7-.7v-1.3h.9v1.3c.7.1 1.2.4 1.6.9s.6 1.1.6 1.8h-1.7c0-.5-.1-.8-.3-1.1s-.4-.4-.8-.4c-.3 0-.6.1-.8.3s-.2.5-.2.8c0 .3.1.6.3.7s.5.4 1 .6c.9.3 1.5.7 1.9 1.1s.6.9.6 1.6c0 .7-.2 1.2-.6 1.6s-1 .6-1.7.7v1.2h-.9v-1.2c-.7-.1-1.3-.3-1.8-.8s-.7-1.1-.7-2h1.7c0 .5.1.9.4 1.1s.5.3.9.3.6-.1.8-.3.2-.2.2-.5zM340.3 134.3l.5-4.8h4.8v1.4h-3.4l-.2 2c.2-.1.3-.2.6-.3s.5-.1.7-.1c.8 0 1.5.2 1.9.7s.7 1.2.7 2.1c0 .8-.2 1.5-.7 2s-1.2.8-2.1.8c-.8 0-1.5-.2-2-.6s-.8-1-.8-1.8l1.6-.1c0 .4.1.7.3.9s.5.3.8.3c.4 0 .7-.1.9-.4s.3-.7.3-1.1c0-.5-.1-.9-.3-1.2-.2-.3-.5-.4-.9-.4-.3 0-.6.1-.8.2s-.3.3-.4.5l-1.5-.1zM347.2 134.3l.5-4.8h4.8v1.4h-3.4l-.2 2c.2-.1.3-.2.6-.3s.5-.1.7-.1c.8 0 1.5.2 1.9.7s.7 1.2.7 2.1c0 .8-.2 1.5-.7 2s-1.2.8-2.1.8c-.8 0-1.5-.2-2-.6s-.8-1-.8-1.8l1.6-.1c0 .4.1.7.3.9s.5.3.8.3c.4 0 .7-.1.9-.4s.3-.7.3-1.1c0-.5-.1-.9-.3-1.2-.2-.3-.5-.4-.9-.4-.3 0-.6.1-.8.2s-.3.3-.4.5l-1.5-.1zM359.6 134.8c0 1.1-.3 2-.8 2.6s-1.2.9-2.1.9c-.9 0-1.6-.3-2.1-.9s-.8-1.4-.8-2.6v-1.9c0-1.1.3-2 .8-2.6s1.2-.9 2.1-.9c.9 0 1.6.3 2.1.9s.8 1.4.8 2.6v1.9zm-1.7-2.1c0-.7-.1-1.2-.3-1.5-.2-.3-.5-.5-.9-.5s-.7.2-.9.5-.3.8-.3 1.5v2.2c0 .7.1 1.2.3 1.5s.5.5.9.5.7-.2.9-.5.3-.8.3-1.5v-2.2zM364.3 133.4h2.1v1.5h-2.1v2.4h-1.6v-2.4h-2.1v-1.5h2.1V131h1.6v2.4z"/></g><g><path class="st1" d="M337.3 95.9c0-.3-.1-.6-.3-.8s-.5-.4-.9-.6c-.9-.3-1.5-.7-1.9-1.1s-.6-.9-.6-1.6c0-.7.2-1.2.6-1.6s1-.7 1.7-.7v-1.3h.9v1.3c.7.1 1.2.4 1.6.9s.6 1.1.6 1.8h-1.7c0-.5-.1-.8-.3-1.1s-.4-.4-.8-.4c-.3 0-.6.1-.8.3s-.2.5-.2.8c0 .3.1.6.3.7s.5.4 1 .6c.9.3 1.5.7 1.9 1.1s.6.9.6 1.6c0 .7-.2 1.2-.6 1.6s-1 .6-1.7.7v1.2h-.9v-1.2c-.7-.1-1.3-.3-1.8-.8s-.7-1.1-.7-2h1.7c0 .5.1.9.4 1.1s.5.3.9.3.6-.1.8-.3.2-.2.2-.5zM345.1 94.9h1v1.3h-1v1.9h-1.7v-1.9H340l-.1-1 3.5-5.7h1.7v5.4zm-3.6 0h2v-3.1l-.1.2-1.9 2.9zM352.8 94.8c0 1.1-.3 2-.8 2.6s-1.2.9-2.1.9c-.9 0-1.6-.3-2.1-.9s-.8-1.4-.8-2.6v-1.9c0-1.1.3-2 .8-2.6s1.2-.9 2.1-.9c.9 0 1.6.3 2.1.9s.8 1.4.8 2.6v1.9zm-1.7-2.1c0-.7-.1-1.2-.3-1.5-.2-.3-.5-.5-.9-.5s-.7.2-.9.5-.3.8-.3 1.5v2.2c0 .7.1 1.2.3 1.5s.5.5.9.5.7-.2.9-.5.3-.8.3-1.5v-2.2zM359.6 94.8c0 1.1-.3 2-.8 2.6s-1.2.9-2.1.9c-.9 0-1.6-.3-2.1-.9s-.8-1.4-.8-2.6v-1.9c0-1.1.3-2 .8-2.6s1.2-.9 2.1-.9c.9 0 1.6.3 2.1.9s.8 1.4.8 2.6v1.9zm-1.7-2.1c0-.7-.1-1.2-.3-1.5-.2-.3-.5-.5-.9-.5s-.7.2-.9.5-.3.8-.3 1.5v2.2c0 .7.1 1.2.3 1.5s.5.5.9.5.7-.2.9-.5.3-.8.3-1.5v-2.2zM364.3 93.4h2.1v1.5h-2.1v2.4h-1.6v-2.4h-2.1v-1.5h2.1V91h1.6v2.4z"/></g><g><path class="st1" d="M337.3 55.9c0-.3-.1-.6-.3-.8s-.5-.4-.9-.6c-.9-.3-1.5-.7-1.9-1.1s-.6-.9-.6-1.6c0-.7.2-1.2.6-1.6s1-.7 1.7-.7v-1.3h.9v1.3c.7.1 1.2.4 1.6.9s.6 1.1.6 1.8h-1.7c0-.5-.1-.8-.3-1.1s-.4-.4-.8-.4c-.3 0-.6.1-.8.3s-.2.5-.2.8c0 .3.1.6.3.7s.5.4 1 .6c.9.3 1.5.7 1.9 1.1s.6.9.6 1.6c0 .7-.2 1.2-.6 1.6s-1 .6-1.7.7v1.2h-.9v-1.2c-.7-.1-1.3-.3-1.8-.8s-.7-1.1-.7-2h1.7c0 .5.1.9.4 1.1s.5.3.9.3.6-.1.8-.3.2-.2.2-.5zM346 58.1h-5.8V57l2.8-3c.4-.5.7-.8.8-1.2s.3-.6.3-.9c0-.4-.1-.7-.3-.9s-.5-.3-.8-.3c-.4 0-.7.1-.9.4s-.3.6-.3 1.1H340c0-.8.2-1.4.8-2s1.2-.8 2.1-.8c.9 0 1.6.2 2.1.7s.8 1.1.8 1.8c0 .5-.1 1-.4 1.4s-.8 1-1.4 1.7l-1.5 1.7h3.6v1.4zM347.2 54.3l.5-4.8h4.8v1.4h-3.4l-.2 2c.2-.1.3-.2.6-.3s.5-.1.7-.1c.8 0 1.5.2 1.9.7s.7 1.2.7 2.1c0 .8-.2 1.5-.7 2s-1.2.8-2.1.8c-.8 0-1.5-.2-2-.6s-.8-1-.8-1.8l1.6-.1c0 .4.1.7.3.9s.5.3.8.3c.4 0 .7-.1.9-.4s.3-.7.3-1.1c0-.5-.1-.9-.3-1.2-.2-.3-.5-.4-.9-.4-.3 0-.6.1-.8.2s-.3.3-.4.5l-1.5-.1zM359.6 54.8c0 1.1-.3 2-.8 2.6s-1.2.9-2.1.9c-.9 0-1.6-.3-2.1-.9s-.8-1.4-.8-2.6v-1.9c0-1.1.3-2 .8-2.6s1.2-.9 2.1-.9c.9 0 1.6.3 2.1.9s.8 1.4.8 2.6v1.9zm-1.7-2.1c0-.7-.1-1.2-.3-1.5-.2-.3-.5-.5-.9-.5s-.7.2-.9.5-.3.8-.3 1.5v2.2c0 .7.1 1.2.3 1.5s.5.5.9.5.7-.2.9-.5.3-.8.3-1.5v-2.2zM364.3 53.4h2.1v1.5h-2.1v2.4h-1.6v-2.4h-2.1v-1.5h2.1V51h1.6v2.4z"/></g></g><path d="M189.7 203.2l-1.3-.4.2-.7 1.3.5v-1.5h.7v1.5l1.3-.5.2.7-1.3.4.8 1.2-.6.4-.8-1.2-.8 1.2-.6-.4.9-1.2zM196.3 205.9h-2.6l-.6 1.6h-.9l2.4-6.3h.7l2.4 6.3h-.9l-.5-1.6zm-2.3-.7h2.1l-1-2.9-1.1 2.9zM199.4 207.5h-.9v-6.8h.9v6.8zM201.7 207.5h-.9v-6.8h.9v6.8zM209.2 205.3c0 .7-.2 1.2-.5 1.6-.3.4-.8.6-1.3.6-.3 0-.5 0-.8-.1-.2-.1-.4-.2-.6-.4v2.3h-.9v-6.5h.7l.1.6c.2-.2.3-.4.6-.5.2-.1.5-.2.8-.2.6 0 1 .2 1.4.7s.5 1.1.5 1.9zm-.9-.1c0-.5-.1-1-.3-1.3s-.5-.5-.9-.5c-.2 0-.5.1-.6.2s-.3.3-.4.5v2.3c.1.2.2.3.4.5s.4.2.6.2c.4 0 .7-.1.9-.4.2-.5.3-.9.3-1.5zM212.5 203.6h-.4c-.2 0-.4.1-.6.2-.2.1-.3.3-.4.5v3.4h-.9V203h.8l.1.7c.1-.2.3-.4.5-.6s.4-.2.7-.2H212.6l-.1.7zM214.2 201.6h-.9v-.9h.9v.9zm0 5.9h-.9v-4.7h.9v4.7zM217.5 206.9c.3 0 .5-.1.7-.3.2-.2.3-.4.3-.6h.8c0 .4-.2.8-.5 1.1s-.8.5-1.3.5c-.7 0-1.2-.2-1.6-.7-.4-.4-.5-1-.5-1.7v-.2c0-.7.2-1.2.5-1.7s.9-.7 1.6-.7c.5 0 1 .2 1.3.5.3.3.5.7.5 1.2h-.8c0-.3-.1-.5-.3-.7s-.5-.3-.8-.3c-.4 0-.8.2-1 .5-.2.3-.3.7-.3 1.2v.2c0 .5.1.9.3 1.2.3.4.6.5 1.1.5zM222.2 207.6c-.7 0-1.2-.2-1.6-.7-.4-.4-.6-1-.6-1.7v-.2c0-.7.2-1.2.6-1.7s.9-.7 1.4-.7c.6 0 1.1.2 1.4.6s.5.9.5 1.5v.5h-3c0 .5.1.8.3 1.1.2.3.5.4.9.4.3 0 .5 0 .8-.1l.6-.3.3.6c-.2.2-.4.3-.7.4-.2.2-.5.3-.9.3zm-.1-4.2c-.3 0-.5.1-.7.4-.2.2-.3.5-.4.9h2.2v-.1c0-.3-.1-.6-.3-.8-.2-.3-.5-.4-.8-.4zM227.7 206.3c0-.2-.1-.3-.2-.5-.1-.1-.4-.2-.8-.3-.6-.1-1-.3-1.3-.5-.3-.2-.4-.5-.4-.9s.2-.7.5-1 .7-.4 1.3-.4c.5 0 1 .1 1.3.4.3.3.5.6.5 1h-.8c0-.2-.1-.4-.3-.6-.2-.2-.4-.2-.7-.2-.3 0-.5.1-.7.2-.1.1-.2.3-.2.5s.1.3.2.4c.1.1.4.2.8.3.6.1 1 .3 1.3.5s.4.5.4.9-.2.8-.5 1-.8.4-1.3.4c-.6 0-1.1-.2-1.4-.5-.3-.3-.5-.7-.5-1.1h.8c0 .3.1.5.3.7.2.1.5.2.7.2.3 0 .5-.1.7-.2s.3-.1.3-.3zM231.6 205.2c0-.8.2-1.4.5-1.8.3-.5.8-.7 1.4-.7.3 0 .5.1.7.2.2.1.4.2.5.4v-2.6h.9v6.8h-.7l-.1-.6c-.2.2-.3.4-.6.5-.2.1-.5.2-.8.2-.6 0-1-.2-1.3-.6-.3-.4-.5-1-.5-1.8zm.9.1c0 .5.1.9.3 1.1s.5.4.9.4c.3 0 .5-.1.6-.2.2-.1.3-.3.4-.5v-2.2c-.1-.2-.3-.3-.4-.5-.2-.1-.4-.2-.6-.2-.4 0-.7.2-.9.5-.2.6-.3 1-.3 1.6zM238.8 207.6c-.7 0-1.2-.2-1.6-.7-.4-.4-.6-1-.6-1.7v-.2c0-.7.2-1.2.6-1.7s.9-.7 1.4-.7c.6 0 1.1.2 1.4.6s.5.9.5 1.5v.5h-3c0 .5.1.8.3 1.1.2.3.5.4.9.4.3 0 .5 0 .8-.1l.6-.3.3.6c-.2.2-.4.3-.7.4-.1.2-.5.3-.9.3zm-.1-4.2c-.3 0-.5.1-.7.4-.2.2-.3.5-.4.9h2.2v-.1c0-.3-.1-.6-.3-.8-.2-.3-.4-.4-.8-.4zM245.6 205.3c0 .7-.2 1.2-.5 1.6-.3.4-.8.6-1.3.6-.3 0-.5 0-.8-.1-.2-.1-.4-.2-.6-.4v2.3h-.9v-6.5h.7l.1.6c.2-.2.3-.4.6-.5.2-.1.5-.2.8-.2.6 0 1 .2 1.4.7.3.5.5 1.1.5 1.9zm-.9-.1c0-.5-.1-1-.3-1.3s-.5-.5-.9-.5c-.2 0-.5.1-.6.2s-.3.3-.4.5v2.3c.1.2.2.3.4.5s.4.2.6.2c.4 0 .7-.1.9-.4.2-.5.3-.9.3-1.5zM248.6 207.6c-.7 0-1.2-.2-1.6-.7s-.6-1-.6-1.7v-.2c0-.7.2-1.2.6-1.7.4-.4.9-.7 1.4-.7.6 0 1.1.2 1.4.6s.5.9.5 1.5v.5h-3c0 .5.1.8.3 1.1.2.3.5.4.9.4.3 0 .5 0 .8-.1l.6-.3.3.6c-.2.2-.4.3-.7.4-.2.2-.5.3-.9.3zm-.1-4.2c-.3 0-.5.1-.7.4-.2.2-.3.5-.4.9h2.2v-.1c0-.3-.1-.6-.3-.8-.2-.3-.5-.4-.8-.4zM252.1 202.8l.1.7.6-.6c.2-.1.5-.2.8-.2.5 0 .9.1 1.2.4.3.3.4.8.4 1.4v3h-.9v-2.9c0-.4-.1-.7-.2-.9-.2-.2-.4-.3-.7-.3-.2 0-.5.1-.7.2-.2.1-.3.3-.5.5v3.4h-.9v-4.7h.8zM256.2 205.2c0-.8.2-1.4.5-1.8.3-.5.8-.7 1.4-.7.3 0 .5.1.7.2.2.1.4.2.5.4v-2.6h.9v6.8h-.7l-.1-.6c-.2.2-.3.4-.6.5s-.5.2-.8.2c-.6 0-1-.2-1.3-.6-.3-.4-.5-1-.5-1.8zm.9.1c0 .5.1.9.3 1.1.2.3.5.4.9.4.3 0 .5-.1.6-.2.2-.1.3-.3.4-.5v-2.2c-.1-.2-.3-.3-.4-.5s-.4-.2-.6-.2c-.4 0-.7.2-.9.5-.2.6-.3 1-.3 1.6zM263.5 205.1c0-.7.2-1.3.6-1.7.4-.4.9-.7 1.5-.7.7 0 1.2.2 1.5.7.4.4.6 1 .6 1.7v.1c0 .7-.2 1.3-.6 1.7-.4.4-.9.7-1.5.7s-1.2-.2-1.5-.7c-.5-.4-.6-1-.6-1.8zm.8.1c0 .5.1.9.3 1.2.2.3.5.5.9.5s.7-.2.9-.5c.2-.3.3-.7.3-1.2v-.1c0-.5-.1-.9-.3-1.2s-.5-.5-.9-.5-.7.2-.9.5-.3.7-.3 1.3zM269.5 202.8l.1.7.6-.6c.2-.1.5-.2.8-.2.5 0 .9.1 1.2.4s.4.8.4 1.4v3h-.9v-2.9c0-.4-.1-.7-.2-.9-.2-.2-.4-.3-.7-.3-.2 0-.5.1-.7.2-.2.1-.3.3-.5.5v3.4h-.9v-4.7h.8zM277.9 207.6c-.7 0-1.2-.2-1.6-.7s-.6-1-.6-1.7v-.2c0-.7.2-1.2.6-1.7.4-.4.9-.7 1.4-.7.6 0 1.1.2 1.4.6s.5.9.5 1.5v.5h-3c0 .5.1.8.3 1.1.2.3.5.4.9.4.3 0 .5 0 .8-.1l.6-.3.3.6c-.2.2-.4.3-.7.4-.2.2-.5.3-.9.3zm-.1-4.2c-.3 0-.5.1-.7.4-.2.2-.3.5-.4.9h2.2v-.1c0-.3-.1-.6-.3-.8-.2-.3-.5-.4-.8-.4zM283.6 207.5c0-.1-.1-.3-.1-.4v-.3l-.6.6c-.2.2-.5.2-.8.2-.5 0-.9-.1-1.1-.4-.3-.3-.4-.6-.4-1s.2-.8.5-1.1.9-.4 1.5-.4h.9v-.5c0-.3-.1-.5-.3-.7-.2-.2-.4-.2-.7-.2-.3 0-.5.1-.7.2-.2.1-.3.3-.3.5h-.8c0-.3.1-.7.5-.9.3-.3.8-.4 1.3-.4s1 .1 1.3.4.5.7.5 1.2v2.8c0 .2 0 .3.1.5h-.8zm-1.5-.6c.3 0 .6-.1.8-.2.2-.2.4-.3.5-.5v-.8h-1c-.3 0-.6.1-.8.3-.2.2-.3.4-.3.6 0 .2.1.4.2.5.2 0 .4.1.6.1zM287.5 206.9c.3 0 .5-.1.7-.3.2-.2.3-.4.3-.6h.8c0 .4-.2.8-.5 1.1s-.8.5-1.3.5c-.7 0-1.2-.2-1.6-.7-.4-.4-.5-1-.5-1.7v-.2c0-.7.2-1.2.5-1.7s.9-.7 1.6-.7c.5 0 1 .2 1.3.5s.5.7.5 1.2h-.8c0-.3-.1-.5-.3-.7-.2-.2-.5-.3-.8-.3-.4 0-.8.2-1 .5-.2.3-.3.7-.3 1.2v.2c0 .5.1.9.3 1.2.3.4.6.5 1.1.5zM291.1 203.4c.2-.2.4-.4.6-.5.2-.1.5-.2.8-.2.5 0 .9.2 1.2.5.3.3.4.8.4 1.4v2.9h-.9v-3c0-.4-.1-.7-.2-.9-.2-.2-.4-.3-.7-.3-.2 0-.5.1-.6.2s-.4.3-.5.5v3.5h-.9v-6.8h.9v2.7zM298.5 201.6h-.9v-.9h.9v.9zm0 5.9h-.9v-4.7h.9v4.7zM300.6 202.8l.1.7.6-.6c.2-.1.5-.2.8-.2.5 0 .9.1 1.2.4s.4.8.4 1.4v3h-.9v-2.9c0-.4-.1-.7-.2-.9-.2-.2-.4-.3-.7-.3-.2 0-.5.1-.7.2-.2.1-.3.3-.5.5v3.4h-.9v-4.7h.8zM304.7 205.2c0-.8.2-1.4.5-1.8.3-.5.8-.7 1.4-.7.3 0 .5.1.7.2.2.1.4.2.5.4v-2.6h.9v6.8h-.7l-.1-.6c-.2.2-.3.4-.6.5s-.5.2-.8.2c-.6 0-1-.2-1.3-.6-.4-.4-.5-1-.5-1.8zm.8.1c0 .5.1.9.3 1.1.2.3.5.4.9.4.3 0 .5-.1.6-.2.2-.1.3-.3.4-.5v-2.2c-.1-.2-.3-.3-.4-.5-.2-.1-.4-.2-.6-.2-.4 0-.7.2-.9.5-.2.6-.3 1-.3 1.6zM310.8 201.6h-.8v-.9h.9v.9zm0 5.9h-.8v-4.7h.9v4.7zM313.7 206.1l.1.3.1-.3 1.1-3.3h.9l-1.7 4.7h-.6l-1.7-4.7h.9l.9 3.3zM317.5 201.6h-.9v-.9h.9v.9zm0 5.9h-.9v-4.7h.9v4.7zM318.7 205.2c0-.8.2-1.4.5-1.8.3-.5.8-.7 1.4-.7.3 0 .5.1.7.2.2.1.4.2.5.4v-2.6h.9v6.8h-.7l-.1-.6c-.2.2-.3.4-.6.5s-.5.2-.8.2c-.6 0-1-.2-1.3-.6-.4-.4-.5-1-.5-1.8zm.8.1c0 .5.1.9.3 1.1.2.3.5.4.9.4.3 0 .5-.1.6-.2.2-.1.3-.3.4-.5v-2.2c-.1-.2-.3-.3-.4-.5-.2-.1-.4-.2-.6-.2-.4 0-.7.2-.9.5-.2.6-.3 1-.3 1.6zM326.9 206.8c-.1.3-.3.4-.6.6-.2.1-.5.2-.8.2-.5 0-.9-.2-1.2-.5-.3-.3-.4-.8-.4-1.5v-2.8h.9v2.8c0 .5.1.8.2 1s.4.3.7.3c.3 0 .6-.1.8-.2s.3-.3.4-.5v-3.4h.9v4.7h-.8l-.1-.7zM331.9 207.5c0-.1-.1-.3-.1-.4v-.3l-.6.6c-.2.2-.5.2-.8.2-.5 0-.9-.1-1.1-.4-.3-.3-.4-.6-.4-1s.2-.8.5-1.1.9-.4 1.5-.4h.9v-.5c0-.3-.1-.5-.3-.7-.2-.2-.4-.2-.7-.2-.3 0-.5.1-.7.2-.2.1-.3.3-.3.5h-.8c0-.3.1-.7.5-.9.3-.3.8-.4 1.3-.4s1 .1 1.3.4.5.7.5 1.2v2.8c0 .2 0 .3.1.5h-.8zm-1.5-.6c.3 0 .6-.1.8-.2.2-.2.4-.3.5-.5v-.8h-1c-.3 0-.6.1-.8.3-.2.2-.3.4-.3.6 0 .2.1.4.2.5.2 0 .4.1.6.1zM334.8 207.5h-.9v-6.8h.9v6.8zM342.3 205.3c0 .7-.2 1.2-.5 1.6-.3.4-.8.6-1.3.6-.3 0-.5 0-.8-.1-.2-.1-.4-.2-.6-.4v2.3h-.9v-6.5h.7l.1.6c.2-.2.3-.4.6-.5.2-.1.5-.2.8-.2.6 0 1 .2 1.4.7.3.5.5 1.1.5 1.9zm-.8-.1c0-.5-.1-1-.3-1.3s-.5-.5-.9-.5c-.2 0-.5.1-.6.2s-.3.3-.4.5v2.3c.1.2.2.3.4.5s.4.2.6.2c.4 0 .7-.1.9-.4.1-.5.3-.9.3-1.5zM345.6 203.6h-.4c-.2 0-.4.1-.6.2-.2.1-.3.3-.4.5v3.4h-.9V203h.8l.1.7c.1-.2.3-.4.5-.6.2-.1.4-.2.7-.2H345.7l-.1.7zM346.1 205.1c0-.7.2-1.3.6-1.7.4-.4.9-.7 1.5-.7.7 0 1.2.2 1.5.7.4.4.6 1 .6 1.7v.1c0 .7-.2 1.3-.6 1.7-.4.4-.9.7-1.5.7s-1.2-.2-1.5-.7c-.4-.4-.6-1-.6-1.8zm.9.1c0 .5.1.9.3 1.2.2.3.5.5.9.5s.7-.2.9-.5c.2-.3.3-.7.3-1.2v-.1c0-.5-.1-.9-.3-1.2s-.5-.5-.9-.5-.7.2-.9.5-.3.7-.3 1.3zM352.4 202.8v5.1c0 .5-.1.9-.4 1.1-.2.3-.6.4-1 .4h-.2c-.1 0-.2 0-.2-.1l.1-.7h.4c.2 0 .3-.1.4-.2.1-.1.2-.3.2-.6v-5.1h.7zm-.1-1.2h-.9v-.9h.9v.9zM355.6 207.6c-.7 0-1.2-.2-1.6-.7s-.6-1-.6-1.7v-.2c0-.7.2-1.2.6-1.7.4-.4.9-.7 1.4-.7.6 0 1.1.2 1.4.6s.5.9.5 1.5v.5h-3c0 .5.1.8.3 1.1.2.3.5.4.9.4.3 0 .5 0 .8-.1l.6-.3.3.6c-.2.2-.4.3-.7.4-.1.2-.5.3-.9.3zm-.1-4.2c-.3 0-.5.1-.7.4-.2.2-.3.5-.4.9h2.2v-.1c0-.3-.1-.6-.3-.8-.2-.3-.4-.4-.8-.4zM360.3 206.9c.3 0 .5-.1.7-.3.2-.2.3-.4.3-.6h.8c0 .4-.2.8-.5 1.1s-.8.5-1.3.5c-.7 0-1.2-.2-1.6-.7-.4-.4-.5-1-.5-1.7v-.2c0-.7.2-1.2.5-1.7s.9-.7 1.6-.7c.5 0 1 .2 1.3.5s.5.7.5 1.2h-.8c0-.3-.1-.5-.3-.7-.2-.2-.5-.3-.8-.3-.4 0-.8.2-1 .5-.2.3-.3.7-.3 1.2v.2c0 .5.1.9.3 1.2.3.4.6.5 1.1.5zM364.2 201.7v1.1h.9v.6h-.9v2.9c0 .2 0 .4.1.5s.2.1.4.1h.4l.1.6c-.1.1-.2.1-.3.1h-.4c-.3 0-.6-.1-.8-.3-.2-.2-.3-.5-.3-1v-2.9h-.7v-.6h.7v-1.1h.8zM367.1 207.5h-.9v-.9h.9v.9z"/></svg>