<svg id="_x23_1" xmlns="http://www.w3.org/2000/svg" viewBox="0 0 420.7 219.3"><style>.st0{fill:#6da2a3}.st1{fill:#859f24}</style><g id="Left_Text"><path d="M12.8 51.5H17v.6h-4.9v-8.5h.7v7.9zM17.9 48.8c0-.9.3-1.7.8-2.3s1.2-.9 2-.9 1.5.3 2 .9.8 1.4.8 2.3v.2c0 .9-.3 1.7-.8 2.3s-1.2.9-2 .9c-.9 0-1.5-.3-2-.9s-.8-1.3-.8-2.3v-.2zm.7.2c0 .7.2 1.4.6 1.8s.9.7 1.6.7c.7 0 1.2-.2 1.5-.7s.6-1.1.6-1.8v-.2c0-.7-.2-1.3-.6-1.8s-.9-.8-1.5-.8-1.2.3-1.5.8-.6 1.1-.6 1.8v.2zM24.7 49c0-1 .2-1.8.6-2.4s1-.9 1.8-.9c.4 0 .8.1 1.2.3s.6.5.8.8l.1-1h.6V52c0 .8-.2 1.5-.7 1.9s-1.1.7-1.9.7c-.3 0-.6 0-1-.1s-.6-.2-.9-.3l.2-.6c.2.1.5.2.8.3s.6.1.9.1c.6 0 1.1-.2 1.4-.5s.5-.8.5-1.5v-.8c-.2.3-.5.6-.8.7s-.7.3-1.1.3c-.8 0-1.4-.3-1.8-.8s-.6-1.3-.6-2.3V49zm.7.1c0 .8.2 1.4.5 1.8s.8.7 1.4.7c.5 0 .8-.1 1.1-.3.3-.2.5-.5.7-.9v-2.9c-.2-.4-.4-.7-.7-.9-.3-.2-.7-.4-1.2-.4-.6 0-1.1.3-1.4.8s-.5 1.2-.5 2v.1zM31.2 48.8c0-.9.3-1.7.8-2.3.5-.6 1.2-.9 2-.9s1.5.3 2 .9.8 1.4.8 2.3v.2c0 .9-.3 1.7-.8 2.3s-1.2.9-2 .9c-.9 0-1.5-.3-2-.9-.5-.6-.8-1.4-.8-2.3v-.2zm.7.2c0 .7.2 1.4.6 1.8s.9.7 1.6.7c.7 0 1.2-.2 1.5-.7s.6-1.1.6-1.8v-.2c0-.7-.2-1.3-.6-1.8s-.9-.8-1.5-.8-1.2.3-1.5.8-.6 1.1-.6 1.8v.2zM38.2 52.8h-.6l3.6-9.3h.6l-3.6 9.3zM44.1 52.1h-.7v-8.5h.7v8.5zM46.9 45.8l.1 1.1c.2-.4.5-.7.8-.9s.8-.3 1.2-.3c.7 0 1.2.2 1.6.6s.5 1.1.5 2v3.9h-.7v-3.9c0-.7-.1-1.2-.4-1.5s-.7-.5-1.2-.5-.9.1-1.2.4-.5.6-.7 1v4.4h-.7v-6.3h.7zM54.1 44.1v1.6h1.4v.6h-1.4v4.1c0 .4.1.7.2.9s.4.3.6.3h.7l.1.5c-.1.1-.3.1-.4.1h-.5c-.4 0-.8-.1-1-.4s-.4-.7-.4-1.3v-4.1h-1.1v-.6h1.1v-1.6h.7zM59.9 46.4h-.5c-.4 0-.8.1-1.1.4s-.5.6-.6 1v4.4H57v-6.3h.6l.1 1.1v.1c.2-.4.4-.7.7-.9s.7-.3 1.1-.3h.5l-.1.5zM60.5 48.8c0-.9.3-1.7.8-2.3s1.2-.9 2-.9 1.5.3 2 .9.8 1.4.8 2.3v.2c0 .9-.3 1.7-.8 2.3s-1.2.9-2 .9c-.9 0-1.5-.3-2-.9s-.8-1.3-.8-2.3v-.2zm.7.2c0 .7.2 1.4.6 1.8s.9.7 1.6.7c.7 0 1.2-.2 1.5-.7s.6-1.1.6-1.8v-.2c0-.7-.2-1.3-.6-1.8s-.9-.8-1.5-.8-1.2.3-1.5.8-.6 1.1-.6 1.8v.2zM75.3 49.7h-3.9l-.9 2.4h-.7l3.2-8.5h.7l3.2 8.5h-.7l-.9-2.4zm-3.7-.6H75l-1.7-4.6-1.7 4.6zM78.6 45.8l.1 1.1c.2-.4.5-.7.8-.9s.8-.3 1.2-.3c.7 0 1.2.2 1.6.6s.5 1.1.5 2v3.9h-.7v-3.9c0-.7-.1-1.2-.4-1.5s-.7-.5-1.2-.5-.9.1-1.2.4-.5.6-.7 1v4.4H78v-6.3h.6zM85.5 44h-.7v-1h.7v1zm0 8.1h-.7v-6.3h.7v6.3zM88 45.8l.1 1c.2-.4.5-.7.8-.9s.7-.3 1.2-.3.9.1 1.2.4.6.6.7 1.1c.2-.4.5-.8.8-1s.8-.4 1.3-.4c.7 0 1.2.2 1.6.7s.6 1.1.6 2.1v3.7h-.7v-3.7c0-.8-.1-1.3-.4-1.7s-.7-.5-1.2-.5-1 .2-1.3.5c-.3.3-.5.8-.6 1.3v4h-.7v-3.7c0-.8-.1-1.3-.4-1.6-.3-.3-.7-.5-1.2-.5s-.9.1-1.2.4-.5.6-.6 1v4.5h-.7v-6.3h.7zM102.1 52.1c0-.2-.1-.4-.1-.6V51c-.2.3-.5.6-.9.8s-.8.3-1.3.3c-.6 0-1.1-.2-1.4-.5s-.5-.8-.5-1.3c0-.6.3-1.1.8-1.4s1.2-.5 2-.5h1.4v-.8c0-.5-.1-.8-.4-1.1s-.7-.4-1.2-.4-.9.1-1.2.4-.5.5-.5.9h-.6c0-.5.2-.9.6-1.3s1-.6 1.7-.6 1.3.2 1.7.5.6.9.6 1.5v3.8c0 .3.1.4.1.6h-.8zm-2.3-.5c.5 0 .9-.1 1.3-.4s.7-.5.8-.9V49h-1.4c-.6 0-1.1.1-1.5.4s-.6.6-.6 1c0 .3.1.6.4.8s.6.4 1 .4zM105.6 44.1v1.6h1.4v.6h-1.4v4.1c0 .4.1.7.2.9s.4.3.6.3h.7l.1.5c-.1.1-.3.1-.4.1h-.5c-.4 0-.8-.1-1-.4s-.4-.7-.4-1.3v-4.1h-1.1v-.6h1.1v-1.6h.7zM109.3 44h-.7v-1h.7v1zm0 8.1h-.7v-6.3h.7v6.3zM110.8 48.8c0-.9.3-1.7.8-2.3s1.2-.9 2-.9 1.5.3 2 .9.8 1.4.8 2.3v.2c0 .9-.3 1.7-.8 2.3s-1.2.9-2 .9c-.9 0-1.5-.3-2-.9s-.8-1.4-.8-2.3v-.2zm.7.2c0 .7.2 1.4.6 1.8s.9.7 1.6.7c.7 0 1.2-.2 1.5-.7s.6-1.1.6-1.8v-.2c0-.7-.2-1.3-.6-1.8s-.9-.8-1.5-.8-1.2.3-1.5.8-.6 1.1-.6 1.8v.2zM118.5 45.8l.1 1.1c.2-.4.5-.7.8-.9s.8-.3 1.2-.3c.7 0 1.2.2 1.6.6s.5 1.1.5 2v3.9h-.7v-3.9c0-.7-.1-1.2-.4-1.5s-.7-.5-1.2-.5-.9.1-1.2.4-.5.6-.7 1v4.4h-.7v-6.3h.7zM125.4 46.7h-.8v-1h.8v1zm0 5.4h-.8v-1h.8v1z"/><g><path d="M29 90c0-.5-.2-.8-.5-1.1s-1-.6-1.8-.8c-.9-.2-1.6-.5-2.1-.9s-.7-.9-.7-1.5c0-.7.3-1.2.8-1.6s1.2-.6 2.1-.6c.9 0 1.6.2 2.1.7s.8 1.1.8 1.8h-.6c0-.6-.2-1-.6-1.4s-1-.6-1.6-.6c-.7 0-1.2.2-1.6.5s-.6.7-.6 1.1c0 .4.2.8.5 1.1s1 .5 1.8.8c.9.2 1.6.6 2.1.9s.7.9.7 1.6c0 .7-.3 1.2-.8 1.6s-1.3.6-2.1.6c-.9 0-1.6-.2-2.2-.6s-.9-1.1-.9-1.9h.6c0 .7.2 1.2.7 1.5s1.1.5 1.8.5 1.2-.1 1.6-.4.5-.8.5-1.3zM30.7 88.8c0-.9.3-1.7.8-2.3.5-.6 1.2-.9 2-.9s1.5.3 2 .9.8 1.4.8 2.3v.2c0 .9-.3 1.7-.8 2.3s-1.2.9-2 .9c-.9 0-1.5-.3-2-.9-.5-.6-.8-1.3-.8-2.3v-.2zm.7.2c0 .7.2 1.4.6 1.8.4.5.9.7 1.6.7.7 0 1.2-.2 1.5-.7s.6-1.1.6-1.8v-.2c0-.7-.2-1.3-.6-1.8s-.9-.8-1.5-.8-1.2.3-1.6.8c-.4.5-.6 1.1-.6 1.8v.2zM40.2 91.6c.5 0 .9-.1 1.2-.4s.5-.6.5-1.1h.6c0 .6-.2 1.1-.7 1.5s-1.1.6-1.7.6c-.9 0-1.5-.3-2-.9s-.7-1.4-.7-2.3v-.2c0-.9.2-1.7.7-2.3s1.1-.9 2-.9c.7 0 1.3.2 1.7.6s.7.9.7 1.6h-.6c0-.5-.2-.9-.5-1.2s-.8-.5-1.3-.5c-.7 0-1.2.2-1.5.7-.3.5-.5 1.1-.5 1.8v.2c0 .7.2 1.4.5 1.8s.9 1 1.6 1zM44.8 84h-.7v-1h.7v1zm0 8.1h-.7v-6.3h.7v6.3zM50.8 92.1c0-.2-.1-.4-.1-.6V91c-.2.3-.5.6-.9.8s-.8.3-1.3.3c-.6 0-1.1-.2-1.4-.5s-.5-.8-.5-1.3c0-.6.3-1.1.8-1.4s1.2-.5 2-.5h1.4v-.8c0-.5-.1-.8-.4-1.1s-.7-.4-1.2-.4-.9.1-1.2.4-.5.5-.5.9h-.6c0-.5.2-.9.6-1.3s1-.6 1.7-.6 1.3.2 1.7.5.6.9.6 1.5v3.8c0 .3.1.4.1.6h-.8zm-2.3-.5c.5 0 .9-.1 1.3-.4s.7-.5.8-.9V89h-1.4c-.6 0-1.1.1-1.5.4s-.6.6-.6 1c0 .3.1.6.4.8s.6.4 1 .4zM54 92.1h-.7V83h.7v9.1zM55.8 92.8h-.6l3.6-9.3h.6l-3.6 9.3zM66.8 89.4c-.1.9-.4 1.6-.9 2.1s-1.3.7-2.2.7c-.9 0-1.7-.3-2.3-1s-.9-1.6-.9-2.7v-1.4c0-1.1.3-2 .9-2.7s1.3-1 2.3-1c.9 0 1.6.2 2.2.7s.8 1.2.9 2h-.7c-.1-.7-.3-1.2-.7-1.6s-.9-.6-1.7-.6c-.7 0-1.3.3-1.8.9s-.7 1.3-.7 2.2v1.4c0 .9.2 1.7.7 2.2.5.6 1 .9 1.8.9.7 0 1.3-.2 1.7-.5s.6-.9.7-1.6h.7zM68 88.8c0-.9.3-1.7.8-2.3s1.2-.9 2-.9 1.5.3 2 .9.8 1.4.8 2.3v.2c0 .9-.3 1.7-.8 2.3s-1.2.9-2 .9c-.9 0-1.5-.3-2-.9S68 90 68 89v-.2zm.7.2c0 .7.2 1.4.6 1.8s.9.7 1.6.7c.7 0 1.2-.2 1.5-.7s.6-1.1.6-1.8v-.2c0-.7-.2-1.3-.6-1.8s-.9-.8-1.5-.8-1.2.3-1.5.8-.6 1.1-.6 1.8v.2zM75.7 85.8l.1 1c.2-.4.5-.7.8-.9s.7-.3 1.2-.3.9.1 1.2.4.6.6.7 1.1c.2-.4.5-.8.8-1s.8-.4 1.3-.4c.7 0 1.2.2 1.6.7s.6 1.1.6 2.1v3.7h-.7v-3.7c0-.8-.1-1.3-.4-1.7s-.7-.5-1.2-.5-1 .2-1.3.5c-.3.3-.5.8-.6 1.3v4h-.7v-3.7c0-.8-.1-1.3-.4-1.6-.3-.3-.7-.5-1.2-.5s-.9.1-1.2.4-.5.6-.6 1v4.5H75v-6.3h.7zM86.3 85.8l.1 1c.2-.4.5-.7.8-.9s.7-.3 1.2-.3.9.1 1.2.4.6.6.7 1.1c.2-.4.5-.8.8-1s.8-.4 1.3-.4c.7 0 1.2.2 1.6.7s.6 1.1.6 2.1v3.7h-.7v-3.7c0-.8-.1-1.3-.4-1.7s-.7-.5-1.2-.5-1 .2-1.3.5c-.3.3-.5.8-.6 1.3v4h-.7v-3.7c0-.8-.1-1.3-.4-1.6-.3-.3-.7-.5-1.2-.5s-.9.1-1.2.4-.5.6-.6 1v4.5h-.7v-6.3h.7zM98.7 92.2c-.8 0-1.5-.3-2-.9S96 90 96 89.1v-.3c0-.9.3-1.7.8-2.3s1.2-.9 1.9-.9c.8 0 1.4.2 1.8.7s.7 1.1.7 2v.7h-4.5v.2c0 .7.2 1.3.6 1.8s.9.7 1.5.7c.4 0 .8-.1 1.1-.2s.6-.3.8-.5l.3.5c-.2.3-.5.5-.9.6-.4.1-.9.1-1.4.1zm-.1-6c-.5 0-1 .2-1.3.6-.4.4-.6.9-.6 1.5h3.7v-.2c0-.5-.2-1-.5-1.4s-.7-.5-1.3-.5zM105.4 86.4h-.5c-.4 0-.8.1-1.1.4s-.5.6-.6 1v4.4h-.7v-6.3h.6l.1 1.1v.1c.2-.4.4-.7.7-.9s.7-.3 1.1-.3h.5l-.1.5zM108.8 91.6c.5 0 .9-.1 1.2-.4s.5-.6.5-1.1h.6c0 .6-.2 1.1-.7 1.5s-1.1.6-1.7.6c-.9 0-1.5-.3-2-.9s-.7-1.4-.7-2.3v-.2c0-.9.2-1.7.7-2.3s1.1-.9 2-.9c.7 0 1.3.2 1.7.6s.7.9.7 1.6h-.6c0-.5-.2-.9-.5-1.2s-.8-.5-1.3-.5c-.7 0-1.2.2-1.5.7-.3.5-.5 1.1-.5 1.8v.2c0 .7.2 1.4.5 1.8s1 1 1.6 1zM113.5 84h-.7v-1h.7v1zm0 8.1h-.7v-6.3h.7v6.3zM119.5 92.1c0-.2-.1-.4-.1-.6V91c-.2.3-.5.6-.9.8s-.8.3-1.3.3c-.6 0-1.1-.2-1.4-.5s-.5-.8-.5-1.3c0-.6.3-1.1.8-1.4s1.2-.5 2-.5h1.4v-.8c0-.5-.1-.8-.4-1.1s-.7-.4-1.2-.4-.9.1-1.2.4-.5.5-.5.9h-.6c0-.5.2-.9.6-1.3s1-.6 1.7-.6 1.3.2 1.7.5.6.9.6 1.5v3.8c0 .3.1.4.1.6h-.8zm-2.4-.5c.5 0 .9-.1 1.3-.4s.7-.5.8-.9V89h-1.4c-.6 0-1.1.1-1.5.4s-.6.6-.6 1c0 .3.1.6.4.8s.6.4 1 .4zM122.7 92.1h-.7V83h.7v9.1zM125.4 86.7h-.8v-1h.8v1zm0 5.4h-.8v-1h.8v1z"/></g><g><path d="M48.9 128h-4.1v3.5h4.7v.6h-5.4v-8.5h5.4v.6h-4.7v3.2h4.1v.6zM52.8 128.4l1.7-2.6h.8l-2.2 3.1 2.2 3.2h-.8l-1.8-2.7-1.8 2.7h-.8l2.2-3.2-2.2-3.1h.8l1.9 2.6zM61.8 129.1c0 .9-.2 1.7-.6 2.3-.4.6-1 .8-1.8.8-.4 0-.8-.1-1.2-.3s-.6-.4-.8-.7v3.3h-.7v-8.8h.6l.1 1c.2-.4.5-.6.8-.8s.7-.3 1.2-.3c.8 0 1.4.3 1.8.9s.6 1.4.6 2.4v.2zm-.7-.1c0-.8-.2-1.5-.5-2s-.8-.8-1.4-.8c-.5 0-.9.1-1.2.3-.3.2-.5.5-.7.9v3.1c.2.3.4.6.7.8s.7.3 1.1.3c.6 0 1.1-.2 1.4-.7.3-.5.5-1.1.5-1.8v-.1zM64.2 132.1h-.7V123h.7v9.1zM70.1 132.1c0-.2-.1-.4-.1-.6v-.5c-.2.3-.5.6-.9.8s-.8.3-1.3.3c-.6 0-1.1-.2-1.4-.5s-.5-.8-.5-1.3c0-.6.3-1.1.8-1.4s1.2-.5 2-.5H70v-.8c0-.5-.1-.8-.4-1.1s-.7-.4-1.2-.4-.9.1-1.2.4-.5.5-.5.9h-.6c0-.5.2-.9.6-1.3s1-.6 1.7-.6 1.3.2 1.7.5.6.9.6 1.5v3.7c0 .2.1.4.1.6h-.7zm-2.3-.5c.5 0 .9-.1 1.3-.4s.7-.5.8-.9V129h-1.4c-.6 0-1.1.1-1.5.4s-.6.6-.6 1c0 .3.1.6.4.8s.6.4 1 .4zM73.4 124h-.7v-1h.7v1zm0 8.1h-.7v-6.3h.7v6.3zM75.9 125.8l.1 1.1c.2-.4.5-.7.8-.9s.8-.3 1.2-.3c.7 0 1.2.2 1.6.6s.5 1.1.5 2v3.9h-.7v-3.9c0-.7-.1-1.2-.4-1.5s-.7-.5-1.2-.5-.9.1-1.2.4-.5.6-.7 1v4.4h-.7v-6.3h.7zM84.3 132.2c-.8 0-1.5-.3-2-.9-.5-.6-.8-1.3-.8-2.2v-.3c0-.9.3-1.7.8-2.3s1.2-.9 1.9-.9c.8 0 1.4.2 1.8.7s.7 1.1.7 2v.6h-4.5v.2c0 .7.2 1.3.6 1.8s.9.7 1.5.7c.4 0 .8-.1 1.1-.2s.6-.3.8-.5l.3.5c-.2.3-.5.5-.9.6-.3.2-.7.2-1.3.2zm0-6c-.5 0-1 .2-1.3.6-.4.4-.6.9-.6 1.5h3.7v-.2c0-.5-.2-1-.5-1.4s-.8-.5-1.3-.5zM91.1 126.4h-.5c-.4 0-.8.1-1.1.4s-.5.6-.6 1v4.4h-.7v-6.3h.6l.1 1.1v.1c.2-.4.4-.7.7-.9s.7-.3 1.1-.3h.5l-.1.5zM97.7 130.7l.2.6.2-.6 2.6-7.1h.8l-3.2 8.5h-.7l-3.2-8.5h.8l2.5 7.1zM103.3 124h-.7v-1h.7v1zm0 8.1h-.7v-6.3h.7v6.3zM105 129c0-1 .2-1.8.6-2.4s1-.9 1.8-.9c.4 0 .8.1 1.1.3s.6.5.8.8V123h.7v9.1h-.6l-.1-.9c-.2.3-.5.6-.8.8s-.7.3-1.2.3c-.8 0-1.4-.3-1.8-.8-.4-.6-.6-1.3-.6-2.3v-.2zm.7.1c0 .8.2 1.4.5 1.8.3.5.8.7 1.4.7.5 0 .8-.1 1.1-.3s.5-.5.7-.8v-3c-.2-.4-.4-.7-.7-.9s-.7-.3-1.1-.3c-.6 0-1.1.3-1.4.8-.3.5-.5 1.2-.5 2zM114.3 132.2c-.8 0-1.5-.3-2-.9-.5-.6-.8-1.3-.8-2.2v-.3c0-.9.3-1.7.8-2.3s1.2-.9 1.9-.9c.8 0 1.4.2 1.8.7s.7 1.1.7 2v.6h-4.5v.2c0 .7.2 1.3.6 1.8s.9.7 1.5.7c.4 0 .8-.1 1.1-.2s.6-.3.8-.5l.3.5c-.2.3-.5.5-.9.6-.3.2-.8.2-1.3.2zm-.1-6c-.5 0-1 .2-1.3.6-.4.4-.6.9-.6 1.5h3.7v-.2c0-.5-.2-1-.5-1.4s-.7-.5-1.3-.5zM117.7 128.8c0-.9.3-1.7.8-2.3s1.2-.9 2-.9 1.5.3 2 .9.8 1.4.8 2.3v.2c0 .9-.3 1.7-.8 2.3-.5.6-1.2.9-2 .9-.9 0-1.5-.3-2-.9-.5-.6-.8-1.4-.8-2.3v-.2zm.8.2c0 .7.2 1.4.6 1.8s.9.7 1.6.7c.7 0 1.2-.2 1.5-.7s.6-1.1.6-1.8v-.2c0-.7-.2-1.3-.6-1.8s-.9-.8-1.5-.8-1.2.3-1.5.8-.6 1.1-.6 1.8v.2zM125.6 126.7h-.8v-1h.8v1zm0 5.4h-.8v-1h.8v1z"/></g><g><path d="M54.4 167.5h.8c.6 0 1.1-.2 1.4-.5s.5-.7.5-1.2-.2-1-.5-1.3-.7-.5-1.3-.5c-.5 0-1 .2-1.3.5s-.5.7-.5 1.3h-.7c0-.7.2-1.2.7-1.7s1.1-.7 1.8-.7c.8 0 1.4.2 1.8.6s.7 1 .7 1.7c0 .4-.1.8-.4 1.1s-.6.6-1.1.8c.5.2.9.4 1.2.8s.4.8.4 1.3c0 .8-.2 1.4-.7 1.8s-1.1.7-1.9.7c-.7 0-1.4-.2-1.9-.6s-.8-1-.8-1.8h.7c0 .5.2 1 .6 1.3.4.3.9.5 1.5.5s1.1-.2 1.4-.5c.3-.3.5-.8.5-1.3 0-.6-.2-1-.5-1.3s-.9-.4-1.5-.4h-.8v-.6zM59.8 172.1v-8.5h2.5c1 0 1.9.3 2.6 1s1 1.6 1 2.7v1.1c0 1.1-.3 2-1 2.7s-1.5 1-2.6 1h-2.5zm.7-7.9v7.3h1.8c.8 0 1.5-.3 2.1-.9.5-.6.8-1.3.8-2.2v-1.1c0-.9-.3-1.6-.8-2.2-.5-.6-1.2-.9-2.1-.9h-1.8zM75.1 169.7h-3.9l-.9 2.4h-.7l3.2-8.5h.7l3.2 8.5H76l-.9-2.4zm-3.6-.6h3.4l-1.7-4.6-1.7 4.6zM78.5 165.8l.1 1.1c.2-.4.5-.7.8-.9s.8-.3 1.2-.3c.7 0 1.2.2 1.6.6s.5 1.1.5 2v3.9H82v-3.9c0-.7-.1-1.2-.4-1.5-.3-.3-.7-.5-1.2-.5s-.9.1-1.2.4c-.3.3-.5.6-.7 1v4.4h-.7v-6.3h.7zM85.3 164h-.7v-1h.7v1zm0 8.1h-.7v-6.3h.7v6.3zM87.9 165.8l.1 1c.2-.4.5-.7.8-.9s.7-.3 1.2-.3.9.1 1.2.4.6.6.7 1.1c.2-.4.5-.8.8-1s.8-.4 1.3-.4c.7 0 1.2.2 1.6.7s.6 1.1.6 2.1v3.7h-.7v-3.7c0-.8-.1-1.3-.4-1.7-.3-.3-.7-.5-1.2-.5s-1 .2-1.3.5c-.3.3-.5.8-.6 1.3v4h-.7v-3.7c0-.8-.1-1.3-.4-1.6-.3-.3-.7-.5-1.2-.5s-.9.1-1.2.4c-.3.3-.5.6-.6 1v4.5h-.7v-6.3h.7zM101.9 172.1c0-.2-.1-.4-.1-.6v-.5c-.2.3-.5.6-.9.8s-.8.3-1.3.3c-.6 0-1.1-.2-1.4-.5s-.5-.8-.5-1.3c0-.6.3-1.1.8-1.4s1.2-.5 2-.5h1.4v-.8c0-.5-.1-.8-.4-1.1s-.7-.4-1.2-.4-.9.1-1.2.4-.5.5-.5.9H98c0-.5.2-.9.6-1.3s1-.6 1.7-.6 1.3.2 1.7.5.6.9.6 1.5v3.8c0 .3.1.4.1.6h-.8zm-2.3-.5c.5 0 .9-.1 1.3-.4s.7-.5.8-.9V169h-1.4c-.6 0-1.1.1-1.5.4s-.6.6-.6 1c0 .3.1.6.4.8s.6.4 1 .4zM105.5 164.1v1.6h1.4v.6h-1.4v4.1c0 .4.1.7.2.9s.4.3.6.3h.3c.1 0 .2 0 .4-.1l.1.5c-.1.1-.3.1-.4.1h-.5c-.4 0-.8-.1-1-.4s-.4-.7-.4-1.3v-4.1h-1.1v-.6h1.1v-1.6h.7zM109.1 164h-.7v-1h.7v1zm0 8.1h-.7v-6.3h.7v6.3zM110.7 168.8c0-.9.3-1.7.8-2.3s1.2-.9 2-.9 1.5.3 2 .9.8 1.4.8 2.3v.2c0 .9-.3 1.7-.8 2.3s-1.2.9-2 .9c-.9 0-1.5-.3-2-.9s-.8-1.4-.8-2.3v-.2zm.7.2c0 .7.2 1.3.6 1.8.4.5.9.7 1.6.7.7 0 1.2-.2 1.5-.7.4-.5.6-1.1.6-1.8v-.2c0-.7-.2-1.3-.6-1.8-.4-.5-.9-.8-1.5-.8s-1.2.3-1.5.8c-.4.5-.6 1.1-.6 1.8v.2zM118.4 165.8l.1 1.1c.2-.4.5-.7.8-.9s.8-.3 1.2-.3c.7 0 1.2.2 1.6.6s.5 1.1.5 2v3.9h-.7v-3.9c0-.7-.1-1.2-.4-1.5-.3-.3-.7-.5-1.2-.5s-.9.1-1.2.4c-.3.3-.5.6-.7 1v4.4h-.7v-6.3h.7zM125.2 166.7h-.8v-1h.8v1zm0 5.4h-.8v-1h.8v1z"/></g></g><g id="Lines"><path class="st0" d="M414.5 215.9h-273c-2.2 0-3.9-1.8-3.9-3.9V29.7c0-2.2 1.8-3.9 3.9-3.9h273c2.2 0 3.9 1.8 3.9 3.9V212c0 2.1-1.8 3.9-3.9 3.9zM141.4 26.8c-1.6 0-2.9 1.3-2.9 2.9V212c0 1.6 1.3 2.9 2.9 2.9h273c1.6 0 2.9-1.3 2.9-2.9V29.7c0-1.6-1.3-2.9-2.9-2.9h-273zM3.3 58.6H132v1H3.3zM3.3 98.6H132v1H3.3zM3.3 138.6H132v1H3.3zM3.3 178.6H132v1H3.3z"/><g><path class="st0" d="M143.3 58.6H272v1H143.3zM143.3 98.6H272v1H143.3zM143.3 138.6H272v1H143.3zM143.3 178.6H272v1H143.3z"/></g><g><path class="st0" d="M283.3 58.6H412v1H283.3zM283.3 98.6H412v1H283.3zM283.3 138.6H412v1H283.3zM283.3 178.6H412v1H283.3z"/></g><path class="st0" d="M277.4 31.8h1v143.4h-1z"/></g><g id="Choices"><path d="M190.7 12.7h-1.2v-8h-1.9v-.8l3.1-.3v9.1zM200.3 9.2c0 1.2-.3 2.1-.8 2.7-.5.6-1.2.9-2.1.9s-1.6-.3-2.1-.9c-.5-.6-.8-1.5-.8-2.7V7c0-1.2.3-2.1.8-2.7.5-.6 1.2-.9 2.1-.9.9 0 1.6.3 2.1.9.5.6.8 1.5.8 2.7v2.2zM199 6.8c0-.8-.1-1.4-.4-1.8-.3-.4-.7-.6-1.2-.6s-1 .2-1.2.6c-.3.4-.4 1-.4 1.8v2.7c0 .8.1 1.4.4 1.8.3.4.7.6 1.3.6s1-.2 1.2-.6.4-1 .4-1.8V6.8zM204.3 9.3h-3.1v-1h3.1v1zM206.9 7.5h1.1c.5 0 .9-.1 1.2-.4.2-.3.3-.7.3-1.1 0-.5-.1-.9-.4-1.2-.3-.3-.6-.4-1.2-.4-.5 0-.9.1-1.2.4s-.4.7-.4 1.1h-1.2c0-.7.2-1.3.8-1.8.5-.5 1.2-.7 2-.7s1.5.2 2 .7c.5.5.8 1.1.8 1.9 0 .4-.1.8-.3 1.1-.2.4-.6.7-1 .9.5.2.9.5 1.2.8.2.4.3.8.3 1.3 0 .8-.3 1.5-.8 2s-1.2.7-2.1.7c-.8 0-1.5-.2-2.1-.7-.5-.5-.8-1.1-.8-1.8h1.2c0 .5.1.9.4 1.1s.7.4 1.2.4.9-.1 1.2-.4.4-.7.4-1.3c0-.6-.1-1-.4-1.2-.3-.3-.7-.4-1.3-.4h-1.1v-1zM218.3 9.2c0 1.2-.3 2.1-.8 2.7-.5.6-1.2.9-2.1.9s-1.6-.3-2.1-.9c-.5-.6-.8-1.5-.8-2.7V7c0-1.2.3-2.1.8-2.7.5-.6 1.2-.9 2.1-.9.9 0 1.6.3 2.1.9.5.6.8 1.5.8 2.7v2.2zm-1.2-2.4c0-.8-.1-1.4-.4-1.8-.3-.4-.7-.6-1.2-.6s-1 .2-1.2.6c-.3.4-.4 1-.4 1.8v2.7c0 .8.1 1.4.4 1.8.3.4.7.6 1.3.6s1-.2 1.2-.6.4-1 .4-1.8V6.8zM223.9 10.9c0-.3-.1-.5-.3-.7-.2-.2-.6-.3-1.2-.5-.8-.2-1.4-.4-1.9-.7-.4-.3-.6-.7-.6-1.3 0-.6.2-1 .7-1.4.5-.4 1.1-.6 1.8-.6.8 0 1.4.2 1.9.6s.7.9.7 1.5h-1.2c0-.3-.1-.6-.4-.8-.2-.2-.6-.4-1-.4s-.8.1-1 .3c-.2.2-.3.4-.3.7 0 .3.1.5.3.6.2.2.6.3 1.2.4.9.2 1.5.4 1.9.8s.6.7.6 1.3c0 .6-.2 1.1-.7 1.5-.5.4-1.1.6-1.9.6-.9 0-1.6-.2-2.1-.7-.5-.4-.7-1-.7-1.5h1.2c0 .4.2.8.5 1 .3.2.7.3 1.1.3.4 0 .8-.1 1-.3.3-.2.4-.4.4-.7zM229.5 12.8c-.9 0-1.7-.3-2.3-.9s-.8-1.5-.8-2.5v-.2c0-1 .3-1.8.9-2.4s1.3-1 2-1c.9 0 1.6.3 2.1.8.5.6.7 1.3.7 2.2v.8h-4.4c0 .7.2 1.2.5 1.6.3.4.8.6 1.3.6.4 0 .8-.1 1.1-.2.3-.1.6-.3.8-.5l.5.8c-.2.2-.6.4-1 .6-.4.3-.8.3-1.4.3zm-.2-6.1c-.4 0-.8.2-1.1.5-.3.3-.5.8-.5 1.3h3.1v-.1c0-.5-.1-.9-.4-1.2s-.6-.5-1.1-.5zM236.2 11.9c.4 0 .8-.1 1.1-.4.3-.3.5-.6.5-.9h1.1c0 .6-.2 1.1-.8 1.6s-1.2.7-1.9.7c-1 0-1.7-.3-2.3-1s-.8-1.5-.8-2.4v-.3c0-1 .3-1.8.8-2.4.5-.6 1.3-1 2.3-1 .8 0 1.4.2 2 .7s.8 1 .7 1.7h-1.1c0-.4-.1-.8-.4-1.1-.3-.3-.7-.4-1.1-.4-.7 0-1.1.2-1.4.7-.3.5-.4 1-.4 1.7v.3c0 .7.1 1.3.4 1.7.2.5.7.8 1.3.8z"/><g><path d="M325.4 7.5h1.1c.5 0 .9-.1 1.2-.4s.3-.6.3-1.1c0-.5-.1-.9-.4-1.2-.3-.3-.6-.4-1.2-.4-.5 0-.9.1-1.2.4-.3.3-.4.7-.4 1.1h-1.2c0-.7.2-1.3.8-1.8.5-.5 1.2-.7 2-.7s1.5.2 2 .7c.5.5.8 1.1.8 1.9 0 .4-.1.8-.3 1.1s-.6.7-1 .9c.5.2.9.5 1.2.8.2.4.3.8.3 1.3 0 .8-.3 1.5-.8 2s-1.2.7-2.1.7c-.8 0-1.5-.2-2.1-.7-.5-.5-.8-1.1-.8-1.8h1.2c0 .5.1.9.4 1.1.3.3.7.4 1.2.4s.9-.1 1.2-.4.4-.7.4-1.3c0-.6-.1-1-.4-1.2-.3-.3-.7-.4-1.3-.4h-1.1v-1zM336.8 9.2c0 1.2-.3 2.1-.8 2.7-.5.6-1.2.9-2.1.9-.9 0-1.6-.3-2.1-.9-.5-.6-.8-1.5-.8-2.7V7c0-1.2.3-2.1.8-2.7.5-.6 1.2-.9 2.1-.9.9 0 1.6.3 2.1.9.5.6.8 1.5.8 2.7v2.2zm-1.3-2.4c0-.8-.1-1.4-.4-1.8-.3-.4-.7-.6-1.2-.6s-1 .2-1.2.6-.4 1-.4 1.8v2.7c0 .8.1 1.4.4 1.8.3.4.7.6 1.3.6.5 0 1-.2 1.2-.6s.4-1 .4-1.8V6.8zM340.8 9.3h-3.1v-1h3.1v1zM345.3 12.7h-1.2v-8h-1.9v-.8l3.1-.3v9.1zM350.3 5.9l.1.9c.2-.3.5-.6.8-.8.3-.2.7-.3 1.2-.3s.8.1 1.2.3c.3.2.6.5.7.9.2-.4.5-.7.8-.9.4-.2.8-.3 1.2-.3.7 0 1.2.2 1.6.7.4.5.6 1.2.6 2.1v4.1h-1.2v-4c0-.7-.1-1.1-.3-1.4s-.6-.4-1-.4-.8.1-1 .4c-.3.3-.4.7-.5 1.1V12.7h-1.2V8.6c0-.6-.1-1.1-.4-1.4-.2-.3-.6-.4-1-.4s-.7.1-.9.2c-.2.2-.4.4-.6.7v5h-1.2V5.9h1.1zM361.8 4.1h-1.2V2.9h1.2v1.2zm0 8.6h-1.2V5.9h1.2v6.8zM364.8 5.9l.1 1c.2-.4.5-.6.9-.8s.7-.3 1.2-.3c.7 0 1.3.2 1.7.6.4.4.6 1.1.6 2v4.3H368V8.4c0-.6-.1-1-.4-1.3-.2-.3-.6-.4-1.1-.4-.4 0-.7.1-.9.3-.3.2-.5.4-.7.7v5h-1.2V5.9h1.1z"/></g></g><g id="Per._Price"><path class="st1" d="M198 49.2c0-.3-.1-.6-.3-.8s-.5-.4-.9-.6c-.9-.3-1.5-.7-1.9-1.1s-.6-.9-.6-1.6c0-.7.2-1.2.6-1.6s1-.7 1.7-.7v-1.3h.9v1.3c.7.1 1.2.4 1.6.9s.6 1.1.6 1.8H198c0-.5-.1-.8-.3-1.1s-.4-.4-.8-.4c-.3 0-.6.1-.8.3s-.2.5-.2.8c0 .3.1.6.3.7s.5.4 1 .6c.9.3 1.5.7 1.9 1.1s.6.9.6 1.6c0 .7-.2 1.2-.6 1.6s-1 .6-1.7.7v1.2h-.9v-1.2c-.7-.1-1.3-.3-1.8-.8s-.7-1.1-.7-2h1.7c0 .5.1.9.4 1.1s.5.3.9.3.6-.1.8-.3.2-.2.2-.5zM204.7 51.4H203v-7h-1.7v-1.2l3.4-.3v8.5zM207.9 47.7l.5-4.8h4.8v1.4h-3.4l-.2 2c.2-.1.3-.2.6-.3s.5-.1.7-.1c.8 0 1.5.2 1.9.7s.7 1.2.7 2.1c0 .8-.2 1.5-.7 2s-1.2.8-2.1.8c-.8 0-1.5-.2-2-.6s-.8-1-.8-1.8l1.6-.1c0 .4.1.7.3.9s.5.3.8.3c.4 0 .7-.1.9-.4s.3-.7.3-1.1c0-.5-.1-.9-.3-1.2-.2-.3-.5-.4-.9-.4-.3 0-.6.1-.8.2s-.3.3-.4.5l-1.5-.1zM220.3 48.1c0 1.1-.3 2-.8 2.6s-1.2.9-2.1.9c-.9 0-1.6-.3-2.1-.9s-.8-1.4-.8-2.6v-1.9c0-1.1.3-2 .8-2.6s1.2-.9 2.1-.9c.9 0 1.6.3 2.1.9s.8 1.4.8 2.6v1.9zm-1.7-2c0-.7-.1-1.2-.3-1.5-.2-.3-.5-.5-.9-.5s-.7.2-.9.5-.3.8-.3 1.5v2.2c0 .7.1 1.2.3 1.5s.5.5.9.5.7-.2.9-.5.3-.8.3-1.5v-2.2z"/><g><path class="st1" d="M197 89.2c0-.3-.1-.6-.3-.8s-.5-.4-.9-.6c-.9-.3-1.5-.7-1.9-1.1s-.6-.9-.6-1.6c0-.7.2-1.2.6-1.6s1-.7 1.7-.7v-1.3h.9v1.3c.7.1 1.2.4 1.6.9s.6 1.1.6 1.8H197c0-.5-.1-.8-.3-1.1s-.4-.4-.8-.4c-.3 0-.6.1-.8.3s-.2.5-.2.8c0 .3.1.6.3.7s.5.4 1 .6c.9.3 1.5.7 1.9 1.1s.6.9.6 1.6c0 .7-.2 1.2-.6 1.6s-1 .6-1.7.7v1.2h-.9v-1.2c-.7-.1-1.3-.3-1.8-.8s-.7-1.1-.7-2h1.7c0 .5.1.9.4 1.1s.5.3.9.3.6-.1.8-.3.2-.2.2-.5zM201.5 86.4h1c.4 0 .7-.1.9-.3s.3-.5.3-.9c0-.3-.1-.6-.3-.8s-.5-.3-.8-.3c-.3 0-.6.1-.8.3s-.3.4-.3.7h-1.7c0-.7.2-1.2.8-1.7s1.2-.7 2-.7c.9 0 1.6.2 2.1.6s.8 1 .8 1.8c0 .4-.1.7-.4 1.1s-.6.6-1 .8c.5.2.8.4 1.1.8s.4.8.4 1.2c0 .8-.3 1.4-.9 1.8s-1.3.7-2.2.7c-.8 0-1.5-.2-2-.6s-.8-1-.8-1.8h1.7c0 .3.1.6.4.8.2.2.5.3.9.3s.7-.1.9-.3.3-.5.3-.9-.1-.8-.3-1c-.2-.2-.6-.3-1-.3h-1v-1.3zM206.9 87.7l.5-4.8h4.8v1.4h-3.4l-.2 2c.2-.1.3-.2.6-.3s.5-.1.7-.1c.8 0 1.5.2 1.9.7s.7 1.2.7 2.1c0 .8-.2 1.5-.7 2s-1.2.8-2.1.8c-.8 0-1.5-.2-2-.6s-.8-1-.8-1.8l1.6-.1c0 .4.1.7.3.9s.5.3.8.3c.4 0 .7-.1.9-.4s.3-.7.3-1.1c0-.5-.1-.9-.3-1.2-.2-.3-.5-.4-.9-.4-.3 0-.6.1-.8.2s-.3.3-.4.5l-1.5-.1zM219.3 88.1c0 1.1-.3 2-.8 2.6s-1.2.9-2.1.9c-.9 0-1.6-.3-2.1-.9s-.8-1.4-.8-2.6v-1.9c0-1.1.3-2 .8-2.6s1.2-.9 2.1-.9c.9 0 1.6.3 2.1.9s.8 1.4.8 2.6v1.9zm-1.7-2c0-.7-.1-1.2-.3-1.5-.2-.3-.5-.5-.9-.5s-.7.2-.9.5-.3.8-.3 1.5v2.2c0 .7.1 1.2.3 1.5s.5.5.9.5.7-.2.9-.5.3-.8.3-1.5v-2.2z"/></g><g><path class="st1" d="M197 129.2c0-.3-.1-.6-.3-.8s-.5-.4-.9-.6c-.9-.3-1.5-.7-1.9-1.1s-.6-.9-.6-1.6c0-.7.2-1.2.6-1.6s1-.7 1.7-.7v-1.3h.9v1.3c.7.1 1.2.4 1.6.9s.6 1.1.6 1.8H197c0-.5-.1-.8-.3-1.1s-.4-.4-.8-.4c-.3 0-.6.1-.8.3s-.2.5-.2.8c0 .3.1.6.3.7s.5.4 1 .6c.9.3 1.5.7 1.9 1.1s.6.9.6 1.6c0 .7-.2 1.2-.6 1.6s-1 .6-1.7.7v1.2h-.9v-1.2c-.7-.1-1.3-.3-1.8-.8s-.7-1.1-.7-2h1.7c0 .5.1.9.4 1.1s.5.3.9.3.6-.1.8-.3.2-.2.2-.5zM204.8 128.3h1v1.3h-1v1.9h-1.7v-1.9h-3.5l-.1-1 3.5-5.7h1.7v5.4zm-3.7 0h2v-3.1l-.1.2-1.9 2.9zM212.4 128.1c0 1.1-.3 2-.8 2.6s-1.2.9-2.1.9c-.9 0-1.6-.3-2.1-.9s-.8-1.4-.8-2.6v-1.9c0-1.1.3-2 .8-2.6s1.2-.9 2.1-.9c.9 0 1.6.3 2.1.9s.8 1.4.8 2.6v1.9zm-1.7-2c0-.7-.1-1.2-.3-1.5-.2-.3-.5-.5-.9-.5s-.7.2-.9.5-.3.8-.3 1.5v2.2c0 .7.1 1.2.3 1.5s.5.5.9.5.7-.2.9-.5.3-.8.3-1.5v-2.2zM219.3 128.1c0 1.1-.3 2-.8 2.6s-1.2.9-2.1.9c-.9 0-1.6-.3-2.1-.9s-.8-1.4-.8-2.6v-1.9c0-1.1.3-2 .8-2.6s1.2-.9 2.1-.9c.9 0 1.6.3 2.1.9s.8 1.4.8 2.6v1.9zm-1.7-2c0-.7-.1-1.2-.3-1.5-.2-.3-.5-.5-.9-.5s-.7.2-.9.5-.3.8-.3 1.5v2.2c0 .7.1 1.2.3 1.5s.5.5.9.5.7-.2.9-.5.3-.8.3-1.5v-2.2z"/></g><g><path class="st1" d="M197 169.2c0-.3-.1-.6-.3-.8s-.5-.4-.9-.6c-.9-.3-1.5-.7-1.9-1.1s-.6-.9-.6-1.6c0-.7.2-1.2.6-1.6s1-.7 1.7-.7v-1.3h.9v1.3c.7.1 1.2.4 1.6.9s.6 1.1.6 1.8H197c0-.5-.1-.8-.3-1.1s-.4-.4-.8-.4c-.3 0-.6.1-.8.3s-.2.5-.2.8c0 .3.1.6.3.7s.5.4 1 .6c.9.3 1.5.7 1.9 1.1s.6.9.6 1.6c0 .7-.2 1.2-.6 1.6s-1 .6-1.7.7v1.2h-.9v-1.2c-.7-.1-1.3-.3-1.8-.8s-.7-1.1-.7-2h1.7c0 .5.1.9.4 1.1s.5.3.9.3.6-.1.8-.3.2-.2.2-.5zM200 167.7l.5-4.8h4.8v1.4h-3.4l-.2 2c.2-.1.3-.2.6-.3s.5-.1.7-.1c.8 0 1.5.2 1.9.7s.7 1.2.7 2.1c0 .8-.2 1.5-.7 2s-1.2.8-2.1.8c-.8 0-1.5-.2-2-.6s-.8-1-.8-1.8l1.6-.1c0 .4.1.7.3.9s.5.3.8.3c.4 0 .7-.1.9-.4s.3-.7.3-1.1c0-.5-.1-.9-.3-1.2s-.5-.4-.9-.4c-.3 0-.6.1-.8.2s-.3.3-.4.5l-1.5-.1zM212.4 168.1c0 1.1-.3 2-.8 2.6s-1.2.9-2.1.9c-.9 0-1.6-.3-2.1-.9s-.8-1.4-.8-2.6v-1.9c0-1.1.3-2 .8-2.6s1.2-.9 2.1-.9c.9 0 1.6.3 2.1.9s.8 1.4.8 2.6v1.9zm-1.7-2c0-.7-.1-1.2-.3-1.5-.2-.3-.5-.5-.9-.5s-.7.2-.9.5c-.2.3-.3.8-.3 1.5v2.2c0 .7.1 1.2.3 1.5.2.3.5.5.9.5s.7-.2.9-.5c.2-.3.3-.8.3-1.5v-2.2zM219.3 168.1c0 1.1-.3 2-.8 2.6s-1.2.9-2.1.9c-.9 0-1.6-.3-2.1-.9s-.8-1.4-.8-2.6v-1.9c0-1.1.3-2 .8-2.6s1.2-.9 2.1-.9c.9 0 1.6.3 2.1.9s.8 1.4.8 2.6v1.9zm-1.7-2c0-.7-.1-1.2-.3-1.5-.2-.3-.5-.5-.9-.5s-.7.2-.9.5c-.2.3-.3.8-.3 1.5v2.2c0 .7.1 1.2.3 1.5.2.3.5.5.9.5s.7-.2.9-.5c.2-.3.3-.8.3-1.5v-2.2z"/></g></g><g id="Comm._Price"><path class="st1" d="M336 169.2c0-.3-.1-.6-.3-.8s-.5-.4-.9-.6c-.9-.3-1.5-.7-1.9-1.1s-.6-.9-.6-1.6c0-.7.2-1.2.6-1.6s1-.7 1.7-.7v-1.3h.9v1.3c.7.1 1.2.4 1.6.9s.6 1.1.6 1.8H336c0-.5-.1-.8-.3-1.1s-.4-.4-.8-.4c-.3 0-.6.1-.8.3s-.2.5-.2.8c0 .3.1.6.3.7s.5.4 1 .6c.9.3 1.5.7 1.9 1.1s.6.9.6 1.6c0 .7-.2 1.2-.6 1.6s-1 .6-1.7.7v1.2h-.9v-1.2c-.7-.1-1.3-.3-1.8-.8s-.7-1.1-.7-2h1.7c0 .5.1.9.4 1.1s.5.3.9.3.6-.1.8-.3.2-.2.2-.5zM342.2 162.8c.3 0 .6 0 .9.1s.5.1.8.3l-.3 1.3c-.3-.1-.5-.2-.7-.2s-.4-.1-.7-.1c-.5 0-.9.2-1.3.6s-.5.9-.4 1.6c.2-.2.4-.4.7-.5s.6-.2 1-.2c.8 0 1.4.3 1.8.8s.6 1.2.6 2.1c0 .9-.3 1.6-.8 2.1s-1.2.8-2.1.8c-.9 0-1.6-.3-2.2-.9s-.8-1.5-.8-2.5v-1.7c0-1.1.3-2 1-2.7s1.5-.9 2.5-.9zm-.4 4.2c-.3 0-.6.1-.8.2s-.4.2-.5.4v.6c0 .7.1 1.2.4 1.6s.6.5 1 .5.6-.2.8-.5.3-.7.3-1.2-.1-.9-.3-1.1-.5-.5-.9-.5zM345.9 167.7l.5-4.8h4.8v1.4h-3.4l-.2 2c.2-.1.3-.2.6-.3s.5-.1.7-.1c.8 0 1.5.2 1.9.7s.7 1.2.7 2.1c0 .8-.2 1.5-.7 2s-1.2.8-2.1.8c-.8 0-1.5-.2-2-.6s-.8-1-.8-1.8l1.6-.1c0 .4.1.7.3.9s.5.3.8.3c.4 0 .7-.1.9-.4s.3-.7.3-1.1c0-.5-.1-.9-.3-1.2s-.5-.4-.9-.4c-.3 0-.6.1-.8.2s-.3.3-.4.5l-1.5-.1zM358.3 168.1c0 1.1-.3 2-.8 2.6s-1.2.9-2.1.9c-.9 0-1.6-.3-2.1-.9s-.8-1.4-.8-2.6v-1.9c0-1.1.3-2 .8-2.6s1.2-.9 2.1-.9c.9 0 1.6.3 2.1.9s.8 1.4.8 2.6v1.9zm-1.7-2c0-.7-.1-1.2-.3-1.5-.2-.3-.5-.5-.9-.5s-.7.2-.9.5c-.2.3-.3.8-.3 1.5v2.2c0 .7.1 1.2.3 1.5.2.3.5.5.9.5s.7-.2.9-.5c.2-.3.3-.8.3-1.5v-2.2zM362.9 166.7h2.1v1.5h-2.1v2.4h-1.6v-2.4h-2.1v-1.5h2.1v-2.3h1.6v2.3z"/><g><path class="st1" d="M336 129.2c0-.3-.1-.6-.3-.8s-.5-.4-.9-.6c-.9-.3-1.5-.7-1.9-1.1s-.6-.9-.6-1.6c0-.7.2-1.2.6-1.6s1-.7 1.7-.7v-1.3h.9v1.3c.7.1 1.2.4 1.6.9s.6 1.1.6 1.8H336c0-.5-.1-.8-.3-1.1s-.4-.4-.8-.4c-.3 0-.6.1-.8.3s-.2.5-.2.8c0 .3.1.6.3.7s.5.4 1 .6c.9.3 1.5.7 1.9 1.1s.6.9.6 1.6c0 .7-.2 1.2-.6 1.6s-1 .6-1.7.7v1.2h-.9v-1.2c-.7-.1-1.3-.3-1.8-.8s-.7-1.1-.7-2h1.7c0 .5.1.9.4 1.1s.5.3.9.3.6-.1.8-.3.2-.2.2-.5zM339 127.7l.5-4.8h4.8v1.4h-3.4l-.2 2c.2-.1.3-.2.6-.3s.5-.1.7-.1c.8 0 1.5.2 1.9.7s.7 1.2.7 2.1c0 .8-.2 1.5-.7 2s-1.2.8-2.1.8c-.8 0-1.5-.2-2-.6s-.8-1-.8-1.8l1.6-.1c0 .4.1.7.3.9s.5.3.8.3c.4 0 .7-.1.9-.4s.3-.7.3-1.1c0-.5-.1-.9-.3-1.2-.2-.3-.5-.4-.9-.4-.3 0-.6.1-.8.2s-.3.3-.4.5l-1.5-.1zM351.4 128.1c0 1.1-.3 2-.8 2.6s-1.2.9-2.1.9c-.9 0-1.6-.3-2.1-.9s-.8-1.4-.8-2.6v-1.9c0-1.1.3-2 .8-2.6s1.2-.9 2.1-.9c.9 0 1.6.3 2.1.9s.8 1.4.8 2.6v1.9zm-1.7-2c0-.7-.1-1.2-.3-1.5-.2-.3-.5-.5-.9-.5s-.7.2-.9.5-.3.8-.3 1.5v2.2c0 .7.1 1.2.3 1.5s.5.5.9.5.7-.2.9-.5.3-.8.3-1.5v-2.2zM358.3 128.1c0 1.1-.3 2-.8 2.6s-1.2.9-2.1.9c-.9 0-1.6-.3-2.1-.9s-.8-1.4-.8-2.6v-1.9c0-1.1.3-2 .8-2.6s1.2-.9 2.1-.9c.9 0 1.6.3 2.1.9s.8 1.4.8 2.6v1.9zm-1.7-2c0-.7-.1-1.2-.3-1.5-.2-.3-.5-.5-.9-.5s-.7.2-.9.5-.3.8-.3 1.5v2.2c0 .7.1 1.2.3 1.5s.5.5.9.5.7-.2.9-.5.3-.8.3-1.5v-2.2zM362.9 126.7h2.1v1.5h-2.1v2.4h-1.6v-2.4h-2.1v-1.5h2.1v-2.3h1.6v2.3z"/></g><g><path class="st1" d="M336 89.2c0-.3-.1-.6-.3-.8s-.5-.4-.9-.6c-.9-.3-1.5-.7-1.9-1.1s-.6-.9-.6-1.6c0-.7.2-1.2.6-1.6s1-.7 1.7-.7v-1.3h.9v1.3c.7.1 1.2.4 1.6.9s.6 1.1.6 1.8H336c0-.5-.1-.8-.3-1.1s-.4-.4-.8-.4c-.3 0-.6.1-.8.3s-.2.5-.2.8c0 .3.1.6.3.7s.5.4 1 .6c.9.3 1.5.7 1.9 1.1s.6.9.6 1.6c0 .7-.2 1.2-.6 1.6s-1 .6-1.7.7v1.2h-.9v-1.2c-.7-.1-1.3-.3-1.8-.8s-.7-1.1-.7-2h1.7c0 .5.1.9.4 1.1s.5.3.9.3.6-.1.8-.3.2-.2.2-.5zM343.8 88.3h1v1.3h-1v1.9h-1.7v-1.9h-3.5l-.1-1 3.5-5.7h1.7v5.4zm-3.7 0h2v-3.1l-.1.2-1.9 2.9zM345.9 87.7l.5-4.8h4.8v1.4h-3.4l-.2 2c.2-.1.3-.2.6-.3s.5-.1.7-.1c.8 0 1.5.2 1.9.7s.7 1.2.7 2.1c0 .8-.2 1.5-.7 2s-1.2.8-2.1.8c-.8 0-1.5-.2-2-.6s-.8-1-.8-1.8l1.6-.1c0 .4.1.7.3.9s.5.3.8.3c.4 0 .7-.1.9-.4s.3-.7.3-1.1c0-.5-.1-.9-.3-1.2-.2-.3-.5-.4-.9-.4-.3 0-.6.1-.8.2s-.3.3-.4.5l-1.5-.1zM358.3 88.1c0 1.1-.3 2-.8 2.6s-1.2.9-2.1.9c-.9 0-1.6-.3-2.1-.9s-.8-1.4-.8-2.6v-1.9c0-1.1.3-2 .8-2.6s1.2-.9 2.1-.9c.9 0 1.6.3 2.1.9s.8 1.4.8 2.6v1.9zm-1.7-2c0-.7-.1-1.2-.3-1.5-.2-.3-.5-.5-.9-.5s-.7.2-.9.5-.3.8-.3 1.5v2.2c0 .7.1 1.2.3 1.5s.5.5.9.5.7-.2.9-.5.3-.8.3-1.5v-2.2zM362.9 86.7h2.1v1.5h-2.1v2.4h-1.6v-2.4h-2.1v-1.5h2.1v-2.3h1.6v2.3z"/></g><g><path class="st1" d="M336 49.2c0-.3-.1-.6-.3-.8s-.5-.4-.9-.6c-.9-.3-1.5-.7-1.9-1.1s-.6-.9-.6-1.6c0-.7.2-1.2.6-1.6s1-.7 1.7-.7v-1.3h.9v1.3c.7.1 1.2.4 1.6.9s.6 1.1.6 1.8H336c0-.5-.1-.8-.3-1.1s-.4-.4-.8-.4c-.3 0-.6.1-.8.3s-.2.5-.2.8c0 .3.1.6.3.7s.5.4 1 .6c.9.3 1.5.7 1.9 1.1s.6.9.6 1.6c0 .7-.2 1.2-.6 1.6s-1 .6-1.7.7v1.2h-.9v-1.2c-.7-.1-1.3-.3-1.8-.8s-.7-1.1-.7-2h1.7c0 .5.1.9.4 1.1s.5.3.9.3.6-.1.8-.3.2-.2.2-.5zM344.6 51.4h-5.8v-1.1l2.8-3c.4-.5.7-.8.8-1.2s.3-.6.3-.9c0-.4-.1-.7-.3-.9s-.5-.3-.8-.3c-.4 0-.7.1-.9.4s-.3.6-.3 1.1h-1.7c0-.8.2-1.4.8-2s1.2-.8 2.1-.8c.9 0 1.6.2 2.1.7s.8 1.1.8 1.8c0 .5-.1 1-.4 1.4s-.8 1-1.4 1.7l-1.5 1.7h3.6v1.4zM351.4 48.1c0 1.1-.3 2-.8 2.6s-1.2.9-2.1.9c-.9 0-1.6-.3-2.1-.9s-.8-1.4-.8-2.6v-1.9c0-1.1.3-2 .8-2.6s1.2-.9 2.1-.9c.9 0 1.6.3 2.1.9s.8 1.4.8 2.6v1.9zm-1.7-2c0-.7-.1-1.2-.3-1.5-.2-.3-.5-.5-.9-.5s-.7.2-.9.5-.3.8-.3 1.5v2.2c0 .7.1 1.2.3 1.5s.5.5.9.5.7-.2.9-.5.3-.8.3-1.5v-2.2zM358.3 48.1c0 1.1-.3 2-.8 2.6s-1.2.9-2.1.9c-.9 0-1.6-.3-2.1-.9s-.8-1.4-.8-2.6v-1.9c0-1.1.3-2 .8-2.6s1.2-.9 2.1-.9c.9 0 1.6.3 2.1.9s.8 1.4.8 2.6v1.9zm-1.7-2c0-.7-.1-1.2-.3-1.5-.2-.3-.5-.5-.9-.5s-.7.2-.9.5-.3.8-.3 1.5v2.2c0 .7.1 1.2.3 1.5s.5.5.9.5.7-.2.9-.5.3-.8.3-1.5v-2.2zM362.9 46.7h2.1v1.5h-2.1v2.4h-1.6v-2.4h-2.1v-1.5h2.1v-2.3h1.6v2.3z"/></g></g><path d="M188.5 198.5l-1.4-.5.1-.4 1.4.5v-1.6h.5v1.6l1.4-.6.1.4-1.4.5 1 1.3-.4.3-.9-1.3-.9 1.3-.4-.3.9-1.2zM195 201.1h-2.9l-.7 1.8h-.5l2.4-6.3h.5l2.4 6.3h-.5l-.7-1.8zm-2.8-.5h2.6l-1.3-3.4-1.3 3.4zM197.6 202.8h-.6V196h.5v6.8zM199.6 202.8h-.5V196h.5v6.8zM207 200.6c0 .7-.2 1.3-.5 1.7-.3.4-.8.6-1.3.6-.3 0-.6-.1-.9-.2-.2-.1-.4-.3-.6-.5v2.4h-.5v-6.5h.4l.1.7c.2-.3.4-.5.6-.6s.5-.2.9-.2c.6 0 1 .2 1.3.7.3.5.5 1.1.5 1.9zm-.6-.1c0-.6-.1-1.1-.4-1.5-.2-.4-.6-.6-1-.6s-.6.1-.9.2c-.2.2-.4.4-.5.7v2.3c.1.3.3.5.5.6.2.1.5.2.8.2.5 0 .8-.2 1-.5.4-.3.5-.7.5-1.4zM210.3 198.6h-.4c-.3 0-.6.1-.8.3-.2.2-.4.4-.4.8v3.2h-.5v-4.7h.5l.1.8v.1c.1-.3.3-.5.5-.7.2-.2.5-.2.8-.2h.4l-.2.4zM211.7 196.8h-.5v-.7h.5v.7zm0 6h-.5v-4.7h.5v4.7zM214.9 202.5c.3 0 .6-.1.9-.3.3-.2.4-.5.4-.8h.5c0 .4-.2.8-.5 1.1-.4.3-.8.4-1.3.4-.6 0-1.1-.2-1.5-.7-.3-.4-.5-1-.5-1.7v-.2c0-.7.2-1.2.5-1.7.4-.4.8-.7 1.5-.7.5 0 .9.2 1.3.5s.5.7.5 1.2h-.5c0-.4-.1-.7-.4-.9-.3-.2-.6-.3-.9-.3-.5 0-.9.2-1.1.5-.2.4-.4.8-.4 1.4v.2c0 .6.1 1 .4 1.4s.6.6 1.1.6zM219.5 202.9c-.6 0-1.1-.2-1.5-.7-.4-.4-.6-1-.6-1.6v-.2c0-.7.2-1.2.6-1.7.4-.4.9-.7 1.4-.7.6 0 1 .2 1.4.5.3.4.5.9.5 1.5v.4H218v.1c0 .5.1 1 .4 1.3s.6.5 1.1.5c.3 0 .6 0 .8-.1s.4-.2.6-.4l.2.4c-.2.2-.4.3-.7.4-.2.3-.5.3-.9.3zm0-4.4c-.4 0-.7.1-1 .4-.3.3-.4.7-.5 1.1h2.8v-.1c0-.4-.1-.7-.4-1s-.5-.4-.9-.4zM225.2 201.6c0-.2-.1-.4-.3-.6-.2-.2-.5-.3-1-.4-.6-.1-1-.3-1.2-.5-.3-.2-.4-.5-.4-.8 0-.4.2-.7.5-.9.3-.2.7-.4 1.2-.4s.9.1 1.3.4c.3.3.5.6.4 1h-.5c0-.3-.1-.5-.3-.7s-.5-.3-.9-.3-.7.1-.9.2c-.2.2-.3.4-.3.6 0 .2.1.4.2.5.2.1.5.3 1 .4.6.1 1 .3 1.3.5s.4.5.4.9-.2.7-.5 1-.7.4-1.3.4c-.6 0-1-.1-1.3-.4-.3-.3-.5-.6-.5-1h.5c0 .3.2.6.4.7.3.2.6.2.9.2.4 0 .7-.1.9-.2.3-.1.4-.3.4-.6zM228.8 200.5c0-.7.2-1.3.5-1.8.3-.4.8-.7 1.3-.7.3 0 .6.1.9.2.2.1.4.3.6.6V196h.5v6.8h-.5v-.7l-.6.6c-.2.1-.5.2-.9.2-.6 0-1-.2-1.3-.6s-.5-1-.5-1.8zm.6.1c0 .6.1 1 .3 1.4.2.3.6.5 1 .5.3 0 .6-.1.8-.2.2-.2.4-.4.5-.6v-2.2c-.1-.3-.3-.5-.5-.7-.2-.2-.5-.3-.9-.3-.5 0-.8.2-1 .6-.1.3-.2.8-.2 1.5zM235.8 202.9c-.6 0-1.1-.2-1.5-.7-.4-.4-.6-1-.6-1.6v-.2c0-.7.2-1.2.6-1.7.4-.4.9-.7 1.4-.7.6 0 1 .2 1.4.5.3.4.5.9.5 1.5v.4h-3.3v.1c0 .5.1 1 .4 1.3s.6.5 1.1.5c.3 0 .6 0 .8-.1s.4-.2.6-.4l.2.4c-.2.2-.4.3-.7.4-.2.3-.6.3-.9.3zm-.1-4.4c-.4 0-.7.1-1 .4-.3.3-.4.7-.5 1.1h2.8v-.1c0-.4-.1-.7-.4-1-.2-.3-.5-.4-.9-.4zM242.4 200.6c0 .7-.2 1.3-.5 1.7-.3.4-.8.6-1.3.6-.3 0-.6-.1-.9-.2-.2-.1-.4-.3-.6-.5v2.4h-.5v-6.5h.4l.1.7c.2-.3.4-.5.6-.6.2-.1.5-.2.9-.2.6 0 1 .2 1.3.7.3.5.5 1.1.5 1.9zm-.6-.1c0-.6-.1-1.1-.4-1.5-.2-.4-.6-.6-1-.6-.3 0-.6.1-.9.2-.2.2-.4.4-.5.7v2.3c.1.3.3.5.5.6s.5.2.8.2c.5 0 .8-.2 1-.5.4-.3.5-.7.5-1.4zM245.3 202.9c-.6 0-1.1-.2-1.5-.7-.4-.4-.6-1-.6-1.6v-.2c0-.7.2-1.2.6-1.7.4-.4.9-.7 1.4-.7.6 0 1 .2 1.4.5.3.4.5.9.5 1.5v.4h-3.3v.1c0 .5.1 1 .4 1.3.3.4.7.5 1.1.5.3 0 .6 0 .8-.1s.4-.2.6-.4l.2.4c-.2.2-.4.3-.7.4-.2.3-.5.3-.9.3zm-.1-4.4c-.4 0-.7.1-1 .4s-.4.7-.5 1.1h2.8v-.1c0-.4-.1-.7-.4-1s-.5-.4-.9-.4zM248.6 198.1v.8c.2-.3.4-.5.6-.7.3-.2.6-.2.9-.2.5 0 .9.2 1.2.5s.4.8.4 1.5v2.9h-.5V200c0-.5-.1-.9-.3-1.1-.2-.2-.5-.3-.9-.3s-.7.1-.9.3c-.2.2-.4.4-.5.8v3.3h-.5v-4.7h.5zM252.9 200.5c0-.7.2-1.3.5-1.8.3-.4.8-.7 1.3-.7.3 0 .6.1.9.2.2.1.4.3.6.6V196h.5v6.8h-.5v-.7l-.6.6c-.2.1-.5.2-.9.2-.6 0-1-.2-1.3-.6-.4-.4-.5-1-.5-1.8zm.5.1c0 .6.1 1 .3 1.4.2.3.6.5 1 .5.3 0 .6-.1.8-.2.2-.2.4-.4.5-.6v-2.2c-.1-.3-.3-.5-.5-.7s-.5-.3-.9-.3c-.5 0-.8.2-1 .6-.1.3-.2.8-.2 1.5zM259.9 200.4c0-.7.2-1.3.6-1.7.4-.4.9-.7 1.5-.7s1.1.2 1.5.7c.4.4.6 1 .6 1.7v.1c0 .7-.2 1.3-.6 1.7-.4.4-.9.7-1.5.7s-1.1-.2-1.5-.7-.6-1-.6-1.7v-.1zm.5.2c0 .5.1 1 .4 1.4.3.4.7.6 1.2.6s.9-.2 1.1-.6.4-.8.4-1.4v-.1c0-.5-.1-1-.4-1.4-.3-.4-.7-.6-1.1-.6s-.9.2-1.1.6c-.3.4-.4.8-.4 1.4v.1zM265.6 198.1v.8c.2-.3.4-.5.6-.7.3-.2.6-.2.9-.2.5 0 .9.2 1.2.5.3.3.4.8.4 1.5v2.9h-.5V200c0-.5-.1-.9-.3-1.1-.2-.2-.5-.3-.9-.3s-.7.1-.9.3c-.2.2-.4.4-.5.8v3.3h-.5v-4.7h.5zM274 202.9c-.6 0-1.1-.2-1.5-.7-.4-.4-.6-1-.6-1.6v-.2c0-.7.2-1.2.6-1.7.4-.4.9-.7 1.4-.7.6 0 1 .2 1.4.5.3.4.5.9.5 1.5v.4h-3.3v.1c0 .5.1 1 .4 1.3.3.4.6.5 1.1.5.3 0 .6 0 .8-.1s.4-.2.6-.4l.2.4c-.2.2-.4.3-.7.4s-.5.3-.9.3zm-.1-4.4c-.4 0-.7.1-1 .4-.3.3-.4.7-.5 1.1h2.8v-.1c0-.4-.1-.7-.4-1-.1-.3-.5-.4-.9-.4zM279.8 202.8c0-.2-.1-.3-.1-.4v-.4c-.2.2-.4.5-.7.6s-.6.2-1 .2c-.5 0-.8-.1-1.1-.4s-.4-.6-.4-1 .2-.8.6-1 .9-.4 1.5-.4h1v-.6c0-.3-.1-.6-.3-.8s-.5-.3-.9-.3-.7.1-.9.3c-.2.2-.4.4-.4.7h-.5c0-.3.1-.7.5-.9s.8-.4 1.3-.4.9.1 1.3.4c.3.3.5.6.5 1.1v2.8c0 .2 0 .3.1.5h-.5zm-1.7-.3c.4 0 .7-.1 1-.3.3-.2.5-.4.6-.7v-1h-1c-.5 0-.8.1-1.1.3s-.4.5-.4.7c0 .3.1.5.3.6 0 .3.3.4.6.4zM283.3 202.5c.3 0 .6-.1.9-.3.3-.2.4-.5.4-.8h.5c0 .4-.2.8-.5 1.1-.4.3-.8.4-1.3.4-.6 0-1.1-.2-1.5-.7s-.5-1-.5-1.7v-.2c0-.7.2-1.2.5-1.7.4-.4.8-.7 1.5-.7.5 0 .9.2 1.3.5.3.3.5.7.5 1.2h-.5c0-.4-.1-.7-.4-.9-.3-.2-.6-.3-.9-.3-.5 0-.9.2-1.1.5-.2.4-.4.8-.4 1.4v.2c0 .6.1 1 .4 1.4s.6.6 1.1.6zM286.7 198.9c.2-.3.4-.5.6-.7.3-.2.6-.2.9-.2.5 0 .9.2 1.1.5.3.3.4.8.4 1.4v2.9h-.5v-2.9c0-.5-.1-.9-.3-1.1-.2-.2-.5-.3-.8-.3-.4 0-.7.1-.9.3-.2.2-.4.4-.5.7v3.3h-.5V196h.5v2.9zM293.9 196.8h-.5v-.7h.5v.7zm0 6h-.5v-4.7h.5v4.7zM295.8 198.1v.8c.2-.3.4-.5.6-.7.3-.2.6-.2.9-.2.5 0 .9.2 1.2.5.3.3.4.8.4 1.5v2.9h-.5V200c0-.5-.1-.9-.3-1.1-.2-.2-.5-.3-.9-.3s-.7.1-.9.3c-.2.2-.4.4-.5.8v3.3h-.5v-4.7h.5zM300.1 200.5c0-.7.2-1.3.5-1.8.3-.4.8-.7 1.3-.7.3 0 .6.1.9.2.2.1.4.3.6.6V196h.5v6.8h-.5v-.7l-.6.6c-.2.2-.5.2-.9.2-.6 0-1-.2-1.3-.6-.4-.4-.5-1-.5-1.8zm.5.1c0 .6.1 1 .3 1.4.2.3.6.5 1 .5.3 0 .6-.1.8-.2.2-.2.4-.4.5-.6v-2.2c-.1-.3-.3-.5-.5-.7s-.5-.3-.9-.3c-.5 0-.8.2-1 .6-.1.3-.2.8-.2 1.5zM305.8 196.8h-.5v-.7h.5v.7zm0 6h-.5v-4.7h.5v4.7zM308.6 201.7l.2.6.2-.6 1.3-3.5h.5l-1.8 4.7h-.4l-1.8-4.7h.5l1.3 3.5zM312.2 196.8h-.5v-.7h.5v.7zm0 6h-.5v-4.7h.5v4.7zM313.4 200.5c0-.7.2-1.3.5-1.8.3-.4.8-.7 1.3-.7.3 0 .6.1.9.2.2.1.4.3.6.6V196h.5v6.8h-.5v-.7l-.6.6c-.2.2-.5.2-.9.2-.6 0-1-.2-1.3-.6-.3-.4-.5-1-.5-1.8zm.5.1c0 .6.1 1 .3 1.4.2.3.6.5 1 .5.3 0 .6-.1.8-.2.2-.2.4-.4.5-.6v-2.2c-.1-.3-.3-.5-.5-.7s-.5-.3-.9-.3c-.5 0-.8.2-1 .6 0 .3-.2.8-.2 1.5zM321.7 202.1c-.2.3-.4.5-.6.6-.3.1-.6.2-.9.2-.5 0-.9-.2-1.2-.5-.3-.3-.4-.9-.4-1.6v-2.7h.5v2.7c0 .6.1 1 .3 1.2.2.2.5.4.8.4.4 0 .7-.1.9-.3s.4-.4.5-.7V198h.5v4.7h-.5l.1-.6zM326.5 202.8c0-.2-.1-.3-.1-.4v-.4c-.2.2-.4.5-.7.6s-.6.2-1 .2c-.5 0-.8-.1-1.1-.4s-.4-.6-.4-1 .2-.8.6-1 .9-.4 1.5-.4h1v-.6c0-.3-.1-.6-.3-.8s-.5-.3-.9-.3-.7.1-.9.3c-.2.2-.4.4-.4.7h-.5c0-.3.1-.7.5-.9s.8-.4 1.3-.4.9.1 1.3.4c.3.3.5.6.5 1.1v2.8c0 .2 0 .3.1.5h-.5zm-1.7-.3c.4 0 .7-.1 1-.3.3-.2.5-.4.6-.7v-1h-1c-.5 0-.8.1-1.1.3s-.4.5-.4.7c0 .3.1.5.3.6 0 .3.3.4.6.4zM328.9 202.8h-.5V196h.5v6.8zM336.3 200.6c0 .7-.2 1.3-.5 1.7s-.8.6-1.3.6c-.3 0-.6-.1-.9-.2-.2-.1-.4-.3-.6-.5v2.4h-.5v-6.5h.4l.1.7c.2-.3.4-.5.6-.6.2-.1.5-.2.9-.2.6 0 1 .2 1.3.7.3.5.5 1.1.5 1.9zm-.6-.1c0-.6-.1-1.1-.4-1.5s-.6-.6-1-.6-.6.1-.9.2c-.2.2-.4.4-.5.7v2.3c.1.3.3.5.5.6.2.1.5.2.8.2.5 0 .8-.2 1-.5.4-.3.5-.7.5-1.4zM339.6 198.6h-.4c-.3 0-.6.1-.8.3-.2.2-.4.4-.4.8v3.2h-.5v-4.7h.5l.1.8v.1c.1-.3.3-.5.5-.7.2-.2.5-.2.8-.2h.4l-.2.4zM340.1 200.4c0-.7.2-1.3.6-1.7.4-.4.9-.7 1.5-.7s1.1.2 1.5.7c.4.4.6 1 .6 1.7v.1c0 .7-.2 1.3-.6 1.7-.4.4-.9.7-1.5.7s-1.1-.2-1.5-.7-.6-1-.6-1.7v-.1zm.5.2c0 .5.1 1 .4 1.4.3.4.7.6 1.2.6s.9-.2 1.1-.6.4-.8.4-1.4v-.1c0-.5-.1-1-.4-1.4-.3-.4-.7-.6-1.1-.6s-.9.2-1.1.6c-.3.4-.4.8-.4 1.4v.1zM345.9 198.1v5.1c0 .5-.1.9-.3 1.1-.2.3-.6.4-1 .4h-.2c-.1 0-.2 0-.2-.1l.1-.4h.4c.3 0 .5-.1.6-.3.1-.2.2-.4.2-.8V198h.4zm0-1.3h-.5v-.7h.5v.7zM349.2 202.9c-.6 0-1.1-.2-1.5-.7-.4-.4-.6-1-.6-1.6v-.2c0-.7.2-1.2.6-1.7.4-.4.9-.7 1.4-.7.6 0 1 .2 1.4.5.3.4.5.9.5 1.5v.4h-3.3v.1c0 .5.1 1 .4 1.3.3.4.6.5 1.1.5.3 0 .6 0 .8-.1s.4-.2.6-.4l.2.4c-.2.2-.4.3-.7.4s-.5.3-.9.3zm-.1-4.4c-.4 0-.7.1-1 .4-.3.3-.4.7-.5 1.1h2.8v-.1c0-.4-.1-.7-.4-1-.1-.3-.5-.4-.9-.4zM353.8 202.5c.3 0 .6-.1.9-.3.3-.2.4-.5.4-.8h.5c0 .4-.2.8-.5 1.1-.4.3-.8.4-1.3.4-.6 0-1.1-.2-1.5-.7s-.5-1-.5-1.7v-.2c0-.7.2-1.2.5-1.7.4-.4.8-.7 1.5-.7.5 0 .9.2 1.3.5.3.3.5.7.5 1.2h-.5c0-.4-.1-.7-.4-.9-.3-.2-.6-.3-.9-.3-.5 0-.9.2-1.1.5-.2.4-.4.8-.4 1.4v.2c0 .6.1 1 .4 1.4s.5.6 1.1.6zM357.4 196.9v1.2h1v.4h-1v3.1c0 .3.1.5.2.7s.3.2.4.2h.5l.1.4c-.1 0-.2.1-.3.1h-.4c-.3 0-.6-.1-.8-.3-.2-.2-.3-.5-.3-1v-3.1h-.8v-.4h.8V197h.6zM360.2 202.8h-.6v-.7h.6v.7z"/></svg>